# Deterministic Story World asset: StoryWorld_Gate
mtllib story_world.mtl
o StoryWorld_Gate
v -4.90000 0.00000 -0.40000
v -4.10000 0.00000 -0.40000
v -4.10000 7.50000 -0.40000
v -4.90000 7.50000 -0.40000
v -4.90000 0.00000 0.40000
v -4.10000 0.00000 0.40000
v -4.10000 7.50000 0.40000
v -4.90000 7.50000 0.40000
v 4.10000 0.00000 -0.40000
v 4.90000 0.00000 -0.40000
v 4.90000 7.50000 -0.40000
v 4.10000 7.50000 -0.40000
v 4.10000 0.00000 0.40000
v 4.90000 0.00000 0.40000
v 4.90000 7.50000 0.40000
v 4.10000 7.50000 0.40000
v -5.50000 5.80000 -0.50000
v 5.50000 5.80000 -0.50000
v 5.50000 6.60000 -0.50000
v -5.50000 6.60000 -0.50000
v -5.50000 5.80000 0.50000
v 5.50000 5.80000 0.50000
v 5.50000 6.60000 0.50000
v -5.50000 6.60000 0.50000
v -6.00000 6.60000 -1.20000
v 6.00000 6.60000 -1.20000
v 6.00000 6.60000 1.20000
v -6.00000 6.60000 1.20000
v 0.00000 8.60000 -1.20000
v 0.00000 8.60000 1.20000
v -2.40000 4.50000 -0.64000
v 2.40000 4.50000 -0.64000
v 2.40000 5.75000 -0.64000
v -2.40000 5.75000 -0.64000
v -2.40000 4.50000 -0.46000
v 2.40000 4.50000 -0.46000
v 2.40000 5.75000 -0.46000
v -2.40000 5.75000 -0.46000
usemtl wood
f 1 2 3 4
f 6 5 8 7
f 5 1 4 8
f 2 6 7 3
f 4 3 7 8
f 5 6 2 1
f 9 10 11 12
f 14 13 16 15
f 13 9 12 16
f 10 14 15 11
f 12 11 15 16
f 13 14 10 9
f 17 18 19 20
f 22 21 24 23
f 21 17 20 24
f 18 22 23 19
f 20 19 23 24
f 21 22 18 17
usemtl roof_red
f 25 26 29
f 28 30 27
f 25 29 30 28
f 26 27 30 29
usemtl gold
f 31 32 33 34
f 36 35 38 37
f 35 31 34 38
f 32 36 37 33
f 34 33 37 38
f 35 36 32 31
