# Deterministic Story World asset: house_large
mtllib story_world.mtl
o house_large
v -6.00000 0.00000 -4.50000
v 6.00000 0.00000 -4.50000
v 6.00000 6.00000 -4.50000
v -6.00000 6.00000 -4.50000
v -6.00000 0.00000 4.50000
v 6.00000 0.00000 4.50000
v 6.00000 6.00000 4.50000
v -6.00000 6.00000 4.50000
v -1.10000 0.05000 -4.73000
v 1.10000 0.05000 -4.73000
v 1.10000 3.05000 -4.73000
v -1.10000 3.05000 -4.73000
v -1.10000 0.05000 -4.43000
v 1.10000 0.05000 -4.43000
v 1.10000 3.05000 -4.43000
v -1.10000 3.05000 -4.43000
v -4.01000 1.60000 -4.72000
v -2.71000 1.60000 -4.72000
v -2.71000 2.85000 -4.72000
v -4.01000 2.85000 -4.72000
v -4.01000 1.60000 -4.48000
v -2.71000 1.60000 -4.48000
v -2.71000 2.85000 -4.48000
v -4.01000 2.85000 -4.48000
v 2.71000 1.60000 -4.72000
v 4.01000 1.60000 -4.72000
v 4.01000 2.85000 -4.72000
v 2.71000 2.85000 -4.72000
v 2.71000 1.60000 -4.48000
v 4.01000 1.60000 -4.48000
v 4.01000 2.85000 -4.48000
v 2.71000 2.85000 -4.48000
v -6.90000 6.00000 -5.50000
v 6.90000 6.00000 -5.50000
v 6.90000 6.00000 5.50000
v -6.90000 6.00000 5.50000
v 0.00000 9.00000 -5.50000
v 0.00000 9.00000 5.50000
usemtl plaster
f 1 2 3 4
f 6 5 8 7
f 5 1 4 8
f 2 6 7 3
f 4 3 7 8
f 5 6 2 1
usemtl wood
f 9 10 11 12
f 14 13 16 15
f 13 9 12 16
f 10 14 15 11
f 12 11 15 16
f 13 14 10 9
f 17 18 19 20
f 22 21 24 23
f 21 17 20 24
f 18 22 23 19
f 20 19 23 24
f 21 22 18 17
f 25 26 27 28
f 30 29 32 31
f 29 25 28 32
f 26 30 31 27
f 28 27 31 32
f 29 30 26 25
usemtl roof_red
f 33 34 37
f 36 38 35
f 33 37 38 36
f 34 35 38 37
