# Deterministic Story World asset: StoryWorld_Lantern
mtllib story_world.mtl
o StoryWorld_Lantern
v -0.14000 0.00000 -0.14000
v 0.14000 0.00000 -0.14000
v 0.14000 4.20000 -0.14000
v -0.14000 4.20000 -0.14000
v -0.14000 0.00000 0.14000
v 0.14000 0.00000 0.14000
v 0.14000 4.20000 0.14000
v -0.14000 4.20000 0.14000
v -0.75000 3.40000 -0.10000
v 0.75000 3.40000 -0.10000
v 0.75000 3.60000 -0.10000
v -0.75000 3.60000 -0.10000
v -0.75000 3.40000 0.10000
v 0.75000 3.40000 0.10000
v 0.75000 3.60000 0.10000
v -0.75000 3.60000 0.10000
v 0.17500 2.45000 -0.37500
v 0.92500 2.45000 -0.37500
v 0.92500 3.50000 -0.37500
v 0.17500 3.50000 -0.37500
v 0.17500 2.45000 0.37500
v 0.92500 2.45000 0.37500
v 0.92500 3.50000 0.37500
v 0.17500 3.50000 0.37500
v 1.20000 3.50000 0.00000
v 0.55000 3.50000 0.65000
v -0.10000 3.50000 0.00000
v 0.55000 3.50000 -0.65000
v 0.55000 3.95000 0.00000
usemtl wood
f 1 2 3 4
f 6 5 8 7
f 5 1 4 8
f 2 6 7 3
f 4 3 7 8
f 5 6 2 1
f 9 10 11 12
f 14 13 16 15
f 13 9 12 16
f 10 14 15 11
f 12 11 15 16
f 13 14 10 9
usemtl lantern
f 17 18 19 20
f 22 21 24 23
f 21 17 20 24
f 18 22 23 19
f 20 19 23 24
f 21 22 18 17
usemtl gold
f 25 26 29
f 26 27 29
f 27 28 29
f 28 25 29
f 28 27 26 25
