# Original low-poly story asset: npc_quest_v1.obj
mtllib story_npc_v1.mtl
o npc_quest_v1
s 1

v -0.35000 0.22500 -0.22500
v 0.35000 0.22500 -0.22500
v 0.35000 1.47500 -0.22500
v -0.35000 1.47500 -0.22500
v -0.35000 0.22500 0.22500
v 0.35000 0.22500 0.22500
v 0.35000 1.47500 0.22500
v -0.35000 1.47500 0.22500
v 0.00000 1.90000 0.00000
v 0.00000 1.90000 0.00000
v 0.00000 1.90000 0.00000
v 0.00000 1.90000 0.00000
v 0.00000 1.90000 0.00000
v 0.00000 1.90000 0.00000
v 0.00000 1.90000 0.00000
v 0.00000 1.90000 0.00000
v 0.00000 1.90000 0.00000
v 0.00000 1.90000 0.00000
v 0.14000 1.86249 0.00000
v 0.11326 1.86249 0.08229
v 0.04326 1.86249 0.13315
v -0.04326 1.86249 0.13315
v -0.11326 1.86249 0.08229
v -0.14000 1.86249 0.00000
v -0.11326 1.86249 -0.08229
v -0.04326 1.86249 -0.13315
v 0.04326 1.86249 -0.13315
v 0.11326 1.86249 -0.08229
v 0.24249 1.76000 0.00000
v 0.19618 1.76000 0.14253
v 0.07493 1.76000 0.23062
v -0.07493 1.76000 0.23062
v -0.19618 1.76000 0.14253
v -0.24249 1.76000 0.00000
v -0.19618 1.76000 -0.14253
v -0.07493 1.76000 -0.23062
v 0.07493 1.76000 -0.23062
v 0.19618 1.76000 -0.14253
v 0.28000 1.62000 0.00000
v 0.22652 1.62000 0.16458
v 0.08652 1.62000 0.26630
v -0.08652 1.62000 0.26630
v -0.22652 1.62000 0.16458
v -0.28000 1.62000 0.00000
v -0.22652 1.62000 -0.16458
v -0.08652 1.62000 -0.26630
v 0.08652 1.62000 -0.26630
v 0.22652 1.62000 -0.16458
v 0.24249 1.48000 0.00000
v 0.19618 1.48000 0.14253
v 0.07493 1.48000 0.23062
v -0.07493 1.48000 0.23062
v -0.19618 1.48000 0.14253
v -0.24249 1.48000 0.00000
v -0.19618 1.48000 -0.14253
v -0.07493 1.48000 -0.23062
v 0.07493 1.48000 -0.23062
v 0.19618 1.48000 -0.14253
v 0.14000 1.37751 0.00000
v 0.11326 1.37751 0.08229
v 0.04326 1.37751 0.13315
v -0.04326 1.37751 0.13315
v -0.11326 1.37751 0.08229
v -0.14000 1.37751 0.00000
v -0.11326 1.37751 -0.08229
v -0.04326 1.37751 -0.13315
v 0.04326 1.37751 -0.13315
v 0.11326 1.37751 -0.08229
v 0.00000 1.34000 0.00000
v 0.00000 1.34000 0.00000
v 0.00000 1.34000 0.00000
v -0.00000 1.34000 0.00000
v -0.00000 1.34000 0.00000
v -0.00000 1.34000 0.00000
v -0.00000 1.34000 -0.00000
v -0.00000 1.34000 -0.00000
v 0.00000 1.34000 -0.00000
v 0.00000 1.34000 -0.00000
v 0.34000 1.87000 0.00000
v 0.24042 1.87000 0.24042
v 0.00000 1.87000 0.34000
v -0.24042 1.87000 0.24042
v -0.34000 1.87000 0.00000
v -0.24042 1.87000 -0.24042
v -0.00000 1.87000 -0.34000
v 0.24042 1.87000 -0.24042
v 0.34000 2.01000 0.00000
v 0.24042 2.01000 0.24042
v 0.00000 2.01000 0.34000
v -0.24042 2.01000 0.24042
v -0.34000 2.01000 0.00000
v -0.24042 2.01000 -0.24042
v -0.00000 2.01000 -0.34000
v 0.24042 2.01000 -0.24042
v -0.55000 0.47500 -0.11000
v -0.37000 0.47500 -0.11000
v -0.37000 1.02500 -0.11000
v -0.55000 1.02500 -0.11000
v -0.55000 0.47500 0.11000
v -0.37000 0.47500 0.11000
v -0.37000 1.02500 0.11000
v -0.55000 1.02500 0.11000
v 0.37000 0.47500 -0.11000
v 0.55000 0.47500 -0.11000
v 0.55000 1.02500 -0.11000
v 0.37000 1.02500 -0.11000
v 0.37000 0.47500 0.11000
v 0.55000 0.47500 0.11000
v 0.55000 1.02500 0.11000
v 0.37000 1.02500 0.11000

usemtl robe_warm
f 1 2 3 4
f 5 8 7 6
f 1 5 6 2
f 4 3 7 8
f 1 4 8 5
f 2 6 7 3

usemtl skin
f 9 10 20 19
f 10 11 21 20
f 11 12 22 21
f 12 13 23 22
f 13 14 24 23
f 14 15 25 24
f 15 16 26 25
f 16 17 27 26
f 17 18 28 27
f 18 9 19 28
f 19 20 30 29
f 20 21 31 30
f 21 22 32 31
f 22 23 33 32
f 23 24 34 33
f 24 25 35 34
f 25 26 36 35
f 26 27 37 36
f 27 28 38 37
f 28 19 29 38
f 29 30 40 39
f 30 31 41 40
f 31 32 42 41
f 32 33 43 42
f 33 34 44 43
f 34 35 45 44
f 35 36 46 45
f 36 37 47 46
f 37 38 48 47
f 38 29 39 48
f 39 40 50 49
f 40 41 51 50
f 41 42 52 51
f 42 43 53 52
f 43 44 54 53
f 44 45 55 54
f 45 46 56 55
f 46 47 57 56
f 47 48 58 57
f 48 39 49 58
f 49 50 60 59
f 50 51 61 60
f 51 52 62 61
f 52 53 63 62
f 53 54 64 63
f 54 55 65 64
f 55 56 66 65
f 56 57 67 66
f 57 58 68 67
f 58 49 59 68
f 59 60 70 69
f 60 61 71 70
f 61 62 72 71
f 62 63 73 72
f 63 64 74 73
f 64 65 75 74
f 65 66 76 75
f 66 67 77 76
f 67 68 78 77
f 68 59 69 78

usemtl gold
f 79 80 88 87
f 80 81 89 88
f 81 82 90 89
f 82 83 91 90
f 83 84 92 91
f 84 85 93 92
f 85 86 94 93
f 86 79 87 94
f 86 85 84 83 82 81 80 79
f 87 88 89 90 91 92 93 94

usemtl robe_warm
f 95 96 97 98
f 99 102 101 100
f 95 99 100 96
f 98 97 101 102
f 95 98 102 99
f 96 100 101 97
f 103 104 105 106
f 107 110 109 108
f 103 107 108 104
f 106 105 109 110
f 103 106 110 107
f 104 108 109 105
