# Deterministic Story World v5 asset: StoryWorld_RoadNetwork_v5
# Continuous terrain-conforming road ribbon
mtllib story_world_v5.mtl
o StoryWorld_RoadNetwork_v5
s 1
v -40.740000 4.631842 -31.680000
v -39.597143 4.077549 -30.822857
v -40.403543 3.803337 -29.747657
v -41.546400 4.318825 -30.604800
v -41.546400 4.318825 -30.604800
v -40.403543 3.803337 -29.747657
v -41.310743 3.482025 -28.538057
v -42.453600 3.952870 -29.395200
v -42.453600 3.952870 -29.395200
v -41.310743 3.482025 -28.538057
v -42.117143 3.193667 -27.462857
v -43.260000 3.625108 -28.320000
v -39.597143 4.077549 -30.822857
v -38.454286 3.549070 -29.965714
v -39.260686 3.313985 -28.890514
v -40.403543 3.803337 -29.747657
v -40.403543 3.803337 -29.747657
v -39.260686 3.313985 -28.890514
v -40.167886 3.037634 -27.680914
v -41.310743 3.482025 -28.538057
v -41.310743 3.482025 -28.538057
v -40.167886 3.037634 -27.680914
v -40.974286 2.788928 -26.605714
v -42.117143 3.193667 -27.462857
v -38.454286 3.549070 -29.965714
v -37.311429 3.053220 -29.108571
v -38.117829 2.856671 -28.033371
v -39.260686 3.313985 -28.890514
v -39.260686 3.313985 -28.890514
v -38.117829 2.856671 -28.033371
v -39.025029 2.624540 -26.823771
v -40.167886 3.037634 -27.680914
v -40.167886 3.037634 -27.680914
v -39.025029 2.624540 -26.823771
v -39.831429 2.414791 -25.748571
v -40.974286 2.788928 -26.605714
v -37.311429 3.053220 -29.108571
v -36.168571 2.595133 -28.251429
v -36.974971 2.435748 -27.176229
v -38.117829 2.856671 -28.033371
v -38.117829 2.856671 -28.033371
v -36.974971 2.435748 -27.176229
v -37.882171 2.246189 -25.966629
v -39.025029 2.624540 -26.823771
v -39.025029 2.624540 -26.823771
v -37.882171 2.246189 -25.966629
v -38.688571 2.073902 -24.891429
v -39.831429 2.414791 -25.748571
v -36.168571 2.595133 -28.251429
v -35.025714 2.178217 -27.394286
v -35.832114 2.053982 -26.319086
v -36.974971 2.435748 -27.176229
v -36.974971 2.435748 -27.176229
v -35.832114 2.053982 -26.319086
v -36.739314 1.904618 -25.109486
v -37.882171 2.246189 -25.966629
v -37.882171 2.246189 -25.966629
v -36.739314 1.904618 -25.109486
v -37.545714 1.767646 -24.034286
v -38.688571 2.073902 -24.891429
v -35.025714 2.178217 -27.394286
v -33.882857 1.804253 -26.537143
v -34.689257 1.712666 -25.461943
v -35.832114 2.053982 -26.319086
v -35.832114 2.053982 -26.319086
v -34.689257 1.712666 -25.461943
v -35.596457 1.600551 -24.252343
v -36.739314 1.904618 -25.109486
v -36.739314 1.904618 -25.109486
v -35.596457 1.600551 -24.252343
v -36.402857 1.496253 -23.177143
v -37.545714 1.767646 -24.034286
v -33.882857 1.804253 -26.537143
v -31.597143 1.185593 -24.822857
v -32.403543 1.150501 -23.747657
v -34.689257 1.712666 -25.461943
v -34.689257 1.712666 -25.461943
v -32.403543 1.150501 -23.747657
v -33.310743 1.102587 -22.538057
v -35.596457 1.600551 -24.252343
v -35.596457 1.600551 -24.252343
v -33.310743 1.102587 -22.538057
v -34.117143 1.054420 -21.462857
v -36.402857 1.496253 -23.177143
v -31.597143 1.185593 -24.822857
v -30.454286 0.938699 -23.965714
v -31.260686 0.927100 -22.890514
v -32.403543 1.150501 -23.747657
v -32.403543 1.150501 -23.747657
v -31.260686 0.927100 -22.890514
v -32.167886 0.905736 -21.680914
v -33.310743 1.102587 -22.538057
v -33.310743 1.102587 -22.538057
v -32.167886 0.905736 -21.680914
v -32.974286 0.880674 -20.605714
v -34.117143 1.054420 -21.462857
v -30.454286 0.938699 -23.965714
v -29.311429 0.731058 -23.108571
v -30.117829 0.739704 -22.033371
v -31.260686 0.927100 -22.890514
v -31.260686 0.927100 -22.890514
v -30.117829 0.739704 -22.033371
v -31.025029 0.741098 -20.823771
v -32.167886 0.905736 -21.680914
v -32.167886 0.905736 -21.680914
v -31.025029 0.741098 -20.823771
v -31.831429 0.735751 -19.748571
v -32.974286 0.880674 -20.605714
v -29.311429 0.731058 -23.108571
v -28.168571 0.560712 -22.251429
v -28.974971 0.586385 -21.176229
v -30.117829 0.739704 -22.033371
v -30.117829 0.739704 -22.033371
v -28.974971 0.586385 -21.176229
v -29.882171 0.606777 -19.966629
v -31.025029 0.741098 -20.823771
v -31.025029 0.741098 -20.823771
v -29.882171 0.606777 -19.966629
v -30.688571 0.617775 -18.891429
v -31.831429 0.735751 -19.748571
v -28.168571 0.560712 -22.251429
v -27.025714 0.425555 -21.394286
v -27.832114 0.465096 -20.319086
v -28.974971 0.586385 -21.176229
v -28.974971 0.586385 -21.176229
v -27.832114 0.465096 -20.319086
v -28.739314 0.500943 -19.109486
v -29.882171 0.606777 -19.966629
v -29.882171 0.606777 -19.966629
v -28.739314 0.500943 -19.109486
v -29.545714 0.525155 -18.034286
v -30.688571 0.617775 -18.891429
v -27.025714 0.425555 -21.394286
v -25.805406 0.302824 -20.476163
v -26.661375 0.358094 -19.439990
v -27.832114 0.465096 -20.319086
v -27.832114 0.465096 -20.319086
v -26.661375 0.358094 -19.439990
v -27.624340 0.411198 -18.274296
v -28.739314 0.500943 -19.109486
v -28.739314 0.500943 -19.109486
v -27.624340 0.411198 -18.274296
v -28.480308 0.450064 -17.238123
v -29.545714 0.525155 -18.034286
v -25.805406 0.302824 -20.476163
v -23.587387 0.112749 -18.553874
v -24.491459 0.183785 -17.559395
v -26.661375 0.358094 -19.439990
v -26.661375 0.358094 -19.439990
v -24.491459 0.183785 -17.559395
v -25.508541 0.255523 -16.440605
v -27.624340 0.411198 -18.274296
v -27.624340 0.411198 -18.274296
v -25.508541 0.255523 -16.440605
v -26.412613 0.311457 -15.446126
v -28.480308 0.450064 -17.238123
v -23.587387 0.112749 -18.553874
v -22.515076 0.039082 -17.484924
v -23.465427 0.114985 -16.534573
v -24.491459 0.183785 -17.559395
v -24.491459 0.183785 -17.559395
v -23.465427 0.114985 -16.534573
v -24.534573 0.192771 -15.465427
v -25.508541 0.255523 -16.440605
v -25.508541 0.255523 -16.440605
v -24.534573 0.192771 -15.465427
v -25.484924 0.254502 -14.515076
v -26.412613 0.311457 -15.446126
v -22.515076 0.039082 -17.484924
v -21.515076 -0.017996 -16.484924
v -22.465427 0.057170 -15.534573
v -23.465427 0.114985 -16.534573
v -23.465427 0.114985 -16.534573
v -22.465427 0.057170 -15.534573
v -23.534573 0.134863 -14.465427
v -24.534573 0.192771 -15.465427
v -24.534573 0.192771 -15.465427
v -23.534573 0.134863 -14.465427
v -24.484924 0.197240 -13.515076
v -25.484924 0.254502 -14.515076
v -21.515076 -0.017996 -16.484924
v -20.515076 -0.064043 -15.484924
v -21.465427 0.008478 -14.534573
v -22.465427 0.057170 -15.534573
v -22.465427 0.057170 -15.534573
v -21.465427 0.008478 -14.534573
v -22.534573 0.083781 -13.465427
v -23.534573 0.134863 -14.465427
v -23.534573 0.134863 -14.465427
v -22.534573 0.083781 -13.465427
v -23.484924 0.144672 -12.515076
v -24.484924 0.197240 -13.515076
v -20.515076 -0.064043 -15.484924
v -19.515076 -0.099132 -14.484924
v -20.465427 -0.030922 -13.534573
v -21.465427 0.008478 -14.534573
v -21.465427 0.008478 -14.534573
v -20.465427 -0.030922 -13.534573
v -21.534573 0.039959 -12.465427
v -22.534573 0.083781 -13.465427
v -22.534573 0.083781 -13.465427
v -21.534573 0.039959 -12.465427
v -22.484924 0.097459 -11.515076
v -23.484924 0.144672 -12.515076
v -19.515076 -0.099132 -14.484924
v -18.515076 -0.123385 -13.484924
v -19.465427 -0.060866 -12.534573
v -20.465427 -0.030922 -13.534573
v -20.465427 -0.030922 -13.534573
v -19.465427 -0.060866 -12.534573
v -20.534573 0.003887 -11.465427
v -21.534573 0.039959 -12.465427
v -21.534573 0.039959 -12.465427
v -20.534573 0.003887 -11.465427
v -21.484924 0.056364 -10.515076
v -22.484924 0.097459 -11.515076
v -18.515076 -0.123385 -13.484924
v -17.515076 -0.137120 -12.484924
v -18.465427 -0.081337 -11.534573
v -19.465427 -0.060866 -12.534573
v -19.465427 -0.060866 -12.534573
v -18.465427 -0.081337 -11.534573
v -19.534573 -0.024046 -10.465427
v -20.534573 0.003887 -11.465427
v -20.534573 0.003887 -11.465427
v -19.534573 -0.024046 -10.465427
v -20.484924 0.022098 -9.515076
v -21.484924 0.056364 -10.515076
v -17.515076 -0.137120 -12.484924
v -15.515076 -0.135894 -10.484924
v -16.465427 -0.095238 -9.534573
v -18.465427 -0.081337 -11.534573
v -18.465427 -0.081337 -11.534573
v -16.465427 -0.095238 -9.534573
v -17.534573 -0.055190 -8.465427
v -19.534573 -0.024046 -10.465427
v -19.534573 -0.024046 -10.465427
v -17.534573 -0.055190 -8.465427
v -18.484924 -0.024192 -7.515076
v -20.484924 0.022098 -9.515076
v -15.515076 -0.135894 -10.484924
v -14.515076 -0.123300 -9.484924
v -15.465427 -0.090271 -8.534573
v -16.465427 -0.095238 -9.534573
v -16.465427 -0.095238 -9.534573
v -15.465427 -0.090271 -8.534573
v -16.534573 -0.059122 -7.465427
v -17.534573 -0.055190 -8.465427
v -17.534573 -0.055190 -8.465427
v -16.534573 -0.059122 -7.465427
v -17.484924 -0.036162 -6.515076
v -18.484924 -0.024192 -7.515076
v -14.515076 -0.123300 -9.484924
v -13.515076 -0.104892 -8.484924
v -14.465427 -0.079045 -7.534573
v -15.465427 -0.090271 -8.534573
v -15.465427 -0.090271 -8.534573
v -14.465427 -0.079045 -7.534573
v -15.534573 -0.056407 -6.465427
v -16.534573 -0.059122 -7.465427
v -16.534573 -0.059122 -7.465427
v -15.534573 -0.056407 -6.465427
v -16.484924 -0.041279 -5.515076
v -17.484924 -0.036162 -6.515076
v -13.515076 -0.104892 -8.484924
v -12.515076 -0.082629 -7.484924
v -13.465427 -0.063199 -6.534573
v -14.465427 -0.079045 -7.534573
v -14.465427 -0.079045 -7.534573
v -13.465427 -0.063199 -6.534573
v -14.534573 -0.048303 -5.465427
v -15.534573 -0.056407 -6.465427
v -15.534573 -0.056407 -6.465427
v -14.534573 -0.048303 -5.465427
v -15.484924 -0.040450 -4.515076
v -16.484924 -0.041279 -5.515076
v -12.515076 -0.082629 -7.484924
v -11.515076 -0.058577 -6.484924
v -12.465427 -0.044546 -5.534573
v -13.465427 -0.063199 -6.534573
v -13.465427 -0.063199 -6.534573
v -12.465427 -0.044546 -5.534573
v -13.534573 -0.036304 -4.465427
v -14.534573 -0.048303 -5.465427
v -14.534573 -0.048303 -5.465427
v -13.534573 -0.036304 -4.465427
v -14.484924 -0.034870 -3.515076
v -15.484924 -0.040450 -4.515076
v -11.515076 -0.058577 -6.484924
v -10.515076 -0.034746 -5.484924
v -11.465427 -0.024917 -4.534573
v -12.465427 -0.044546 -5.534573
v -12.465427 -0.044546 -5.534573
v -11.465427 -0.024917 -4.534573
v -12.534573 -0.022013 -3.465427
v -13.534573 -0.036304 -4.465427
v -13.534573 -0.036304 -4.465427
v -12.534573 -0.022013 -3.465427
v -13.484924 -0.025912 -2.515076
v -14.484924 -0.034870 -3.515076
v -10.515076 -0.034746 -5.484924
v -9.252694 -0.007199 -4.164870
v -10.370970 -0.004144 -3.419353
v -11.465427 -0.024917 -4.534573
v -11.465427 -0.024917 -4.534573
v -10.370970 -0.004144 -3.419353
v -11.629030 -0.008558 -2.580647
v -12.534573 -0.022013 -3.465427
v -12.534573 -0.022013 -3.465427
v -11.629030 -0.008558 -2.580647
v -12.747306 -0.018352 -1.835130
v -13.484924 -0.025912 -2.515076
v -9.252694 -0.007199 -4.164870
v -7.769492 0.022198 -1.363752
v -9.014160 0.022734 -0.856665
v -10.370970 -0.004144 -3.419353
v -10.370970 -0.004144 -3.419353
v -9.014160 0.022734 -0.856665
v -10.414412 0.013584 -0.286192
v -11.629030 -0.008558 -2.580647
v -11.629030 -0.008558 -2.580647
v -10.414412 0.013584 -0.286192
v -11.659080 -0.001753 0.220895
v -12.747306 -0.018352 -1.835130
v -7.769492 0.022198 -1.363752
v -7.369352 0.029060 0.445299
v -8.687252 0.029532 0.708879
v -9.014160 0.022734 -0.856665
v -9.014160 0.022734 -0.856665
v -8.687252 0.029532 0.708879
v -10.169890 0.019264 1.005407
v -10.414412 0.013584 -0.286192
v -10.414412 0.013584 -0.286192
v -10.169890 0.019264 1.005407
v -11.487791 0.002392 1.268987
v -11.659080 -0.001753 0.220895
v -7.369352 0.029060 0.445299
v -7.083638 0.032303 1.873870
v -8.401538 0.033485 2.137450
v -8.687252 0.029532 0.708879
v -8.687252 0.029532 0.708879
v -8.401538 0.033485 2.137450
v -9.884176 0.023498 2.433978
v -10.169890 0.019264 1.005407
v -10.169890 0.019264 1.005407
v -9.884176 0.023498 2.433978
v -11.202077 0.006332 2.697558
v -11.487791 0.002392 1.268987
v -7.083638 0.032303 1.873870
v -6.797923 0.034492 3.302442
v -8.115824 0.035851 3.566022
v -8.401538 0.033485 2.137450
v -8.401538 0.033485 2.137450
v -8.115824 0.035851 3.566022
v -9.598462 0.025710 3.862550
v -9.884176 0.023498 2.433978
v -9.884176 0.023498 2.433978
v -9.598462 0.025710 3.862550
v -10.916362 0.008023 4.126130
v -11.202077 0.006332 2.697558
v -6.797923 0.034492 3.302442
v -6.512209 0.035917 4.731013
v -7.830110 0.036815 4.994593
v -8.115824 0.035851 3.566022
v -8.115824 0.035851 3.566022
v -7.830110 0.036815 4.994593
v -9.312748 0.025969 5.291121
v -9.598462 0.025710 3.862550
v -9.598462 0.025710 3.862550
v -9.312748 0.025969 5.291121
v -10.630648 0.007439 5.554701
v -10.916362 0.008023 4.126130
v -6.512209 0.035917 4.731013
v -6.203817 0.036526 6.296288
v -7.536231 0.036236 6.472378
v -7.830110 0.036815 4.994593
v -7.830110 0.036815 4.994593
v -7.536231 0.036236 6.472378
v -9.035197 0.024256 6.670479
v -9.312748 0.025969 5.291121
v -9.312748 0.025969 5.291121
v -9.035197 0.024256 6.670479
v -10.367612 0.004848 6.846569
v -10.630648 0.007439 5.554701
v -6.203817 0.036526 6.296288
v -5.904491 0.030532 9.329406
v -7.245617 0.026013 9.417253
v -7.536231 0.036236 6.472378
v -7.536231 0.036236 6.472378
v -7.245617 0.026013 9.417253
v -8.754383 0.010507 9.516080
v -9.035197 0.024256 6.670479
v -9.035197 0.024256 6.670479
v -8.754383 0.010507 9.516080
v -10.095509 -0.010936 9.603927
v -10.367612 0.004848 6.846569
v -5.904491 0.030532 9.329406
v -5.900000 0.020624 10.933333
v -7.244000 0.013969 10.933333
v -7.245617 0.026013 9.417253
v -7.245617 0.026013 9.417253
v -7.244000 0.013969 10.933333
v -8.756000 -0.002776 10.933333
v -8.754383 0.010507 9.516080
v -8.754383 0.010507 9.516080
v -8.756000 -0.002776 10.933333
v -10.100000 -0.024304 10.933333
v -10.095509 -0.010936 9.603927
v -5.900000 0.020624 10.933333
v -5.900000 0.006792 12.400000
v -7.244000 -0.002191 12.400000
v -7.244000 0.013969 10.933333
v -7.244000 0.013969 10.933333
v -7.244000 -0.002191 12.400000
v -8.756000 -0.020632 12.400000
v -8.756000 -0.002776 10.933333
v -8.756000 -0.002776 10.933333
v -8.756000 -0.020632 12.400000
v -10.100000 -0.042716 12.400000
v -10.100000 -0.024304 10.933333
v -5.900000 0.006792 12.400000
v -5.900000 -0.011924 13.866667
v -7.244000 -0.022930 13.866667
v -7.244000 -0.002191 12.400000
v -7.244000 -0.002191 12.400000
v -7.244000 -0.022930 13.866667
v -8.756000 -0.042641 13.866667
v -8.756000 -0.020632 12.400000
v -8.756000 -0.020632 12.400000
v -8.756000 -0.042641 13.866667
v -10.100000 -0.064817 13.866667
v -10.100000 -0.042716 12.400000
v -5.900000 -0.011924 13.866667
v -5.900000 -0.035432 15.333333
v -7.244000 -0.048001 15.333333
v -7.244000 -0.022930 13.866667
v -7.244000 -0.022930 13.866667
v -7.244000 -0.048001 15.333333
v -8.756000 -0.068392 15.333333
v -8.756000 -0.042641 13.866667
v -8.756000 -0.042641 13.866667
v -8.756000 -0.068392 15.333333
v -10.100000 -0.090064 15.333333
v -10.100000 -0.064817 13.866667
v -5.900000 -0.035432 15.333333
v -5.900000 -0.063181 16.800000
v -7.244000 -0.076734 16.800000
v -7.244000 -0.048001 15.333333
v -7.244000 -0.048001 15.333333
v -7.244000 -0.076734 16.800000
v -8.756000 -0.097092 16.800000
v -8.756000 -0.068392 15.333333
v -8.756000 -0.068392 15.333333
v -8.756000 -0.097092 16.800000
v -10.100000 -0.117569 16.800000
v -10.100000 -0.090064 15.333333
v -5.900000 -0.063181 16.800000
v -5.900000 -0.094180 18.266667
v -7.244000 -0.108063 18.266667
v -7.244000 -0.076734 16.800000
v -7.244000 -0.076734 16.800000
v -7.244000 -0.108063 18.266667
v -8.756000 -0.127602 18.266667
v -8.756000 -0.097092 16.800000
v -8.756000 -0.097092 16.800000
v -8.756000 -0.127602 18.266667
v -10.100000 -0.146148 18.266667
v -10.100000 -0.117569 16.800000
v -5.900000 -0.094180 18.266667
v -5.900000 -0.127068 19.733333
v -7.244000 -0.140598 19.733333
v -7.244000 -0.108063 18.266667
v -7.244000 -0.108063 18.266667
v -7.244000 -0.140598 19.733333
v -8.756000 -0.158516 19.733333
v -8.756000 -0.127602 18.266667
v -8.756000 -0.127602 18.266667
v -8.756000 -0.158516 19.733333
v -10.100000 -0.174392 19.733333
v -10.100000 -0.146148 18.266667
v -5.900000 -0.127068 19.733333
v -5.900000 -0.160226 21.200000
v -7.244000 -0.172737 21.200000
v -7.244000 -0.140598 19.733333
v -7.244000 -0.140598 19.733333
v -7.244000 -0.172737 21.200000
v -8.756000 -0.188264 21.200000
v -8.756000 -0.158516 19.733333
v -8.756000 -0.158516 19.733333
v -8.756000 -0.188264 21.200000
v -10.100000 -0.200782 21.200000
v -10.100000 -0.174392 19.733333
v -5.900000 -0.160226 21.200000
v -5.900000 -0.191907 22.666667
v -7.244000 -0.202791 22.666667
v -7.244000 -0.172737 21.200000
v -7.244000 -0.172737 21.200000
v -7.244000 -0.202791 22.666667
v -8.756000 -0.215242 22.666667
v -8.756000 -0.188264 21.200000
v -8.756000 -0.188264 21.200000
v -8.756000 -0.215242 22.666667
v -10.100000 -0.223805 22.666667
v -10.100000 -0.200782 21.200000
v -5.900000 -0.191907 22.666667
v -5.900000 -0.220379 24.133333
v -7.244000 -0.229127 24.133333
v -7.244000 -0.202791 22.666667
v -7.244000 -0.202791 22.666667
v -7.244000 -0.229127 24.133333
v -8.756000 -0.237937 24.133333
v -8.756000 -0.215242 22.666667
v -8.756000 -0.215242 22.666667
v -8.756000 -0.237937 24.133333
v -10.100000 -0.242073 24.133333
v -10.100000 -0.223805 22.666667
v -5.900000 -0.220379 24.133333
v -5.900000 -0.244068 25.600000
v -7.244000 -0.250289 25.600000
v -7.244000 -0.229127 24.133333
v -7.244000 -0.229127 24.133333
v -7.244000 -0.250289 25.600000
v -8.756000 -0.255049 25.600000
v -8.756000 -0.237937 24.133333
v -8.756000 -0.237937 24.133333
v -8.756000 -0.255049 25.600000
v -10.100000 -0.254441 25.600000
v -10.100000 -0.242073 24.133333
v -5.900000 -0.244068 25.600000
v -5.900000 -0.261671 27.066667
v -7.244000 -0.265115 27.066667
v -7.244000 -0.250289 25.600000
v -7.244000 -0.250289 25.600000
v -7.244000 -0.265115 27.066667
v -8.756000 -0.265589 27.066667
v -8.756000 -0.255049 25.600000
v -8.756000 -0.255049 25.600000
v -8.756000 -0.265589 27.066667
v -10.100000 -0.260087 27.066667
v -10.100000 -0.254441 25.600000
v -5.900000 -0.261671 27.066667
v -5.900000 -0.272251 28.533333
v -7.244000 -0.272817 28.533333
v -7.244000 -0.265115 27.066667
v -7.244000 -0.265115 27.066667
v -7.244000 -0.272817 28.533333
v -8.756000 -0.268949 28.533333
v -8.756000 -0.265589 27.066667
v -8.756000 -0.265589 27.066667
v -8.756000 -0.268949 28.533333
v -10.100000 -0.258580 28.533333
v -10.100000 -0.260087 27.066667
v -5.900000 -0.272251 28.533333
v -5.900000 -0.275295 30.000000
v -7.244000 -0.273028 30.000000
v -7.244000 -0.272817 28.533333
v -7.244000 -0.272817 28.533333
v -7.244000 -0.273028 30.000000
v -8.756000 -0.264944 30.000000
v -8.756000 -0.268949 28.533333
v -8.756000 -0.268949 28.533333
v -8.756000 -0.264944 30.000000
v -10.100000 -0.249904 30.000000
v -10.100000 -0.258580 28.533333
v -7.820893 0.028977 2.208933
v -6.392322 0.035289 2.351790
v -6.506950 0.043679 3.498073
v -7.935522 0.036908 3.355216
v -7.935522 0.036908 3.355216
v -6.506950 0.043679 3.498073
v -6.635907 0.043375 4.787641
v -8.064478 0.035680 4.644784
v -8.064478 0.035680 4.644784
v -6.635907 0.043375 4.787641
v -6.750535 0.034058 5.933924
v -8.179107 0.025259 5.791067
v -6.392322 0.035289 2.351790
v -4.963750 0.037899 2.494647
v -5.078379 0.047062 3.640930
v -6.506950 0.043679 3.498073
v -6.506950 0.043679 3.498073
v -5.078379 0.047062 3.640930
v -5.207336 0.048112 4.930498
v -6.635907 0.043375 4.787641
v -6.635907 0.043375 4.787641
v -5.207336 0.048112 4.930498
v -5.321964 0.040344 6.076781
v -6.750535 0.034058 5.933924
v -4.963750 0.037899 2.494647
v -3.535179 0.036958 2.637504
v -3.649807 0.047124 3.783787
v -5.078379 0.047062 3.640930
v -5.078379 0.047062 3.640930
v -3.649807 0.047124 3.783787
v -3.778764 0.049832 5.073356
v -5.207336 0.048112 4.930498
v -5.207336 0.048112 4.930498
v -3.778764 0.049832 5.073356
v -3.893392 0.043925 6.219638
v -5.321964 0.040344 6.076781
v -3.535179 0.036958 2.637504
v -2.106608 0.033425 2.780362
v -2.221236 0.044700 3.926644
v -3.649807 0.047124 3.783787
v -3.649807 0.047124 3.783787
v -2.221236 0.044700 3.926644
v -2.350193 0.049200 5.216213
v -3.778764 0.049832 5.073356
v -3.778764 0.049832 5.073356
v -2.350193 0.049200 5.216213
v -2.464821 0.045286 6.362496
v -3.893392 0.043925 6.219638
v -2.106608 0.033425 2.780362
v -0.678036 0.028843 2.923219
v -0.792664 0.041179 4.069502
v -2.221236 0.044700 3.926644
v -2.221236 0.044700 3.926644
v -0.792664 0.041179 4.069502
v -0.921621 0.047390 5.359070
v -2.350193 0.049200 5.216213
v -2.350193 0.049200 5.216213
v -0.921621 0.047390 5.359070
v -1.036250 0.045384 6.505353
v -2.464821 0.045286 6.362496
v -0.678036 0.028843 2.923219
v 0.909643 0.024745 3.089203
v 0.693186 0.038115 4.220685
v -0.792664 0.041179 4.069502
v -0.792664 0.041179 4.069502
v 0.693186 0.038115 4.220685
v 0.449671 0.045817 5.493601
v -0.921621 0.047390 5.359070
v -0.921621 0.047390 5.359070
v 0.449671 0.045817 5.493601
v 0.233214 0.045289 6.625083
v -1.036250 0.045384 6.505353
v 0.909643 0.024745 3.089203
v 3.752793 0.028134 3.771648
v 3.431006 0.041511 4.877793
v 0.693186 0.038115 4.220685
v 0.693186 0.038115 4.220685
v 3.431006 0.041511 4.877793
v 3.068994 0.049819 6.122207
v 0.449671 0.045817 5.493601
v 0.449671 0.045817 5.493601
v 3.068994 0.049819 6.122207
v 2.747207 0.050236 7.228352
v 0.233214 0.045289 6.625083
v 3.752793 0.028134 3.771648
v 5.168503 0.036223 4.328742
v 4.740661 0.048270 5.398347
v 3.431006 0.041511 4.877793
v 3.431006 0.041511 4.877793
v 4.740661 0.048270 5.398347
v 4.259339 0.055391 6.601653
v 3.068994 0.049819 6.122207
v 3.068994 0.049819 6.122207
v 4.259339 0.055391 6.601653
v 3.831497 0.054979 7.671258
v 2.747207 0.050236 7.228352
v 5.168503 0.036223 4.328742
v 6.418503 0.044791 4.828742
v 5.990661 0.055478 5.898347
v 4.740661 0.048270 5.398347
v 4.740661 0.048270 5.398347
v 5.990661 0.055478 5.898347
v 5.509339 0.061226 7.101653
v 4.259339 0.055391 6.601653
v 4.259339 0.055391 6.601653
v 5.509339 0.061226 7.101653
v 5.081497 0.059765 8.171258
v 3.831497 0.054979 7.671258
v 6.418503 0.044791 4.828742
v 7.668503 0.052061 5.328742
v 7.240661 0.060870 6.398347
v 5.990661 0.055478 5.898347
v 5.990661 0.055478 5.898347
v 7.240661 0.060870 6.398347
v 6.759339 0.064629 7.601653
v 5.509339 0.061226 7.101653
v 5.509339 0.061226 7.101653
v 6.759339 0.064629 7.601653
v 6.331497 0.061567 8.671258
v 5.081497 0.059765 8.171258
v 7.668503 0.052061 5.328742
v 8.918503 0.054576 5.828742
v 8.490661 0.061028 6.898347
v 7.240661 0.060870 6.398347
v 7.240661 0.060870 6.398347
v 8.490661 0.061028 6.898347
v 8.009339 0.062254 8.101653
v 6.759339 0.064629 7.601653
v 6.759339 0.064629 7.601653
v 8.009339 0.062254 8.101653
v 7.581497 0.057133 9.171258
v 6.331497 0.061567 8.671258
v 8.918503 0.054576 5.828742
v 10.168503 0.048127 6.328742
v 9.740661 0.051793 7.398347
v 8.490661 0.061028 6.898347
v 8.490661 0.061028 6.898347
v 9.740661 0.051793 7.398347
v 9.259339 0.050046 8.601653
v 8.009339 0.062254 8.101653
v 8.009339 0.062254 8.101653
v 9.259339 0.050046 8.601653
v 8.831497 0.042525 9.671258
v 7.581497 0.057133 9.171258
v 10.168503 0.048127 6.328742
v 11.426830 0.027825 6.832097
v 10.993659 0.028453 7.899555
v 9.740661 0.051793 7.398347
v 9.740661 0.051793 7.398347
v 10.993659 0.028453 7.899555
v 10.506341 0.023567 9.100445
v 9.259339 0.050046 8.601653
v 9.259339 0.050046 8.601653
v 10.506341 0.023567 9.100445
v 10.073170 0.013618 10.167903
v 8.831497 0.042525 9.671258
v 11.426830 0.027825 6.832097
v 14.018089 -0.079157 7.890891
v 13.579845 -0.085397 8.956276
v 10.993659 0.028453 7.899555
v 10.993659 0.028453 7.899555
v 13.579845 -0.085397 8.956276
v 13.086821 -0.096968 10.154835
v 10.506341 0.023567 9.100445
v 10.506341 0.023567 9.100445
v 13.086821 -0.096968 10.154835
v 12.648578 -0.111673 11.220221
v 10.073170 0.013618 10.167903
v 14.018089 -0.079157 7.890891
v 15.358974 -0.179425 8.449573
v 14.915897 -0.189112 9.512957
v 13.579845 -0.085397 8.956276
v 13.579845 -0.085397 8.956276
v 14.915897 -0.189112 9.512957
v 14.417436 -0.203627 10.709265
v 13.086821 -0.096968 10.154835
v 13.086821 -0.096968 10.154835
v 14.417436 -0.203627 10.709265
v 13.974359 -0.219994 11.772650
v 12.648578 -0.111673 11.220221
v 15.358974 -0.179425 8.449573
v 16.692308 -0.314456 9.005128
v 16.249231 -0.327996 10.068513
v 14.915897 -0.189112 9.512957
v 14.915897 -0.189112 9.512957
v 16.249231 -0.327996 10.068513
v 15.750769 -0.345619 11.264821
v 14.417436 -0.203627 10.709265
v 14.417436 -0.203627 10.709265
v 15.750769 -0.345619 11.264821
v 15.307692 -0.363526 12.328205
v 13.974359 -0.219994 11.772650
v 16.692308 -0.314456 9.005128
v 18.025641 -0.486408 9.560684
v 17.582564 -0.503887 10.624068
v 16.249231 -0.327996 10.068513
v 16.249231 -0.327996 10.068513
v 17.582564 -0.503887 10.624068
v 17.084103 -0.524360 11.820376
v 15.750769 -0.345619 11.264821
v 15.750769 -0.345619 11.264821
v 17.084103 -0.524360 11.820376
v 16.641026 -0.543270 12.883761
v 15.307692 -0.363526 12.328205
v 18.025641 -0.486408 9.560684
v 19.358974 -0.694806 10.116239
v 18.915897 -0.716294 11.179624
v 17.582564 -0.503887 10.624068
v 17.582564 -0.503887 10.624068
v 18.915897 -0.716294 11.179624
v 18.417436 -0.739332 12.375932
v 17.084103 -0.524360 11.820376
v 17.084103 -0.524360 11.820376
v 18.417436 -0.739332 12.375932
v 17.974359 -0.758684 13.439316
v 16.641026 -0.543270 12.883761
v 19.358974 -0.694806 10.116239
v 20.692308 -0.936823 10.671795
v 20.249231 -0.962378 11.735179
v 18.915897 -0.716294 11.179624
v 18.915897 -0.716294 11.179624
v 20.249231 -0.962378 11.735179
v 19.750769 -0.987701 12.931487
v 18.417436 -0.739332 12.375932
v 18.417436 -0.739332 12.375932
v 19.750769 -0.987701 12.931487
v 19.307692 -1.006952 13.994872
v 17.974359 -0.758684 13.439316
v 20.692308 -0.936823 10.671795
v 22.025641 -1.207257 11.227350
v 21.582564 -1.236925 12.290735
v 20.249231 -0.962378 11.735179
v 20.249231 -0.962378 11.735179
v 21.582564 -1.236925 12.290735
v 21.084103 -1.257000 13.487043
v 19.750769 -0.987701 12.931487
v 19.750769 -0.987701 12.931487
v 21.084103 -1.257000 13.487043
v 20.641026 -1.265000 14.550427
v 19.307692 -1.006952 13.994872
v 22.025641 -1.207257 11.227350
v 23.293634 -1.265000 11.757165
v 22.892375 -1.257000 12.837024
v 21.582564 -1.236925 12.290735
v 21.582564 -1.236925 12.290735
v 22.892375 -1.257000 12.837024
v 22.440958 -1.257000 14.051865
v 21.084103 -1.257000 13.487043
v 21.084103 -1.257000 13.487043
v 22.440958 -1.257000 14.051865
v 22.039699 -1.265000 15.131724
v 20.641026 -1.265000 14.550427
v 23.293634 -1.265000 11.757165
v 25.960927 -1.265000 12.689631
v 25.601934 -1.257000 13.784267
v 22.892375 -1.257000 12.837024
v 22.892375 -1.257000 12.837024
v 25.601934 -1.257000 13.784267
v 25.198066 -1.257000 15.015733
v 22.440958 -1.257000 14.051865
v 22.440958 -1.257000 14.051865
v 25.198066 -1.257000 15.015733
v 24.839073 -1.265000 16.110369
v 22.039699 -1.265000 15.131724
v 25.960927 -1.265000 12.689631
v 27.294498 -1.265000 13.069257
v 26.978019 -1.257000 14.176932
v 25.601934 -1.257000 13.784267
v 25.601934 -1.257000 13.784267
v 26.978019 -1.257000 14.176932
v 26.621981 -1.257000 15.423068
v 25.198066 -1.257000 15.015733
v 25.198066 -1.257000 15.015733
v 26.621981 -1.257000 15.423068
v 26.305502 -1.265000 16.530743
v 24.839073 -1.265000 16.110369
v 27.294498 -1.265000 13.069257
v 28.694498 -1.265000 13.469257
v 28.378019 -1.257000 14.576932
v 26.978019 -1.257000 14.176932
v 26.978019 -1.257000 14.176932
v 28.378019 -1.257000 14.576932
v 28.021981 -1.257000 15.823068
v 26.621981 -1.257000 15.423068
v 26.621981 -1.257000 15.423068
v 28.021981 -1.257000 15.823068
v 27.705502 -1.265000 16.930743
v 26.305502 -1.265000 16.530743
v 28.694498 -1.265000 13.469257
v 30.094498 -1.265000 13.869257
v 29.778019 -1.257000 14.976932
v 28.378019 -1.257000 14.576932
v 28.378019 -1.257000 14.576932
v 29.778019 -1.257000 14.976932
v 29.421981 -1.257000 16.223068
v 28.021981 -1.257000 15.823068
v 28.021981 -1.257000 15.823068
v 29.421981 -1.257000 16.223068
v 29.105502 -1.265000 17.330743
v 27.705502 -1.265000 16.930743
v 30.094498 -1.265000 13.869257
v 31.494498 -1.265000 14.269257
v 31.178019 -1.257000 15.376932
v 29.778019 -1.257000 14.976932
v 29.778019 -1.257000 14.976932
v 31.178019 -1.257000 15.376932
v 30.821981 -1.257000 16.623068
v 29.421981 -1.257000 16.223068
v 29.421981 -1.257000 16.223068
v 30.821981 -1.257000 16.623068
v 30.505502 -1.265000 17.730743
v 29.105502 -1.265000 17.330743
v -7.152002 -0.122984 18.643203
v -6.009145 -0.120442 19.357488
v -6.551863 -0.141124 20.225839
v -7.694721 -0.141895 19.511553
v -7.694721 -0.141895 19.511553
v -6.551863 -0.141124 20.225839
v -7.162422 -0.171705 21.202733
v -8.305279 -0.170023 20.488447
v -8.305279 -0.170023 20.488447
v -7.162422 -0.171705 21.202733
v -7.705141 -0.204218 22.071083
v -8.847998 -0.199903 21.356797
v -6.009145 -0.120442 19.357488
v -4.866287 -0.115964 20.071774
v -5.409006 -0.137759 20.940124
v -6.551863 -0.141124 20.225839
v -6.551863 -0.141124 20.225839
v -5.409006 -0.137759 20.940124
v -6.019565 -0.169981 21.917018
v -7.162422 -0.171705 21.202733
v -7.162422 -0.171705 21.202733
v -6.019565 -0.169981 21.917018
v -6.562284 -0.204350 22.785369
v -7.705141 -0.204218 22.071083
v -4.866287 -0.115964 20.071774
v -3.723430 -0.110071 20.786060
v -4.266149 -0.132313 21.654410
v -5.409006 -0.137759 20.940124
v -5.409006 -0.137759 20.940124
v -4.266149 -0.132313 21.654410
v -4.876708 -0.165354 22.631304
v -6.019565 -0.169981 21.917018
v -6.019565 -0.169981 21.917018
v -4.876708 -0.165354 22.631304
v -5.419427 -0.200795 23.499654
v -6.562284 -0.204350 22.785369
v -3.723430 -0.110071 20.786060
v -2.580573 -0.103385 21.500346
v -3.123292 -0.125379 22.368696
v -4.266149 -0.132313 21.654410
v -4.266149 -0.132313 21.654410
v -3.123292 -0.125379 22.368696
v -3.733851 -0.158397 23.345590
v -4.876708 -0.165354 22.631304
v -4.876708 -0.165354 22.631304
v -3.733851 -0.158397 23.345590
v -4.276570 -0.194114 24.213940
v -5.419427 -0.200795 23.499654
v -2.580573 -0.103385 21.500346
v -1.437716 -0.096641 22.214631
v -1.980435 -0.117648 23.082982
v -3.123292 -0.125379 22.368696
v -3.123292 -0.125379 22.368696
v -1.980435 -0.117648 23.082982
v -2.590994 -0.149762 24.059876
v -3.733851 -0.158397 23.345590
v -3.733851 -0.158397 23.345590
v -2.590994 -0.149762 24.059876
v -3.133713 -0.184934 24.928226
v -4.276570 -0.194114 24.213940
v -1.437716 -0.096641 22.214631
v -0.341199 -0.090923 22.901032
v -0.854260 -0.110022 23.787229
v -1.980435 -0.117648 23.082982
v -1.980435 -0.117648 23.082982
v -0.854260 -0.110022 23.787229
v -1.431454 -0.140029 24.784200
v -2.590994 -0.149762 24.059876
v -2.590994 -0.149762 24.059876
v -1.431454 -0.140029 24.784200
v -1.944515 -0.173463 25.670396
v -3.133713 -0.184934 24.928226
v -0.341199 -0.090923 22.901032
v 2.090842 -0.082199 24.257348
v 1.606037 -0.094774 25.159312
v -0.854260 -0.110022 23.787229
v -0.854260 -0.110022 23.787229
v 1.606037 -0.094774 25.159312
v 1.060630 -0.117537 26.174022
v -1.431454 -0.140029 24.784200
v -1.431454 -0.140029 24.784200
v 1.060630 -0.117537 26.174022
v 0.575824 -0.144804 27.075986
v -1.944515 -0.173463 25.670396
v 2.090842 -0.082199 24.257348
v 3.382208 -0.083461 24.902250
v 2.924262 -0.091120 25.818143
v 1.606037 -0.094774 25.159312
v 1.606037 -0.094774 25.159312
v 2.924262 -0.091120 25.818143
v 2.409072 -0.108242 26.848523
v 1.060630 -0.117537 26.174022
v 1.060630 -0.117537 26.174022
v 2.409072 -0.108242 26.848523
v 1.951125 -0.130502 27.764417
v 0.575824 -0.144804 27.075986
v 3.382208 -0.083461 24.902250
v 4.715542 -0.092459 25.568916
v 4.257595 -0.093883 26.484810
v 2.924262 -0.091120 25.818143
v 2.924262 -0.091120 25.818143
v 4.257595 -0.093883 26.484810
v 3.742405 -0.104120 27.515190
v 2.409072 -0.108242 26.848523
v 2.409072 -0.108242 26.848523
v 3.742405 -0.104120 27.515190
v 3.284458 -0.120468 28.431084
v 1.951125 -0.130502 27.764417
v 4.715542 -0.092459 25.568916
v 6.048875 -0.110907 26.235583
v 5.590928 -0.104710 27.151477
v 4.257595 -0.093883 26.484810
v 4.257595 -0.093883 26.484810
v 5.590928 -0.104710 27.151477
v 5.075738 -0.106557 28.181857
v 3.742405 -0.104120 27.515190
v 3.742405 -0.104120 27.515190
v 5.075738 -0.106557 28.181857
v 4.617792 -0.115705 29.097750
v 3.284458 -0.120468 28.431084
v 6.048875 -0.110907 26.235583
v 7.382208 -0.140160 26.902250
v 6.924262 -0.124911 27.818143
v 5.590928 -0.104710 27.151477
v 5.590928 -0.104710 27.151477
v 6.924262 -0.124911 27.818143
v 6.409072 -0.116836 28.848523
v 5.075738 -0.106557 28.181857
v 5.075738 -0.106557 28.181857
v 6.409072 -0.116836 28.848523
v 5.951125 -0.117489 29.764417
v 4.617792 -0.115705 29.097750
v 7.382208 -0.140160 26.902250
v 8.715542 -0.181116 27.568916
v 8.257595 -0.155394 28.484810
v 6.924262 -0.124911 27.818143
v 6.924262 -0.124911 27.818143
v 8.257595 -0.155394 28.484810
v 7.742405 -0.135896 29.515190
v 6.409072 -0.116836 28.848523
v 6.409072 -0.116836 28.848523
v 7.742405 -0.135896 29.515190
v 7.284458 -0.126799 30.431084
v 5.951125 -0.117489 29.764417
vt 0.000000 0.000000
vt 0.000000 0.500000
vt 0.333333 0.500000
vt 0.333333 0.000000
vt 0.333333 0.000000
vt 0.333333 0.500000
vt 0.666667 0.500000
vt 0.666667 0.000000
vt 0.666667 0.000000
vt 0.666667 0.500000
vt 1.000000 0.500000
vt 1.000000 0.000000
vt 0.000000 0.500000
vt 0.000000 1.000000
vt 0.333333 1.000000
vt 0.333333 0.500000
vt 0.333333 0.500000
vt 0.333333 1.000000
vt 0.666667 1.000000
vt 0.666667 0.500000
vt 0.666667 0.500000
vt 0.666667 1.000000
vt 1.000000 1.000000
vt 1.000000 0.500000
vt 0.000000 1.000000
vt 0.000000 1.500000
vt 0.333333 1.500000
vt 0.333333 1.000000
vt 0.333333 1.000000
vt 0.333333 1.500000
vt 0.666667 1.500000
vt 0.666667 1.000000
vt 0.666667 1.000000
vt 0.666667 1.500000
vt 1.000000 1.500000
vt 1.000000 1.000000
vt 0.000000 1.500000
vt 0.000000 2.000000
vt 0.333333 2.000000
vt 0.333333 1.500000
vt 0.333333 1.500000
vt 0.333333 2.000000
vt 0.666667 2.000000
vt 0.666667 1.500000
vt 0.666667 1.500000
vt 0.666667 2.000000
vt 1.000000 2.000000
vt 1.000000 1.500000
vt 0.000000 2.000000
vt 0.000000 2.500000
vt 0.333333 2.500000
vt 0.333333 2.000000
vt 0.333333 2.000000
vt 0.333333 2.500000
vt 0.666667 2.500000
vt 0.666667 2.000000
vt 0.666667 2.000000
vt 0.666667 2.500000
vt 1.000000 2.500000
vt 1.000000 2.000000
vt 0.000000 2.500000
vt 0.000000 3.000000
vt 0.333333 3.000000
vt 0.333333 2.500000
vt 0.333333 2.500000
vt 0.333333 3.000000
vt 0.666667 3.000000
vt 0.666667 2.500000
vt 0.666667 2.500000
vt 0.666667 3.000000
vt 1.000000 3.000000
vt 1.000000 2.500000
vt 0.000000 3.000000
vt 0.000000 3.500000
vt 0.333333 3.500000
vt 0.333333 3.000000
vt 0.333333 3.000000
vt 0.333333 3.500000
vt 0.666667 3.500000
vt 0.666667 3.000000
vt 0.666667 3.000000
vt 0.666667 3.500000
vt 1.000000 3.500000
vt 1.000000 3.000000
vt 0.000000 3.500000
vt 0.000000 4.000000
vt 0.333333 4.000000
vt 0.333333 3.500000
vt 0.333333 3.500000
vt 0.333333 4.000000
vt 0.666667 4.000000
vt 0.666667 3.500000
vt 0.666667 3.500000
vt 0.666667 4.000000
vt 1.000000 4.000000
vt 1.000000 3.500000
vt 0.000000 4.000000
vt 0.000000 4.500000
vt 0.333333 4.500000
vt 0.333333 4.000000
vt 0.333333 4.000000
vt 0.333333 4.500000
vt 0.666667 4.500000
vt 0.666667 4.000000
vt 0.666667 4.000000
vt 0.666667 4.500000
vt 1.000000 4.500000
vt 1.000000 4.000000
vt 0.000000 4.500000
vt 0.000000 5.000000
vt 0.333333 5.000000
vt 0.333333 4.500000
vt 0.333333 4.500000
vt 0.333333 5.000000
vt 0.666667 5.000000
vt 0.666667 4.500000
vt 0.666667 4.500000
vt 0.666667 5.000000
vt 1.000000 5.000000
vt 1.000000 4.500000
vt 0.000000 5.000000
vt 0.000000 5.500000
vt 0.333333 5.500000
vt 0.333333 5.000000
vt 0.333333 5.000000
vt 0.333333 5.500000
vt 0.666667 5.500000
vt 0.666667 5.000000
vt 0.666667 5.000000
vt 0.666667 5.500000
vt 1.000000 5.500000
vt 1.000000 5.000000
vt 0.000000 5.500000
vt 0.000000 6.000000
vt 0.333333 6.000000
vt 0.333333 5.500000
vt 0.333333 5.500000
vt 0.333333 6.000000
vt 0.666667 6.000000
vt 0.666667 5.500000
vt 0.666667 5.500000
vt 0.666667 6.000000
vt 1.000000 6.000000
vt 1.000000 5.500000
vt 0.000000 6.000000
vt 0.000000 6.500000
vt 0.333333 6.500000
vt 0.333333 6.000000
vt 0.333333 6.000000
vt 0.333333 6.500000
vt 0.666667 6.500000
vt 0.666667 6.000000
vt 0.666667 6.000000
vt 0.666667 6.500000
vt 1.000000 6.500000
vt 1.000000 6.000000
vt 0.000000 6.500000
vt 0.000000 7.000000
vt 0.333333 7.000000
vt 0.333333 6.500000
vt 0.333333 6.500000
vt 0.333333 7.000000
vt 0.666667 7.000000
vt 0.666667 6.500000
vt 0.666667 6.500000
vt 0.666667 7.000000
vt 1.000000 7.000000
vt 1.000000 6.500000
vt 0.000000 7.000000
vt 0.000000 7.500000
vt 0.333333 7.500000
vt 0.333333 7.000000
vt 0.333333 7.000000
vt 0.333333 7.500000
vt 0.666667 7.500000
vt 0.666667 7.000000
vt 0.666667 7.000000
vt 0.666667 7.500000
vt 1.000000 7.500000
vt 1.000000 7.000000
vt 0.000000 7.500000
vt 0.000000 8.000000
vt 0.333333 8.000000
vt 0.333333 7.500000
vt 0.333333 7.500000
vt 0.333333 8.000000
vt 0.666667 8.000000
vt 0.666667 7.500000
vt 0.666667 7.500000
vt 0.666667 8.000000
vt 1.000000 8.000000
vt 1.000000 7.500000
vt 0.000000 8.000000
vt 0.000000 8.500000
vt 0.333333 8.500000
vt 0.333333 8.000000
vt 0.333333 8.000000
vt 0.333333 8.500000
vt 0.666667 8.500000
vt 0.666667 8.000000
vt 0.666667 8.000000
vt 0.666667 8.500000
vt 1.000000 8.500000
vt 1.000000 8.000000
vt 0.000000 8.500000
vt 0.000000 9.000000
vt 0.333333 9.000000
vt 0.333333 8.500000
vt 0.333333 8.500000
vt 0.333333 9.000000
vt 0.666667 9.000000
vt 0.666667 8.500000
vt 0.666667 8.500000
vt 0.666667 9.000000
vt 1.000000 9.000000
vt 1.000000 8.500000
vt 0.000000 9.000000
vt 0.000000 9.500000
vt 0.333333 9.500000
vt 0.333333 9.000000
vt 0.333333 9.000000
vt 0.333333 9.500000
vt 0.666667 9.500000
vt 0.666667 9.000000
vt 0.666667 9.000000
vt 0.666667 9.500000
vt 1.000000 9.500000
vt 1.000000 9.000000
vt 0.000000 9.500000
vt 0.000000 10.000000
vt 0.333333 10.000000
vt 0.333333 9.500000
vt 0.333333 9.500000
vt 0.333333 10.000000
vt 0.666667 10.000000
vt 0.666667 9.500000
vt 0.666667 9.500000
vt 0.666667 10.000000
vt 1.000000 10.000000
vt 1.000000 9.500000
vt 0.000000 10.000000
vt 0.000000 10.500000
vt 0.333333 10.500000
vt 0.333333 10.000000
vt 0.333333 10.000000
vt 0.333333 10.500000
vt 0.666667 10.500000
vt 0.666667 10.000000
vt 0.666667 10.000000
vt 0.666667 10.500000
vt 1.000000 10.500000
vt 1.000000 10.000000
vt 0.000000 10.500000
vt 0.000000 11.000000
vt 0.333333 11.000000
vt 0.333333 10.500000
vt 0.333333 10.500000
vt 0.333333 11.000000
vt 0.666667 11.000000
vt 0.666667 10.500000
vt 0.666667 10.500000
vt 0.666667 11.000000
vt 1.000000 11.000000
vt 1.000000 10.500000
vt 0.000000 11.000000
vt 0.000000 11.500000
vt 0.333333 11.500000
vt 0.333333 11.000000
vt 0.333333 11.000000
vt 0.333333 11.500000
vt 0.666667 11.500000
vt 0.666667 11.000000
vt 0.666667 11.000000
vt 0.666667 11.500000
vt 1.000000 11.500000
vt 1.000000 11.000000
vt 0.000000 11.500000
vt 0.000000 12.000000
vt 0.333333 12.000000
vt 0.333333 11.500000
vt 0.333333 11.500000
vt 0.333333 12.000000
vt 0.666667 12.000000
vt 0.666667 11.500000
vt 0.666667 11.500000
vt 0.666667 12.000000
vt 1.000000 12.000000
vt 1.000000 11.500000
vt 0.000000 12.000000
vt 0.000000 12.500000
vt 0.333333 12.500000
vt 0.333333 12.000000
vt 0.333333 12.000000
vt 0.333333 12.500000
vt 0.666667 12.500000
vt 0.666667 12.000000
vt 0.666667 12.000000
vt 0.666667 12.500000
vt 1.000000 12.500000
vt 1.000000 12.000000
vt 0.000000 12.500000
vt 0.000000 13.000000
vt 0.333333 13.000000
vt 0.333333 12.500000
vt 0.333333 12.500000
vt 0.333333 13.000000
vt 0.666667 13.000000
vt 0.666667 12.500000
vt 0.666667 12.500000
vt 0.666667 13.000000
vt 1.000000 13.000000
vt 1.000000 12.500000
vt 0.000000 13.000000
vt 0.000000 13.500000
vt 0.333333 13.500000
vt 0.333333 13.000000
vt 0.333333 13.000000
vt 0.333333 13.500000
vt 0.666667 13.500000
vt 0.666667 13.000000
vt 0.666667 13.000000
vt 0.666667 13.500000
vt 1.000000 13.500000
vt 1.000000 13.000000
vt 0.000000 13.500000
vt 0.000000 14.000000
vt 0.333333 14.000000
vt 0.333333 13.500000
vt 0.333333 13.500000
vt 0.333333 14.000000
vt 0.666667 14.000000
vt 0.666667 13.500000
vt 0.666667 13.500000
vt 0.666667 14.000000
vt 1.000000 14.000000
vt 1.000000 13.500000
vt 0.000000 14.000000
vt 0.000000 14.500000
vt 0.333333 14.500000
vt 0.333333 14.000000
vt 0.333333 14.000000
vt 0.333333 14.500000
vt 0.666667 14.500000
vt 0.666667 14.000000
vt 0.666667 14.000000
vt 0.666667 14.500000
vt 1.000000 14.500000
vt 1.000000 14.000000
vt 0.000000 14.500000
vt 0.000000 15.000000
vt 0.333333 15.000000
vt 0.333333 14.500000
vt 0.333333 14.500000
vt 0.333333 15.000000
vt 0.666667 15.000000
vt 0.666667 14.500000
vt 0.666667 14.500000
vt 0.666667 15.000000
vt 1.000000 15.000000
vt 1.000000 14.500000
vt 0.000000 15.000000
vt 0.000000 15.500000
vt 0.333333 15.500000
vt 0.333333 15.000000
vt 0.333333 15.000000
vt 0.333333 15.500000
vt 0.666667 15.500000
vt 0.666667 15.000000
vt 0.666667 15.000000
vt 0.666667 15.500000
vt 1.000000 15.500000
vt 1.000000 15.000000
vt 0.000000 15.500000
vt 0.000000 16.000000
vt 0.333333 16.000000
vt 0.333333 15.500000
vt 0.333333 15.500000
vt 0.333333 16.000000
vt 0.666667 16.000000
vt 0.666667 15.500000
vt 0.666667 15.500000
vt 0.666667 16.000000
vt 1.000000 16.000000
vt 1.000000 15.500000
vt 0.000000 16.000000
vt 0.000000 16.500000
vt 0.333333 16.500000
vt 0.333333 16.000000
vt 0.333333 16.000000
vt 0.333333 16.500000
vt 0.666667 16.500000
vt 0.666667 16.000000
vt 0.666667 16.000000
vt 0.666667 16.500000
vt 1.000000 16.500000
vt 1.000000 16.000000
vt 0.000000 16.500000
vt 0.000000 17.000000
vt 0.333333 17.000000
vt 0.333333 16.500000
vt 0.333333 16.500000
vt 0.333333 17.000000
vt 0.666667 17.000000
vt 0.666667 16.500000
vt 0.666667 16.500000
vt 0.666667 17.000000
vt 1.000000 17.000000
vt 1.000000 16.500000
vt 0.000000 17.000000
vt 0.000000 17.500000
vt 0.333333 17.500000
vt 0.333333 17.000000
vt 0.333333 17.000000
vt 0.333333 17.500000
vt 0.666667 17.500000
vt 0.666667 17.000000
vt 0.666667 17.000000
vt 0.666667 17.500000
vt 1.000000 17.500000
vt 1.000000 17.000000
vt 0.000000 17.500000
vt 0.000000 18.000000
vt 0.333333 18.000000
vt 0.333333 17.500000
vt 0.333333 17.500000
vt 0.333333 18.000000
vt 0.666667 18.000000
vt 0.666667 17.500000
vt 0.666667 17.500000
vt 0.666667 18.000000
vt 1.000000 18.000000
vt 1.000000 17.500000
vt 0.000000 18.000000
vt 0.000000 18.500000
vt 0.333333 18.500000
vt 0.333333 18.000000
vt 0.333333 18.000000
vt 0.333333 18.500000
vt 0.666667 18.500000
vt 0.666667 18.000000
vt 0.666667 18.000000
vt 0.666667 18.500000
vt 1.000000 18.500000
vt 1.000000 18.000000
vt 0.000000 18.500000
vt 0.000000 19.000000
vt 0.333333 19.000000
vt 0.333333 18.500000
vt 0.333333 18.500000
vt 0.333333 19.000000
vt 0.666667 19.000000
vt 0.666667 18.500000
vt 0.666667 18.500000
vt 0.666667 19.000000
vt 1.000000 19.000000
vt 1.000000 18.500000
vt 0.000000 19.000000
vt 0.000000 19.500000
vt 0.333333 19.500000
vt 0.333333 19.000000
vt 0.333333 19.000000
vt 0.333333 19.500000
vt 0.666667 19.500000
vt 0.666667 19.000000
vt 0.666667 19.000000
vt 0.666667 19.500000
vt 1.000000 19.500000
vt 1.000000 19.000000
vt 0.000000 19.500000
vt 0.000000 20.000000
vt 0.333333 20.000000
vt 0.333333 19.500000
vt 0.333333 19.500000
vt 0.333333 20.000000
vt 0.666667 20.000000
vt 0.666667 19.500000
vt 0.666667 19.500000
vt 0.666667 20.000000
vt 1.000000 20.000000
vt 1.000000 19.500000
vt 0.000000 20.000000
vt 0.000000 20.500000
vt 0.333333 20.500000
vt 0.333333 20.000000
vt 0.333333 20.000000
vt 0.333333 20.500000
vt 0.666667 20.500000
vt 0.666667 20.000000
vt 0.666667 20.000000
vt 0.666667 20.500000
vt 1.000000 20.500000
vt 1.000000 20.000000
vt 0.000000 20.500000
vt 0.000000 21.000000
vt 0.333333 21.000000
vt 0.333333 20.500000
vt 0.333333 20.500000
vt 0.333333 21.000000
vt 0.666667 21.000000
vt 0.666667 20.500000
vt 0.666667 20.500000
vt 0.666667 21.000000
vt 1.000000 21.000000
vt 1.000000 20.500000
vt 0.000000 21.000000
vt 0.000000 21.500000
vt 0.333333 21.500000
vt 0.333333 21.000000
vt 0.333333 21.000000
vt 0.333333 21.500000
vt 0.666667 21.500000
vt 0.666667 21.000000
vt 0.666667 21.000000
vt 0.666667 21.500000
vt 1.000000 21.500000
vt 1.000000 21.000000
vt 0.000000 21.500000
vt 0.000000 22.000000
vt 0.333333 22.000000
vt 0.333333 21.500000
vt 0.333333 21.500000
vt 0.333333 22.000000
vt 0.666667 22.000000
vt 0.666667 21.500000
vt 0.666667 21.500000
vt 0.666667 22.000000
vt 1.000000 22.000000
vt 1.000000 21.500000
vt 0.000000 22.000000
vt 0.000000 22.500000
vt 0.333333 22.500000
vt 0.333333 22.000000
vt 0.333333 22.000000
vt 0.333333 22.500000
vt 0.666667 22.500000
vt 0.666667 22.000000
vt 0.666667 22.000000
vt 0.666667 22.500000
vt 1.000000 22.500000
vt 1.000000 22.000000
vt 0.000000 22.500000
vt 0.000000 23.000000
vt 0.333333 23.000000
vt 0.333333 22.500000
vt 0.333333 22.500000
vt 0.333333 23.000000
vt 0.666667 23.000000
vt 0.666667 22.500000
vt 0.666667 22.500000
vt 0.666667 23.000000
vt 1.000000 23.000000
vt 1.000000 22.500000
vt 0.000000 23.000000
vt 0.000000 23.500000
vt 0.333333 23.500000
vt 0.333333 23.000000
vt 0.333333 23.000000
vt 0.333333 23.500000
vt 0.666667 23.500000
vt 0.666667 23.000000
vt 0.666667 23.000000
vt 0.666667 23.500000
vt 1.000000 23.500000
vt 1.000000 23.000000
vt 0.000000 0.000000
vt 0.000000 0.500000
vt 0.333333 0.500000
vt 0.333333 0.000000
vt 0.333333 0.000000
vt 0.333333 0.500000
vt 0.666667 0.500000
vt 0.666667 0.000000
vt 0.666667 0.000000
vt 0.666667 0.500000
vt 1.000000 0.500000
vt 1.000000 0.000000
vt 0.000000 0.500000
vt 0.000000 1.000000
vt 0.333333 1.000000
vt 0.333333 0.500000
vt 0.333333 0.500000
vt 0.333333 1.000000
vt 0.666667 1.000000
vt 0.666667 0.500000
vt 0.666667 0.500000
vt 0.666667 1.000000
vt 1.000000 1.000000
vt 1.000000 0.500000
vt 0.000000 1.000000
vt 0.000000 1.500000
vt 0.333333 1.500000
vt 0.333333 1.000000
vt 0.333333 1.000000
vt 0.333333 1.500000
vt 0.666667 1.500000
vt 0.666667 1.000000
vt 0.666667 1.000000
vt 0.666667 1.500000
vt 1.000000 1.500000
vt 1.000000 1.000000
vt 0.000000 1.500000
vt 0.000000 2.000000
vt 0.333333 2.000000
vt 0.333333 1.500000
vt 0.333333 1.500000
vt 0.333333 2.000000
vt 0.666667 2.000000
vt 0.666667 1.500000
vt 0.666667 1.500000
vt 0.666667 2.000000
vt 1.000000 2.000000
vt 1.000000 1.500000
vt 0.000000 2.000000
vt 0.000000 2.500000
vt 0.333333 2.500000
vt 0.333333 2.000000
vt 0.333333 2.000000
vt 0.333333 2.500000
vt 0.666667 2.500000
vt 0.666667 2.000000
vt 0.666667 2.000000
vt 0.666667 2.500000
vt 1.000000 2.500000
vt 1.000000 2.000000
vt 0.000000 2.500000
vt 0.000000 3.000000
vt 0.333333 3.000000
vt 0.333333 2.500000
vt 0.333333 2.500000
vt 0.333333 3.000000
vt 0.666667 3.000000
vt 0.666667 2.500000
vt 0.666667 2.500000
vt 0.666667 3.000000
vt 1.000000 3.000000
vt 1.000000 2.500000
vt 0.000000 3.000000
vt 0.000000 3.500000
vt 0.333333 3.500000
vt 0.333333 3.000000
vt 0.333333 3.000000
vt 0.333333 3.500000
vt 0.666667 3.500000
vt 0.666667 3.000000
vt 0.666667 3.000000
vt 0.666667 3.500000
vt 1.000000 3.500000
vt 1.000000 3.000000
vt 0.000000 3.500000
vt 0.000000 4.000000
vt 0.333333 4.000000
vt 0.333333 3.500000
vt 0.333333 3.500000
vt 0.333333 4.000000
vt 0.666667 4.000000
vt 0.666667 3.500000
vt 0.666667 3.500000
vt 0.666667 4.000000
vt 1.000000 4.000000
vt 1.000000 3.500000
vt 0.000000 4.000000
vt 0.000000 4.500000
vt 0.333333 4.500000
vt 0.333333 4.000000
vt 0.333333 4.000000
vt 0.333333 4.500000
vt 0.666667 4.500000
vt 0.666667 4.000000
vt 0.666667 4.000000
vt 0.666667 4.500000
vt 1.000000 4.500000
vt 1.000000 4.000000
vt 0.000000 4.500000
vt 0.000000 5.000000
vt 0.333333 5.000000
vt 0.333333 4.500000
vt 0.333333 4.500000
vt 0.333333 5.000000
vt 0.666667 5.000000
vt 0.666667 4.500000
vt 0.666667 4.500000
vt 0.666667 5.000000
vt 1.000000 5.000000
vt 1.000000 4.500000
vt 0.000000 5.000000
vt 0.000000 5.500000
vt 0.333333 5.500000
vt 0.333333 5.000000
vt 0.333333 5.000000
vt 0.333333 5.500000
vt 0.666667 5.500000
vt 0.666667 5.000000
vt 0.666667 5.000000
vt 0.666667 5.500000
vt 1.000000 5.500000
vt 1.000000 5.000000
vt 0.000000 5.500000
vt 0.000000 6.000000
vt 0.333333 6.000000
vt 0.333333 5.500000
vt 0.333333 5.500000
vt 0.333333 6.000000
vt 0.666667 6.000000
vt 0.666667 5.500000
vt 0.666667 5.500000
vt 0.666667 6.000000
vt 1.000000 6.000000
vt 1.000000 5.500000
vt 0.000000 6.000000
vt 0.000000 6.500000
vt 0.333333 6.500000
vt 0.333333 6.000000
vt 0.333333 6.000000
vt 0.333333 6.500000
vt 0.666667 6.500000
vt 0.666667 6.000000
vt 0.666667 6.000000
vt 0.666667 6.500000
vt 1.000000 6.500000
vt 1.000000 6.000000
vt 0.000000 6.500000
vt 0.000000 7.000000
vt 0.333333 7.000000
vt 0.333333 6.500000
vt 0.333333 6.500000
vt 0.333333 7.000000
vt 0.666667 7.000000
vt 0.666667 6.500000
vt 0.666667 6.500000
vt 0.666667 7.000000
vt 1.000000 7.000000
vt 1.000000 6.500000
vt 0.000000 7.000000
vt 0.000000 7.500000
vt 0.333333 7.500000
vt 0.333333 7.000000
vt 0.333333 7.000000
vt 0.333333 7.500000
vt 0.666667 7.500000
vt 0.666667 7.000000
vt 0.666667 7.000000
vt 0.666667 7.500000
vt 1.000000 7.500000
vt 1.000000 7.000000
vt 0.000000 7.500000
vt 0.000000 8.000000
vt 0.333333 8.000000
vt 0.333333 7.500000
vt 0.333333 7.500000
vt 0.333333 8.000000
vt 0.666667 8.000000
vt 0.666667 7.500000
vt 0.666667 7.500000
vt 0.666667 8.000000
vt 1.000000 8.000000
vt 1.000000 7.500000
vt 0.000000 8.000000
vt 0.000000 8.500000
vt 0.333333 8.500000
vt 0.333333 8.000000
vt 0.333333 8.000000
vt 0.333333 8.500000
vt 0.666667 8.500000
vt 0.666667 8.000000
vt 0.666667 8.000000
vt 0.666667 8.500000
vt 1.000000 8.500000
vt 1.000000 8.000000
vt 0.000000 8.500000
vt 0.000000 9.000000
vt 0.333333 9.000000
vt 0.333333 8.500000
vt 0.333333 8.500000
vt 0.333333 9.000000
vt 0.666667 9.000000
vt 0.666667 8.500000
vt 0.666667 8.500000
vt 0.666667 9.000000
vt 1.000000 9.000000
vt 1.000000 8.500000
vt 0.000000 9.000000
vt 0.000000 9.500000
vt 0.333333 9.500000
vt 0.333333 9.000000
vt 0.333333 9.000000
vt 0.333333 9.500000
vt 0.666667 9.500000
vt 0.666667 9.000000
vt 0.666667 9.000000
vt 0.666667 9.500000
vt 1.000000 9.500000
vt 1.000000 9.000000
vt 0.000000 9.500000
vt 0.000000 10.000000
vt 0.333333 10.000000
vt 0.333333 9.500000
vt 0.333333 9.500000
vt 0.333333 10.000000
vt 0.666667 10.000000
vt 0.666667 9.500000
vt 0.666667 9.500000
vt 0.666667 10.000000
vt 1.000000 10.000000
vt 1.000000 9.500000
vt 0.000000 10.000000
vt 0.000000 10.500000
vt 0.333333 10.500000
vt 0.333333 10.000000
vt 0.333333 10.000000
vt 0.333333 10.500000
vt 0.666667 10.500000
vt 0.666667 10.000000
vt 0.666667 10.000000
vt 0.666667 10.500000
vt 1.000000 10.500000
vt 1.000000 10.000000
vt 0.000000 10.500000
vt 0.000000 11.000000
vt 0.333333 11.000000
vt 0.333333 10.500000
vt 0.333333 10.500000
vt 0.333333 11.000000
vt 0.666667 11.000000
vt 0.666667 10.500000
vt 0.666667 10.500000
vt 0.666667 11.000000
vt 1.000000 11.000000
vt 1.000000 10.500000
vt 0.000000 11.000000
vt 0.000000 11.500000
vt 0.333333 11.500000
vt 0.333333 11.000000
vt 0.333333 11.000000
vt 0.333333 11.500000
vt 0.666667 11.500000
vt 0.666667 11.000000
vt 0.666667 11.000000
vt 0.666667 11.500000
vt 1.000000 11.500000
vt 1.000000 11.000000
vt 0.000000 11.500000
vt 0.000000 12.000000
vt 0.333333 12.000000
vt 0.333333 11.500000
vt 0.333333 11.500000
vt 0.333333 12.000000
vt 0.666667 12.000000
vt 0.666667 11.500000
vt 0.666667 11.500000
vt 0.666667 12.000000
vt 1.000000 12.000000
vt 1.000000 11.500000
vt 0.000000 12.000000
vt 0.000000 12.500000
vt 0.333333 12.500000
vt 0.333333 12.000000
vt 0.333333 12.000000
vt 0.333333 12.500000
vt 0.666667 12.500000
vt 0.666667 12.000000
vt 0.666667 12.000000
vt 0.666667 12.500000
vt 1.000000 12.500000
vt 1.000000 12.000000
vt 0.000000 12.500000
vt 0.000000 13.000000
vt 0.333333 13.000000
vt 0.333333 12.500000
vt 0.333333 12.500000
vt 0.333333 13.000000
vt 0.666667 13.000000
vt 0.666667 12.500000
vt 0.666667 12.500000
vt 0.666667 13.000000
vt 1.000000 13.000000
vt 1.000000 12.500000
vt 0.000000 0.000000
vt 0.000000 0.500000
vt 0.333333 0.500000
vt 0.333333 0.000000
vt 0.333333 0.000000
vt 0.333333 0.500000
vt 0.666667 0.500000
vt 0.666667 0.000000
vt 0.666667 0.000000
vt 0.666667 0.500000
vt 1.000000 0.500000
vt 1.000000 0.000000
vt 0.000000 0.500000
vt 0.000000 1.000000
vt 0.333333 1.000000
vt 0.333333 0.500000
vt 0.333333 0.500000
vt 0.333333 1.000000
vt 0.666667 1.000000
vt 0.666667 0.500000
vt 0.666667 0.500000
vt 0.666667 1.000000
vt 1.000000 1.000000
vt 1.000000 0.500000
vt 0.000000 1.000000
vt 0.000000 1.500000
vt 0.333333 1.500000
vt 0.333333 1.000000
vt 0.333333 1.000000
vt 0.333333 1.500000
vt 0.666667 1.500000
vt 0.666667 1.000000
vt 0.666667 1.000000
vt 0.666667 1.500000
vt 1.000000 1.500000
vt 1.000000 1.000000
vt 0.000000 1.500000
vt 0.000000 2.000000
vt 0.333333 2.000000
vt 0.333333 1.500000
vt 0.333333 1.500000
vt 0.333333 2.000000
vt 0.666667 2.000000
vt 0.666667 1.500000
vt 0.666667 1.500000
vt 0.666667 2.000000
vt 1.000000 2.000000
vt 1.000000 1.500000
vt 0.000000 2.000000
vt 0.000000 2.500000
vt 0.333333 2.500000
vt 0.333333 2.000000
vt 0.333333 2.000000
vt 0.333333 2.500000
vt 0.666667 2.500000
vt 0.666667 2.000000
vt 0.666667 2.000000
vt 0.666667 2.500000
vt 1.000000 2.500000
vt 1.000000 2.000000
vt 0.000000 2.500000
vt 0.000000 3.000000
vt 0.333333 3.000000
vt 0.333333 2.500000
vt 0.333333 2.500000
vt 0.333333 3.000000
vt 0.666667 3.000000
vt 0.666667 2.500000
vt 0.666667 2.500000
vt 0.666667 3.000000
vt 1.000000 3.000000
vt 1.000000 2.500000
vt 0.000000 3.000000
vt 0.000000 3.500000
vt 0.333333 3.500000
vt 0.333333 3.000000
vt 0.333333 3.000000
vt 0.333333 3.500000
vt 0.666667 3.500000
vt 0.666667 3.000000
vt 0.666667 3.000000
vt 0.666667 3.500000
vt 1.000000 3.500000
vt 1.000000 3.000000
vt 0.000000 3.500000
vt 0.000000 4.000000
vt 0.333333 4.000000
vt 0.333333 3.500000
vt 0.333333 3.500000
vt 0.333333 4.000000
vt 0.666667 4.000000
vt 0.666667 3.500000
vt 0.666667 3.500000
vt 0.666667 4.000000
vt 1.000000 4.000000
vt 1.000000 3.500000
vt 0.000000 4.000000
vt 0.000000 4.500000
vt 0.333333 4.500000
vt 0.333333 4.000000
vt 0.333333 4.000000
vt 0.333333 4.500000
vt 0.666667 4.500000
vt 0.666667 4.000000
vt 0.666667 4.000000
vt 0.666667 4.500000
vt 1.000000 4.500000
vt 1.000000 4.000000
vt 0.000000 4.500000
vt 0.000000 5.000000
vt 0.333333 5.000000
vt 0.333333 4.500000
vt 0.333333 4.500000
vt 0.333333 5.000000
vt 0.666667 5.000000
vt 0.666667 4.500000
vt 0.666667 4.500000
vt 0.666667 5.000000
vt 1.000000 5.000000
vt 1.000000 4.500000
vt 0.000000 5.000000
vt 0.000000 5.500000
vt 0.333333 5.500000
vt 0.333333 5.000000
vt 0.333333 5.000000
vt 0.333333 5.500000
vt 0.666667 5.500000
vt 0.666667 5.000000
vt 0.666667 5.000000
vt 0.666667 5.500000
vt 1.000000 5.500000
vt 1.000000 5.000000
vt 0.000000 5.500000
vt 0.000000 6.000000
vt 0.333333 6.000000
vt 0.333333 5.500000
vt 0.333333 5.500000
vt 0.333333 6.000000
vt 0.666667 6.000000
vt 0.666667 5.500000
vt 0.666667 5.500000
vt 0.666667 6.000000
vt 1.000000 6.000000
vt 1.000000 5.500000
vn 0 1 0
vn 0 1 0
vn 0 1 0
vn 0 1 0
vn 0 1 0
vn 0 1 0
vn 0 1 0
vn 0 1 0
vn 0 1 0
vn 0 1 0
vn 0 1 0
vn 0 1 0
vn 0 1 0
vn 0 1 0
vn 0 1 0
vn 0 1 0
vn 0 1 0
vn 0 1 0
vn 0 1 0
vn 0 1 0
vn 0 1 0
vn 0 1 0
vn 0 1 0
vn 0 1 0
vn 0 1 0
vn 0 1 0
vn 0 1 0
vn 0 1 0
vn 0 1 0
vn 0 1 0
vn 0 1 0
vn 0 1 0
vn 0 1 0
vn 0 1 0
vn 0 1 0
vn 0 1 0
vn 0 1 0
vn 0 1 0
vn 0 1 0
vn 0 1 0
vn 0 1 0
vn 0 1 0
vn 0 1 0
vn 0 1 0
vn 0 1 0
vn 0 1 0
vn 0 1 0
vn 0 1 0
vn 0 1 0
vn 0 1 0
vn 0 1 0
vn 0 1 0
vn 0 1 0
vn 0 1 0
vn 0 1 0
vn 0 1 0
vn 0 1 0
vn 0 1 0
vn 0 1 0
vn 0 1 0
vn 0 1 0
vn 0 1 0
vn 0 1 0
vn 0 1 0
vn 0 1 0
vn 0 1 0
vn 0 1 0
vn 0 1 0
vn 0 1 0
vn 0 1 0
vn 0 1 0
vn 0 1 0
vn 0 1 0
vn 0 1 0
vn 0 1 0
vn 0 1 0
vn 0 1 0
vn 0 1 0
vn 0 1 0
vn 0 1 0
vn 0 1 0
vn 0 1 0
vn 0 1 0
vn 0 1 0
vn 0 1 0
vn 0 1 0
vn 0 1 0
vn 0 1 0
vn 0 1 0
vn 0 1 0
vn 0 1 0
vn 0 1 0
vn 0 1 0
vn 0 1 0
vn 0 1 0
vn 0 1 0
vn 0 1 0
vn 0 1 0
vn 0 1 0
vn 0 1 0
vn 0 1 0
vn 0 1 0
vn 0 1 0
vn 0 1 0
vn 0 1 0
vn 0 1 0
vn 0 1 0
vn 0 1 0
vn 0 1 0
vn 0 1 0
vn 0 1 0
vn 0 1 0
vn 0 1 0
vn 0 1 0
vn 0 1 0
vn 0 1 0
vn 0 1 0
vn 0 1 0
vn 0 1 0
vn 0 1 0
vn 0 1 0
vn 0 1 0
vn 0 1 0
vn 0 1 0
vn 0 1 0
vn 0 1 0
vn 0 1 0
vn 0 1 0
vn 0 1 0
vn 0 1 0
vn 0 1 0
vn 0 1 0
vn 0 1 0
vn 0 1 0
vn 0 1 0
vn 0 1 0
vn 0 1 0
vn 0 1 0
vn 0 1 0
vn 0 1 0
vn 0 1 0
vn 0 1 0
vn 0 1 0
vn 0 1 0
vn 0 1 0
vn 0 1 0
vn 0 1 0
vn 0 1 0
vn 0 1 0
vn 0 1 0
vn 0 1 0
vn 0 1 0
vn 0 1 0
vn 0 1 0
vn 0 1 0
vn 0 1 0
vn 0 1 0
vn 0 1 0
vn 0 1 0
vn 0 1 0
vn 0 1 0
vn 0 1 0
vn 0 1 0
vn 0 1 0
vn 0 1 0
vn 0 1 0
vn 0 1 0
vn 0 1 0
vn 0 1 0
vn 0 1 0
vn 0 1 0
vn 0 1 0
vn 0 1 0
vn 0 1 0
vn 0 1 0
vn 0 1 0
vn 0 1 0
vn 0 1 0
vn 0 1 0
vn 0 1 0
vn 0 1 0
vn 0 1 0
vn 0 1 0
vn 0 1 0
vn 0 1 0
vn 0 1 0
vn 0 1 0
vn 0 1 0
vn 0 1 0
vn 0 1 0
vn 0 1 0
vn 0 1 0
vn 0 1 0
vn 0 1 0
vn 0 1 0
vn 0 1 0
vn 0 1 0
vn 0 1 0
vn 0 1 0
vn 0 1 0
vn 0 1 0
vn 0 1 0
vn 0 1 0
vn 0 1 0
vn 0 1 0
vn 0 1 0
vn 0 1 0
vn 0 1 0
vn 0 1 0
vn 0 1 0
vn 0 1 0
vn 0 1 0
vn 0 1 0
vn 0 1 0
vn 0 1 0
vn 0 1 0
vn 0 1 0
vn 0 1 0
vn 0 1 0
vn 0 1 0
vn 0 1 0
vn 0 1 0
vn 0 1 0
vn 0 1 0
vn 0 1 0
vn 0 1 0
vn 0 1 0
vn 0 1 0
vn 0 1 0
vn 0 1 0
vn 0 1 0
vn 0 1 0
vn 0 1 0
vn 0 1 0
vn 0 1 0
vn 0 1 0
vn 0 1 0
vn 0 1 0
vn 0 1 0
vn 0 1 0
vn 0 1 0
vn 0 1 0
vn 0 1 0
vn 0 1 0
vn 0 1 0
vn 0 1 0
vn 0 1 0
vn 0 1 0
vn 0 1 0
vn 0 1 0
vn 0 1 0
vn 0 1 0
vn 0 1 0
vn 0 1 0
vn 0 1 0
vn 0 1 0
vn 0 1 0
vn 0 1 0
vn 0 1 0
vn 0 1 0
vn 0 1 0
vn 0 1 0
vn 0 1 0
vn 0 1 0
vn 0 1 0
vn 0 1 0
vn 0 1 0
vn 0 1 0
vn 0 1 0
vn 0 1 0
vn 0 1 0
vn 0 1 0
vn 0 1 0
vn 0 1 0
vn 0 1 0
vn 0 1 0
vn 0 1 0
vn 0 1 0
vn 0 1 0
vn 0 1 0
vn 0 1 0
vn 0 1 0
vn 0 1 0
vn 0 1 0
vn 0 1 0
vn 0 1 0
vn 0 1 0
vn 0 1 0
vn 0 1 0
vn 0 1 0
vn 0 1 0
vn 0 1 0
vn 0 1 0
vn 0 1 0
vn 0 1 0
vn 0 1 0
vn 0 1 0
vn 0 1 0
vn 0 1 0
vn 0 1 0
vn 0 1 0
vn 0 1 0
vn 0 1 0
vn 0 1 0
vn 0 1 0
vn 0 1 0
vn 0 1 0
vn 0 1 0
vn 0 1 0
vn 0 1 0
vn 0 1 0
vn 0 1 0
vn 0 1 0
vn 0 1 0
vn 0 1 0
vn 0 1 0
vn 0 1 0
vn 0 1 0
vn 0 1 0
vn 0 1 0
vn 0 1 0
vn 0 1 0
vn 0 1 0
vn 0 1 0
vn 0 1 0
vn 0 1 0
vn 0 1 0
vn 0 1 0
vn 0 1 0
vn 0 1 0
vn 0 1 0
vn 0 1 0
vn 0 1 0
vn 0 1 0
vn 0 1 0
vn 0 1 0
vn 0 1 0
vn 0 1 0
vn 0 1 0
vn 0 1 0
vn 0 1 0
vn 0 1 0
vn 0 1 0
vn 0 1 0
vn 0 1 0
vn 0 1 0
vn 0 1 0
vn 0 1 0
vn 0 1 0
vn 0 1 0
vn 0 1 0
vn 0 1 0
vn 0 1 0
vn 0 1 0
vn 0 1 0
vn 0 1 0
vn 0 1 0
vn 0 1 0
vn 0 1 0
vn 0 1 0
vn 0 1 0
vn 0 1 0
vn 0 1 0
vn 0 1 0
vn 0 1 0
vn 0 1 0
vn 0 1 0
vn 0 1 0
vn 0 1 0
vn 0 1 0
vn 0 1 0
vn 0 1 0
vn 0 1 0
vn 0 1 0
vn 0 1 0
vn 0 1 0
vn 0 1 0
vn 0 1 0
vn 0 1 0
vn 0 1 0
vn 0 1 0
vn 0 1 0
vn 0 1 0
vn 0 1 0
vn 0 1 0
vn 0 1 0
vn 0 1 0
vn 0 1 0
vn 0 1 0
vn 0 1 0
vn 0 1 0
vn 0 1 0
vn 0 1 0
vn 0 1 0
vn 0 1 0
vn 0 1 0
vn 0 1 0
vn 0 1 0
vn 0 1 0
vn 0 1 0
vn 0 1 0
vn 0 1 0
vn 0 1 0
vn 0 1 0
vn 0 1 0
vn 0 1 0
vn 0 1 0
vn 0 1 0
vn 0 1 0
vn 0 1 0
vn 0 1 0
vn 0 1 0
vn 0 1 0
vn 0 1 0
vn 0 1 0
vn 0 1 0
vn 0 1 0
vn 0 1 0
vn 0 1 0
vn 0 1 0
vn 0 1 0
vn 0 1 0
vn 0 1 0
vn 0 1 0
vn 0 1 0
vn 0 1 0
vn 0 1 0
vn 0 1 0
vn 0 1 0
vn 0 1 0
vn 0 1 0
vn 0 1 0
vn 0 1 0
vn 0 1 0
vn 0 1 0
vn 0 1 0
vn 0 1 0
vn 0 1 0
vn 0 1 0
vn 0 1 0
vn 0 1 0
vn 0 1 0
vn 0 1 0
vn 0 1 0
vn 0 1 0
vn 0 1 0
vn 0 1 0
vn 0 1 0
vn 0 1 0
vn 0 1 0
vn 0 1 0
vn 0 1 0
vn 0 1 0
vn 0 1 0
vn 0 1 0
vn 0 1 0
vn 0 1 0
vn 0 1 0
vn 0 1 0
vn 0 1 0
vn 0 1 0
vn 0 1 0
vn 0 1 0
vn 0 1 0
vn 0 1 0
vn 0 1 0
vn 0 1 0
vn 0 1 0
vn 0 1 0
vn 0 1 0
vn 0 1 0
vn 0 1 0
vn 0 1 0
vn 0 1 0
vn 0 1 0
vn 0 1 0
vn 0 1 0
vn 0 1 0
vn 0 1 0
vn 0 1 0
vn 0 1 0
vn 0 1 0
vn 0 1 0
vn 0 1 0
vn 0 1 0
vn 0 1 0
vn 0 1 0
vn 0 1 0
vn 0 1 0
vn 0 1 0
vn 0 1 0
vn 0 1 0
vn 0 1 0
vn 0 1 0
vn 0 1 0
vn 0 1 0
vn 0 1 0
vn 0 1 0
vn 0 1 0
vn 0 1 0
vn 0 1 0
vn 0 1 0
vn 0 1 0
vn 0 1 0
vn 0 1 0
vn 0 1 0
vn 0 1 0
vn 0 1 0
vn 0 1 0
vn 0 1 0
vn 0 1 0
vn 0 1 0
vn 0 1 0
vn 0 1 0
vn 0 1 0
vn 0 1 0
vn 0 1 0
vn 0 1 0
vn 0 1 0
vn 0 1 0
vn 0 1 0
vn 0 1 0
vn 0 1 0
vn 0 1 0
vn 0 1 0
vn 0 1 0
vn 0 1 0
vn 0 1 0
vn 0 1 0
vn 0 1 0
vn 0 1 0
vn 0 1 0
vn 0 1 0
vn 0 1 0
vn 0 1 0
vn 0 1 0
vn 0 1 0
vn 0 1 0
vn 0 1 0
vn 0 1 0
vn 0 1 0
vn 0 1 0
vn 0 1 0
vn 0 1 0
vn 0 1 0
vn 0 1 0
vn 0 1 0
vn 0 1 0
vn 0 1 0
vn 0 1 0
vn 0 1 0
vn 0 1 0
vn 0 1 0
vn 0 1 0
vn 0 1 0
vn 0 1 0
vn 0 1 0
vn 0 1 0
vn 0 1 0
vn 0 1 0
vn 0 1 0
vn 0 1 0
vn 0 1 0
vn 0 1 0
vn 0 1 0
vn 0 1 0
vn 0 1 0
vn 0 1 0
vn 0 1 0
vn 0 1 0
vn 0 1 0
vn 0 1 0
vn 0 1 0
vn 0 1 0
vn 0 1 0
vn 0 1 0
vn 0 1 0
vn 0 1 0
vn 0 1 0
vn 0 1 0
vn 0 1 0
vn 0 1 0
vn 0 1 0
vn 0 1 0
vn 0 1 0
vn 0 1 0
vn 0 1 0
vn 0 1 0
vn 0 1 0
vn 0 1 0
vn 0 1 0
vn 0 1 0
vn 0 1 0
vn 0 1 0
vn 0 1 0
vn 0 1 0
vn 0 1 0
vn 0 1 0
vn 0 1 0
vn 0 1 0
vn 0 1 0
vn 0 1 0
vn 0 1 0
vn 0 1 0
vn 0 1 0
vn 0 1 0
vn 0 1 0
vn 0 1 0
vn 0 1 0
vn 0 1 0
vn 0 1 0
vn 0 1 0
vn 0 1 0
vn 0 1 0
vn 0 1 0
vn 0 1 0
vn 0 1 0
vn 0 1 0
vn 0 1 0
vn 0 1 0
vn 0 1 0
vn 0 1 0
vn 0 1 0
vn 0 1 0
vn 0 1 0
vn 0 1 0
vn 0 1 0
vn 0 1 0
vn 0 1 0
vn 0 1 0
vn 0 1 0
vn 0 1 0
vn 0 1 0
vn 0 1 0
vn 0 1 0
vn 0 1 0
vn 0 1 0
vn 0 1 0
vn 0 1 0
vn 0 1 0
vn 0 1 0
vn 0 1 0
vn 0 1 0
vn 0 1 0
vn 0 1 0
vn 0 1 0
vn 0 1 0
vn 0 1 0
vn 0 1 0
vn 0 1 0
vn 0 1 0
vn 0 1 0
vn 0 1 0
vn 0 1 0
vn 0 1 0
vn 0 1 0
vn 0 1 0
vn 0 1 0
vn 0 1 0
vn 0 1 0
vn 0 1 0
vn 0 1 0
vn 0 1 0
vn 0 1 0
vn 0 1 0
vn 0 1 0
vn 0 1 0
vn 0 1 0
vn 0 1 0
vn 0 1 0
vn 0 1 0
vn 0 1 0
vn 0 1 0
vn 0 1 0
vn 0 1 0
vn 0 1 0
vn 0 1 0
vn 0 1 0
vn 0 1 0
vn 0 1 0
vn 0 1 0
vn 0 1 0
vn 0 1 0
vn 0 1 0
vn 0 1 0
vn 0 1 0
vn 0 1 0
vn 0 1 0
vn 0 1 0
vn 0 1 0
vn 0 1 0
vn 0 1 0
vn 0 1 0
vn 0 1 0
vn 0 1 0
vn 0 1 0
vn 0 1 0
vn 0 1 0
vn 0 1 0
vn 0 1 0
vn 0 1 0
vn 0 1 0
vn 0 1 0
vn 0 1 0
vn 0 1 0
vn 0 1 0
vn 0 1 0
vn 0 1 0
vn 0 1 0
vn 0 1 0
vn 0 1 0
vn 0 1 0
vn 0 1 0
vn 0 1 0
vn 0 1 0
vn 0 1 0
vn 0 1 0
vn 0 1 0
vn 0 1 0
vn 0 1 0
vn 0 1 0
vn 0 1 0
vn 0 1 0
vn 0 1 0
vn 0 1 0
vn 0 1 0
vn 0 1 0
vn 0 1 0
vn 0 1 0
vn 0 1 0
vn 0 1 0
vn 0 1 0
vn 0 1 0
vn 0 1 0
vn 0 1 0
vn 0 1 0
vn 0 1 0
vn 0 1 0
vn 0 1 0
vn 0 1 0
vn 0 1 0
vn 0 1 0
vn 0 1 0
vn 0 1 0
vn 0 1 0
vn 0 1 0
vn 0 1 0
vn 0 1 0
vn 0 1 0
vn 0 1 0
vn 0 1 0
vn 0 1 0
vn 0 1 0
vn 0 1 0
vn 0 1 0
vn 0 1 0
vn 0 1 0
vn 0 1 0
vn 0 1 0
vn 0 1 0
vn 0 1 0
vn 0 1 0
vn 0 1 0
vn 0 1 0
vn 0 1 0
vn 0 1 0
vn 0 1 0
vn 0 1 0
vn 0 1 0
vn 0 1 0
vn 0 1 0
vn 0 1 0
vn 0 1 0
vn 0 1 0
vn 0 1 0
vn 0 1 0
vn 0 1 0
vn 0 1 0
vn 0 1 0
vn 0 1 0
vn 0 1 0
vn 0 1 0
vn 0 1 0
vn 0 1 0
vn 0 1 0
vn 0 1 0
vn 0 1 0
vn 0 1 0
vn 0 1 0
vn 0 1 0
vn 0 1 0
vn 0 1 0
vn 0 1 0
vn 0 1 0
vn 0 1 0
vn 0 1 0
vn 0 1 0
vn 0 1 0
vn 0 1 0
vn 0 1 0
vn 0 1 0
vn 0 1 0
vn 0 1 0
vn 0 1 0
vn 0 1 0
vn 0 1 0
vn 0 1 0
vn 0 1 0
vn 0 1 0
vn 0 1 0
vn 0 1 0
vn 0 1 0
vn 0 1 0
vn 0 1 0
vn 0 1 0
vn 0 1 0
vn 0 1 0
vn 0 1 0
vn 0 1 0
vn 0 1 0
vn 0 1 0
vn 0 1 0
vn 0 1 0
vn 0 1 0
vn 0 1 0
vn 0 1 0
vn 0 1 0
vn 0 1 0
vn 0 1 0
vn 0 1 0
vn 0 1 0
vn 0 1 0
vn 0 1 0
vn 0 1 0
vn 0 1 0
vn 0 1 0
vn 0 1 0
vn 0 1 0
vn 0 1 0
vn 0 1 0
vn 0 1 0
vn 0 1 0
vn 0 1 0
vn 0 1 0
vn 0 1 0
vn 0 1 0
vn 0 1 0
vn 0 1 0
vn 0 1 0
vn 0 1 0
vn 0 1 0
vn 0 1 0
vn 0 1 0
vn 0 1 0
vn 0 1 0
vn 0 1 0
vn 0 1 0
vn 0 1 0
vn 0 1 0
vn 0 1 0
vn 0 1 0
vn 0 1 0
vn 0 1 0
vn 0 1 0
vn 0 1 0
vn 0 1 0
vn 0 1 0
vn 0 1 0
vn 0 1 0
vn 0 1 0
vn 0 1 0
vn 0 1 0
vn 0 1 0
vn 0 1 0
vn 0 1 0
vn 0 1 0
vn 0 1 0
vn 0 1 0
vn 0 1 0
vn 0 1 0
vn 0 1 0
vn 0 1 0
vn 0 1 0
vn 0 1 0
vn 0 1 0
vn 0 1 0
vn 0 1 0
vn 0 1 0
vn 0 1 0
vn 0 1 0
vn 0 1 0
vn 0 1 0
vn 0 1 0
vn 0 1 0
vn 0 1 0
vn 0 1 0
vn 0 1 0
vn 0 1 0
vn 0 1 0
vn 0 1 0
vn 0 1 0
vn 0 1 0
vn 0 1 0
vn 0 1 0
vn 0 1 0
vn 0 1 0
vn 0 1 0
vn 0 1 0
vn 0 1 0
vn 0 1 0
vn 0 1 0
vn 0 1 0
vn 0 1 0
vn 0 1 0
vn 0 1 0
vn 0 1 0
vn 0 1 0
vn 0 1 0
vn 0 1 0
vn 0 1 0
vn 0 1 0
vn 0 1 0
vn 0 1 0
vn 0 1 0
vn 0 1 0
vn 0 1 0
vn 0 1 0
vn 0 1 0
vn 0 1 0
vn 0 1 0
vn 0 1 0
vn 0 1 0
vn 0 1 0
vn 0 1 0
vn 0 1 0
vn 0 1 0
vn 0 1 0
vn 0 1 0
vn 0 1 0
vn 0 1 0
vn 0 1 0
vn 0 1 0
vn 0 1 0
vn 0 1 0
vn 0 1 0
vn 0 1 0
vn 0 1 0
vn 0 1 0
vn 0 1 0
vn 0 1 0
vn 0 1 0
vn 0 1 0
vn 0 1 0
vn 0 1 0
vn 0 1 0
vn 0 1 0
vn 0 1 0
vn 0 1 0
vn 0 1 0
vn 0 1 0
vn 0 1 0
vn 0 1 0
vn 0 1 0
vn 0 1 0
vn 0 1 0
vn 0 1 0
vn 0 1 0
vn 0 1 0
vn 0 1 0
vn 0 1 0
vn 0 1 0
vn 0 1 0
vn 0 1 0
vn 0 1 0
vn 0 1 0
vn 0 1 0
vn 0 1 0
vn 0 1 0
vn 0 1 0
vn 0 1 0
vn 0 1 0
vn 0 1 0
vn 0 1 0
vn 0 1 0
vn 0 1 0
vn 0 1 0
vn 0 1 0
vn 0 1 0
vn 0 1 0
vn 0 1 0
vn 0 1 0
vn 0 1 0
vn 0 1 0
vn 0 1 0
vn 0 1 0
vn 0 1 0
vn 0 1 0
vn 0 1 0
vn 0 1 0
vn 0 1 0
vn 0 1 0
vn 0 1 0
vn 0 1 0
vn 0 1 0
vn 0 1 0
vn 0 1 0
vn 0 1 0
vn 0 1 0
vn 0 1 0
vn 0 1 0
vn 0 1 0
vn 0 1 0
vn 0 1 0
vn 0 1 0
vn 0 1 0
vn 0 1 0
vn 0 1 0
vn 0 1 0
vn 0 1 0
vn 0 1 0
usemtl earth
f 1/1/1 2/2/1 3/3/1 4/4/1
usemtl stone
f 5/5/1 6/6/1 7/7/1 8/8/1
usemtl earth
f 9/9/1 10/10/1 11/11/1 12/12/1
f 13/13/1 14/14/1 15/15/1 16/16/1
usemtl stone
f 17/17/1 18/18/1 19/19/1 20/20/1
usemtl earth
f 21/21/1 22/22/1 23/23/1 24/24/1
f 25/25/1 26/26/1 27/27/1 28/28/1
usemtl stone
f 29/29/1 30/30/1 31/31/1 32/32/1
usemtl earth
f 33/33/1 34/34/1 35/35/1 36/36/1
f 37/37/1 38/38/1 39/39/1 40/40/1
usemtl stone
f 41/41/1 42/42/1 43/43/1 44/44/1
usemtl earth
f 45/45/1 46/46/1 47/47/1 48/48/1
f 49/49/1 50/50/1 51/51/1 52/52/1
usemtl stone
f 53/53/1 54/54/1 55/55/1 56/56/1
usemtl earth
f 57/57/1 58/58/1 59/59/1 60/60/1
f 61/61/1 62/62/1 63/63/1 64/64/1
usemtl stone
f 65/65/1 66/66/1 67/67/1 68/68/1
usemtl earth
f 69/69/1 70/70/1 71/71/1 72/72/1
f 73/73/1 74/74/1 75/75/1 76/76/1
usemtl stone
f 77/77/1 78/78/1 79/79/1 80/80/1
usemtl earth
f 81/81/1 82/82/1 83/83/1 84/84/1
f 85/85/1 86/86/1 87/87/1 88/88/1
usemtl stone
f 89/89/1 90/90/1 91/91/1 92/92/1
usemtl earth
f 93/93/1 94/94/1 95/95/1 96/96/1
f 97/97/1 98/98/1 99/99/1 100/100/1
usemtl stone
f 101/101/1 102/102/1 103/103/1 104/104/1
usemtl earth
f 105/105/1 106/106/1 107/107/1 108/108/1
f 109/109/1 110/110/1 111/111/1 112/112/1
usemtl stone
f 113/113/1 114/114/1 115/115/1 116/116/1
usemtl earth
f 117/117/1 118/118/1 119/119/1 120/120/1
f 121/121/1 122/122/1 123/123/1 124/124/1
usemtl stone
f 125/125/1 126/126/1 127/127/1 128/128/1
usemtl earth
f 129/129/1 130/130/1 131/131/1 132/132/1
f 133/133/1 134/134/1 135/135/1 136/136/1
usemtl stone
f 137/137/1 138/138/1 139/139/1 140/140/1
usemtl earth
f 141/141/1 142/142/1 143/143/1 144/144/1
f 145/145/1 146/146/1 147/147/1 148/148/1
usemtl stone
f 149/149/1 150/150/1 151/151/1 152/152/1
usemtl earth
f 153/153/1 154/154/1 155/155/1 156/156/1
f 157/157/1 158/158/1 159/159/1 160/160/1
usemtl stone
f 161/161/1 162/162/1 163/163/1 164/164/1
usemtl earth
f 165/165/1 166/166/1 167/167/1 168/168/1
f 169/169/1 170/170/1 171/171/1 172/172/1
usemtl stone
f 173/173/1 174/174/1 175/175/1 176/176/1
usemtl earth
f 177/177/1 178/178/1 179/179/1 180/180/1
f 181/181/1 182/182/1 183/183/1 184/184/1
usemtl stone
f 185/185/1 186/186/1 187/187/1 188/188/1
usemtl earth
f 189/189/1 190/190/1 191/191/1 192/192/1
f 193/193/1 194/194/1 195/195/1 196/196/1
usemtl stone
f 197/197/1 198/198/1 199/199/1 200/200/1
usemtl earth
f 201/201/1 202/202/1 203/203/1 204/204/1
f 205/205/1 206/206/1 207/207/1 208/208/1
usemtl stone
f 209/209/1 210/210/1 211/211/1 212/212/1
usemtl earth
f 213/213/1 214/214/1 215/215/1 216/216/1
f 217/217/1 218/218/1 219/219/1 220/220/1
usemtl stone
f 221/221/1 222/222/1 223/223/1 224/224/1
usemtl earth
f 225/225/1 226/226/1 227/227/1 228/228/1
f 229/229/1 230/230/1 231/231/1 232/232/1
usemtl stone
f 233/233/1 234/234/1 235/235/1 236/236/1
usemtl earth
f 237/237/1 238/238/1 239/239/1 240/240/1
f 241/241/1 242/242/1 243/243/1 244/244/1
usemtl stone
f 245/245/1 246/246/1 247/247/1 248/248/1
usemtl earth
f 249/249/1 250/250/1 251/251/1 252/252/1
f 253/253/1 254/254/1 255/255/1 256/256/1
usemtl stone
f 257/257/1 258/258/1 259/259/1 260/260/1
usemtl earth
f 261/261/1 262/262/1 263/263/1 264/264/1
f 265/265/1 266/266/1 267/267/1 268/268/1
usemtl stone
f 269/269/1 270/270/1 271/271/1 272/272/1
usemtl earth
f 273/273/1 274/274/1 275/275/1 276/276/1
f 277/277/1 278/278/1 279/279/1 280/280/1
usemtl stone
f 281/281/1 282/282/1 283/283/1 284/284/1
usemtl earth
f 285/285/1 286/286/1 287/287/1 288/288/1
f 289/289/1 290/290/1 291/291/1 292/292/1
usemtl stone
f 293/293/1 294/294/1 295/295/1 296/296/1
usemtl earth
f 297/297/1 298/298/1 299/299/1 300/300/1
f 301/301/1 302/302/1 303/303/1 304/304/1
usemtl stone
f 305/305/1 306/306/1 307/307/1 308/308/1
usemtl earth
f 309/309/1 310/310/1 311/311/1 312/312/1
f 313/313/1 314/314/1 315/315/1 316/316/1
usemtl stone
f 317/317/1 318/318/1 319/319/1 320/320/1
usemtl earth
f 321/321/1 322/322/1 323/323/1 324/324/1
f 325/325/1 326/326/1 327/327/1 328/328/1
usemtl stone
f 329/329/1 330/330/1 331/331/1 332/332/1
usemtl earth
f 333/333/1 334/334/1 335/335/1 336/336/1
f 337/337/1 338/338/1 339/339/1 340/340/1
usemtl stone
f 341/341/1 342/342/1 343/343/1 344/344/1
usemtl earth
f 345/345/1 346/346/1 347/347/1 348/348/1
f 349/349/1 350/350/1 351/351/1 352/352/1
usemtl stone
f 353/353/1 354/354/1 355/355/1 356/356/1
usemtl earth
f 357/357/1 358/358/1 359/359/1 360/360/1
f 361/361/1 362/362/1 363/363/1 364/364/1
usemtl stone
f 365/365/1 366/366/1 367/367/1 368/368/1
usemtl earth
f 369/369/1 370/370/1 371/371/1 372/372/1
f 373/373/1 374/374/1 375/375/1 376/376/1
usemtl stone
f 377/377/1 378/378/1 379/379/1 380/380/1
usemtl earth
f 381/381/1 382/382/1 383/383/1 384/384/1
f 385/385/1 386/386/1 387/387/1 388/388/1
usemtl stone
f 389/389/1 390/390/1 391/391/1 392/392/1
usemtl earth
f 393/393/1 394/394/1 395/395/1 396/396/1
f 397/397/1 398/398/1 399/399/1 400/400/1
usemtl stone
f 401/401/1 402/402/1 403/403/1 404/404/1
usemtl earth
f 405/405/1 406/406/1 407/407/1 408/408/1
f 409/409/1 410/410/1 411/411/1 412/412/1
usemtl stone
f 413/413/1 414/414/1 415/415/1 416/416/1
usemtl earth
f 417/417/1 418/418/1 419/419/1 420/420/1
f 421/421/1 422/422/1 423/423/1 424/424/1
usemtl stone
f 425/425/1 426/426/1 427/427/1 428/428/1
usemtl earth
f 429/429/1 430/430/1 431/431/1 432/432/1
f 433/433/1 434/434/1 435/435/1 436/436/1
usemtl stone
f 437/437/1 438/438/1 439/439/1 440/440/1
usemtl earth
f 441/441/1 442/442/1 443/443/1 444/444/1
f 445/445/1 446/446/1 447/447/1 448/448/1
usemtl stone
f 449/449/1 450/450/1 451/451/1 452/452/1
usemtl earth
f 453/453/1 454/454/1 455/455/1 456/456/1
f 457/457/1 458/458/1 459/459/1 460/460/1
usemtl stone
f 461/461/1 462/462/1 463/463/1 464/464/1
usemtl earth
f 465/465/1 466/466/1 467/467/1 468/468/1
f 469/469/1 470/470/1 471/471/1 472/472/1
usemtl stone
f 473/473/1 474/474/1 475/475/1 476/476/1
usemtl earth
f 477/477/1 478/478/1 479/479/1 480/480/1
f 481/481/1 482/482/1 483/483/1 484/484/1
usemtl stone
f 485/485/1 486/486/1 487/487/1 488/488/1
usemtl earth
f 489/489/1 490/490/1 491/491/1 492/492/1
f 493/493/1 494/494/1 495/495/1 496/496/1
usemtl stone
f 497/497/1 498/498/1 499/499/1 500/500/1
usemtl earth
f 501/501/1 502/502/1 503/503/1 504/504/1
f 505/505/1 506/506/1 507/507/1 508/508/1
usemtl stone
f 509/509/1 510/510/1 511/511/1 512/512/1
usemtl earth
f 513/513/1 514/514/1 515/515/1 516/516/1
f 517/517/1 518/518/1 519/519/1 520/520/1
usemtl stone
f 521/521/1 522/522/1 523/523/1 524/524/1
usemtl earth
f 525/525/1 526/526/1 527/527/1 528/528/1
f 529/529/1 530/530/1 531/531/1 532/532/1
usemtl stone
f 533/533/1 534/534/1 535/535/1 536/536/1
usemtl earth
f 537/537/1 538/538/1 539/539/1 540/540/1
f 541/541/1 542/542/1 543/543/1 544/544/1
usemtl stone
f 545/545/1 546/546/1 547/547/1 548/548/1
usemtl earth
f 549/549/1 550/550/1 551/551/1 552/552/1
f 553/553/1 554/554/1 555/555/1 556/556/1
usemtl stone
f 557/557/1 558/558/1 559/559/1 560/560/1
usemtl earth
f 561/561/1 562/562/1 563/563/1 564/564/1
f 565/565/1 566/566/1 567/567/1 568/568/1
usemtl stone
f 569/569/1 570/570/1 571/571/1 572/572/1
usemtl earth
f 573/573/1 574/574/1 575/575/1 576/576/1
f 577/577/1 578/578/1 579/579/1 580/580/1
usemtl stone
f 581/581/1 582/582/1 583/583/1 584/584/1
usemtl earth
f 585/585/1 586/586/1 587/587/1 588/588/1
f 589/589/1 590/590/1 591/591/1 592/592/1
usemtl stone
f 593/593/1 594/594/1 595/595/1 596/596/1
usemtl earth
f 597/597/1 598/598/1 599/599/1 600/600/1
f 601/601/1 602/602/1 603/603/1 604/604/1
usemtl stone
f 605/605/1 606/606/1 607/607/1 608/608/1
usemtl earth
f 609/609/1 610/610/1 611/611/1 612/612/1
f 613/613/1 614/614/1 615/615/1 616/616/1
usemtl stone
f 617/617/1 618/618/1 619/619/1 620/620/1
usemtl earth
f 621/621/1 622/622/1 623/623/1 624/624/1
f 625/625/1 626/626/1 627/627/1 628/628/1
usemtl stone
f 629/629/1 630/630/1 631/631/1 632/632/1
usemtl earth
f 633/633/1 634/634/1 635/635/1 636/636/1
f 637/637/1 638/638/1 639/639/1 640/640/1
usemtl stone
f 641/641/1 642/642/1 643/643/1 644/644/1
usemtl earth
f 645/645/1 646/646/1 647/647/1 648/648/1
f 649/649/1 650/650/1 651/651/1 652/652/1
usemtl stone
f 653/653/1 654/654/1 655/655/1 656/656/1
usemtl earth
f 657/657/1 658/658/1 659/659/1 660/660/1
f 661/661/1 662/662/1 663/663/1 664/664/1
usemtl stone
f 665/665/1 666/666/1 667/667/1 668/668/1
usemtl earth
f 669/669/1 670/670/1 671/671/1 672/672/1
f 673/673/1 674/674/1 675/675/1 676/676/1
usemtl stone
f 677/677/1 678/678/1 679/679/1 680/680/1
usemtl earth
f 681/681/1 682/682/1 683/683/1 684/684/1
f 685/685/1 686/686/1 687/687/1 688/688/1
usemtl stone
f 689/689/1 690/690/1 691/691/1 692/692/1
usemtl earth
f 693/693/1 694/694/1 695/695/1 696/696/1
f 697/697/1 698/698/1 699/699/1 700/700/1
usemtl stone
f 701/701/1 702/702/1 703/703/1 704/704/1
usemtl earth
f 705/705/1 706/706/1 707/707/1 708/708/1
f 709/709/1 710/710/1 711/711/1 712/712/1
usemtl stone
f 713/713/1 714/714/1 715/715/1 716/716/1
usemtl earth
f 717/717/1 718/718/1 719/719/1 720/720/1
f 721/721/1 722/722/1 723/723/1 724/724/1
usemtl stone
f 725/725/1 726/726/1 727/727/1 728/728/1
usemtl earth
f 729/729/1 730/730/1 731/731/1 732/732/1
f 733/733/1 734/734/1 735/735/1 736/736/1
usemtl stone
f 737/737/1 738/738/1 739/739/1 740/740/1
usemtl earth
f 741/741/1 742/742/1 743/743/1 744/744/1
f 745/745/1 746/746/1 747/747/1 748/748/1
usemtl stone
f 749/749/1 750/750/1 751/751/1 752/752/1
usemtl earth
f 753/753/1 754/754/1 755/755/1 756/756/1
f 757/757/1 758/758/1 759/759/1 760/760/1
usemtl stone
f 761/761/1 762/762/1 763/763/1 764/764/1
usemtl earth
f 765/765/1 766/766/1 767/767/1 768/768/1
f 769/769/1 770/770/1 771/771/1 772/772/1
usemtl stone
f 773/773/1 774/774/1 775/775/1 776/776/1
usemtl earth
f 777/777/1 778/778/1 779/779/1 780/780/1
f 781/781/1 782/782/1 783/783/1 784/784/1
usemtl stone
f 785/785/1 786/786/1 787/787/1 788/788/1
usemtl earth
f 789/789/1 790/790/1 791/791/1 792/792/1
f 793/793/1 794/794/1 795/795/1 796/796/1
usemtl stone
f 797/797/1 798/798/1 799/799/1 800/800/1
usemtl earth
f 801/801/1 802/802/1 803/803/1 804/804/1
f 805/805/1 806/806/1 807/807/1 808/808/1
usemtl stone
f 809/809/1 810/810/1 811/811/1 812/812/1
usemtl earth
f 813/813/1 814/814/1 815/815/1 816/816/1
f 817/817/1 818/818/1 819/819/1 820/820/1
usemtl stone
f 821/821/1 822/822/1 823/823/1 824/824/1
usemtl earth
f 825/825/1 826/826/1 827/827/1 828/828/1
f 829/829/1 830/830/1 831/831/1 832/832/1
usemtl stone
f 833/833/1 834/834/1 835/835/1 836/836/1
usemtl earth
f 837/837/1 838/838/1 839/839/1 840/840/1
f 841/841/1 842/842/1 843/843/1 844/844/1
usemtl stone
f 845/845/1 846/846/1 847/847/1 848/848/1
usemtl earth
f 849/849/1 850/850/1 851/851/1 852/852/1
f 853/853/1 854/854/1 855/855/1 856/856/1
usemtl stone
f 857/857/1 858/858/1 859/859/1 860/860/1
usemtl earth
f 861/861/1 862/862/1 863/863/1 864/864/1
f 865/865/1 866/866/1 867/867/1 868/868/1
usemtl stone
f 869/869/1 870/870/1 871/871/1 872/872/1
usemtl earth
f 873/873/1 874/874/1 875/875/1 876/876/1
f 877/877/1 878/878/1 879/879/1 880/880/1
usemtl stone
f 881/881/1 882/882/1 883/883/1 884/884/1
usemtl earth
f 885/885/1 886/886/1 887/887/1 888/888/1
f 889/889/1 890/890/1 891/891/1 892/892/1
usemtl stone
f 893/893/1 894/894/1 895/895/1 896/896/1
usemtl earth
f 897/897/1 898/898/1 899/899/1 900/900/1
f 901/901/1 902/902/1 903/903/1 904/904/1
usemtl stone
f 905/905/1 906/906/1 907/907/1 908/908/1
usemtl earth
f 909/909/1 910/910/1 911/911/1 912/912/1
f 913/913/1 914/914/1 915/915/1 916/916/1
usemtl stone
f 917/917/1 918/918/1 919/919/1 920/920/1
usemtl earth
f 921/921/1 922/922/1 923/923/1 924/924/1
f 925/925/1 926/926/1 927/927/1 928/928/1
usemtl stone
f 929/929/1 930/930/1 931/931/1 932/932/1
usemtl earth
f 933/933/1 934/934/1 935/935/1 936/936/1
f 937/937/1 938/938/1 939/939/1 940/940/1
usemtl stone
f 941/941/1 942/942/1 943/943/1 944/944/1
usemtl earth
f 945/945/1 946/946/1 947/947/1 948/948/1
f 949/949/1 950/950/1 951/951/1 952/952/1
usemtl stone
f 953/953/1 954/954/1 955/955/1 956/956/1
usemtl earth
f 957/957/1 958/958/1 959/959/1 960/960/1
f 961/961/1 962/962/1 963/963/1 964/964/1
usemtl stone
f 965/965/1 966/966/1 967/967/1 968/968/1
usemtl earth
f 969/969/1 970/970/1 971/971/1 972/972/1
f 973/973/1 974/974/1 975/975/1 976/976/1
usemtl stone
f 977/977/1 978/978/1 979/979/1 980/980/1
usemtl earth
f 981/981/1 982/982/1 983/983/1 984/984/1
f 985/985/1 986/986/1 987/987/1 988/988/1
usemtl stone
f 989/989/1 990/990/1 991/991/1 992/992/1
usemtl earth
f 993/993/1 994/994/1 995/995/1 996/996/1
f 997/997/1 998/998/1 999/999/1 1000/1000/1
usemtl stone
f 1001/1001/1 1002/1002/1 1003/1003/1 1004/1004/1
usemtl earth
f 1005/1005/1 1006/1006/1 1007/1007/1 1008/1008/1
f 1009/1009/1 1010/1010/1 1011/1011/1 1012/1012/1
usemtl stone
f 1013/1013/1 1014/1014/1 1015/1015/1 1016/1016/1
usemtl earth
f 1017/1017/1 1018/1018/1 1019/1019/1 1020/1020/1
