# Deterministic Story World asset: StoryWorld_TerrainMesh
mtllib story_world.mtl
o StoryWorld_TerrainMesh
v -60.00000 14.98668 -60.00000
v -56.25000 14.05346 -60.00000
v -52.50000 13.35054 -60.00000
v -48.75000 12.72431 -60.00000
v -45.00000 12.01128 -60.00000
v -41.25000 11.10332 -60.00000
v -37.50000 9.98610 -60.00000
v -33.75000 8.73123 -60.00000
v -30.00000 7.45342 -60.00000
v -26.25000 6.26320 -60.00000
v -22.50000 5.23974 -60.00000
v -18.75000 4.42781 -60.00000
v -15.00000 3.84660 -60.00000
v -11.25000 3.49700 -60.00000
v -7.50000 3.36275 -60.00000
v -3.75000 3.40900 -60.00000
v 0.00000 3.58413 -60.00000
v 3.75000 3.82781 -60.00000
v 7.50000 4.08432 -60.00000
v 11.25000 4.31754 -60.00000
v 15.00000 4.52299 -60.00000
v 18.75000 4.73306 -60.00000
v 22.50000 5.01246 -60.00000
v 26.25000 5.44279 -60.00000
v 30.00000 6.09790 -60.00000
v 33.75000 7.01617 -60.00000
v 37.50000 8.18003 -60.00000
v 41.25000 9.51393 -60.00000
v 45.00000 10.90601 -60.00000
v 48.75000 12.24714 -60.00000
v 52.50000 13.47036 -60.00000
v 56.25000 14.57273 -60.00000
v 60.00000 15.61141 -60.00000
v -60.00000 14.23399 -56.25000
v -56.25000 13.59945 -56.25000
v -52.50000 13.19243 -56.25000
v -48.75000 12.79663 -56.25000
v -45.00000 12.19372 -56.25000
v -41.25000 11.25350 -56.25000
v -37.50000 9.98298 -56.25000
v -33.75000 8.50795 -56.25000
v -30.00000 7.00507 -56.25000
v -26.25000 5.63079 -56.25000
v -22.50000 4.48353 -56.25000
v -18.75000 3.60418 -56.25000
v -15.00000 2.99600 -56.25000
v -11.25000 2.64219 -56.25000
v -7.50000 2.51280 -56.25000
v -3.75000 2.56458 -56.25000
v 0.00000 2.74170 -56.25000
v 3.75000 2.98254 -56.25000
v 7.50000 3.23213 -56.25000
v 11.25000 3.45729 -56.25000
v 15.00000 3.65945 -56.25000
v 18.75000 3.88077 -56.25000
v 22.50000 4.19945 -56.25000
v 26.25000 4.71151 -56.25000
v 30.00000 5.49994 -56.25000
v 33.75000 6.59842 -56.25000
v 37.50000 7.96456 -56.25000
v 41.25000 9.47916 -56.25000
v 45.00000 10.97987 -56.25000
v 48.75000 12.31910 -56.25000
v 52.50000 13.42000 -56.25000
v 56.25000 14.30288 -56.25000
v 60.00000 15.07114 -56.25000
v -60.00000 13.52382 -52.50000
v -56.25000 13.18518 -52.50000
v -52.50000 13.07161 -52.50000
v -48.75000 12.90511 -52.50000
v -45.00000 12.41331 -52.50000
v -41.25000 11.44423 -52.50000
v -37.50000 10.02597 -52.50000
v -33.75000 8.33760 -52.50000
v -30.00000 6.61678 -52.50000
v -26.25000 5.06518 -52.50000
v -22.50000 3.80002 -52.50000
v -18.75000 2.85826 -52.50000
v -15.00000 2.22720 -52.50000
v -11.25000 1.87239 -52.50000
v -7.50000 1.75014 -52.50000
v -3.75000 1.80870 -52.50000
v 0.00000 1.98815 -52.50000
v 3.75000 2.22575 -52.50000
v 7.50000 2.46786 -52.50000
v 11.25000 2.68519 -52.50000
v 15.00000 2.88681 -52.50000
v 18.75000 3.12752 -52.50000
v 22.50000 3.50293 -52.50000
v 26.25000 4.12776 -52.50000
v 30.00000 5.09671 -52.50000
v 33.75000 6.43733 -52.50000
v 37.50000 8.07486 -52.50000
v 41.25000 9.83328 -52.50000
v 45.00000 11.48448 -52.50000
v 48.75000 12.83080 -52.50000
v 52.50000 13.78243 -52.50000
v 56.25000 14.38982 -52.50000
v 60.00000 14.81635 -52.50000
v -60.00000 12.70766 -48.75000
v -56.25000 12.59946 -48.75000
v -52.50000 12.71520 -48.75000
v -48.75000 12.73096 -48.75000
v -45.00000 12.33419 -48.75000
v -41.25000 11.35670 -48.75000
v -37.50000 9.84211 -48.75000
v -33.75000 8.00901 -48.75000
v -30.00000 6.14020 -48.75000
v -26.25000 4.47075 -48.75000
v -22.50000 3.13161 -48.75000
v -18.75000 2.15638 -48.75000
v -15.00000 1.51996 -48.75000
v -11.25000 1.17412 -48.75000
v -7.50000 1.06431 -48.75000
v -3.75000 1.13205 -48.75000
v 0.00000 1.31430 -48.75000
v 3.75000 1.54791 -48.75000
v 7.50000 1.78111 -48.75000
v 11.25000 1.98924 -48.75000
v 15.00000 2.19003 -48.75000
v 18.75000 2.45239 -48.75000
v 22.50000 2.89145 -48.75000
v 26.25000 3.64283 -48.75000
v 30.00000 4.81448 -48.75000
v 33.75000 6.42712 -48.75000
v 37.50000 8.36982 -48.75000
v 41.25000 10.40303 -48.75000
v 45.00000 12.22504 -48.75000
v 48.75000 13.58212 -48.75000
v 52.50000 14.36992 -48.75000
v 56.25000 14.67251 -48.75000
v 60.00000 14.72031 -48.75000
v -60.00000 11.67048 -45.00000
v -56.25000 11.67240 -45.00000
v -52.50000 11.89926 -45.00000
v -48.75000 12.01008 -45.00000
v -45.00000 11.67733 -45.00000
v -41.25000 10.72664 -45.00000
v -37.50000 9.20720 -45.00000
v -33.75000 7.35194 -45.00000
v -30.00000 5.46004 -45.00000
v -26.25000 3.77850 -45.00000
v -22.50000 2.44277 -45.00000
v -18.75000 1.48431 -45.00000
v -15.00000 0.87221 -45.00000
v -11.25000 0.55163 -45.00000
v -7.50000 0.46253 -45.00000
v -3.75000 0.54293 -45.00000
v 0.00000 0.72844 -45.00000
v 3.75000 0.95655 -45.00000
v 7.50000 1.17797 -45.00000
v 11.25000 1.37284 -45.00000
v 15.00000 1.56717 -45.00000
v 18.75000 1.84312 -45.00000
v 22.50000 2.33403 -45.00000
v 26.25000 3.19514 -45.00000
v 30.00000 4.54697 -45.00000
v 33.75000 6.40423 -45.00000
v 37.50000 8.62273 -45.00000
v 41.25000 10.90418 -45.00000
v 45.00000 12.87875 -45.00000
v 48.75000 14.24076 -45.00000
v 52.50000 14.87235 -45.00000
v 56.25000 14.88866 -45.00000
v 60.00000 14.58218 -45.00000
v -60.00000 10.38339 -41.25000
v -56.25000 10.35307 -41.25000
v -52.50000 10.55112 -41.25000
v -48.75000 10.65359 -41.25000
v -45.00000 10.34772 -41.25000
v -41.25000 9.46486 -41.25000
v -37.50000 8.04798 -41.25000
v -33.75000 6.31472 -41.25000
v -30.00000 4.54677 -41.25000
v -26.25000 2.97782 -41.25000
v -22.50000 1.73698 -41.25000
v -18.75000 0.85508 -41.25000
v -15.00000 0.30302 -41.25000
v -11.25000 0.02764 -41.25000
v -7.50000 -0.03050 -41.25000
v -3.75000 0.06675 -41.25000
v 0.00000 0.25569 -41.25000
v 3.75000 0.47566 -41.25000
v 7.50000 0.68043 -41.25000
v 11.25000 0.85449 -41.25000
v 15.00000 1.03022 -41.25000
v 18.75000 1.29929 -41.25000
v 22.50000 1.80800 -41.25000
v 26.25000 2.72572 -41.25000
v 30.00000 4.18234 -41.25000
v 33.75000 6.18914 -41.25000
v 37.50000 8.57945 -41.25000
v 41.25000 11.01468 -41.25000
v 45.00000 13.07806 -41.25000
v 48.75000 14.42799 -41.25000
v 52.50000 14.93723 -41.25000
v 56.25000 14.74237 -41.25000
v 60.00000 14.17870 -41.25000
v -60.00000 8.92243 -37.50000
v -56.25000 8.73886 -37.50000
v -52.50000 8.78926 -37.50000
v -48.75000 8.79557 -37.50000
v -45.00000 8.48504 -37.50000
v -41.25000 7.70489 -37.50000
v -37.50000 6.48191 -37.50000
v -33.75000 4.99345 -37.50000
v -30.00000 3.47509 -37.50000
v -26.25000 2.12602 -37.50000
v -22.50000 1.05993 -37.50000
v -18.75000 0.30821 -37.50000
v -15.00000 -0.15019 -37.50000
v -11.25000 -0.36034 -37.50000
v -7.50000 -0.37657 -37.50000
v -3.75000 -0.25802 -37.50000
v 0.00000 -0.06609 -37.50000
v 3.75000 0.14161 -37.50000
v 7.50000 0.32254 -37.50000
v 11.25000 0.46477 -37.50000
v 15.00000 0.60396 -37.50000
v 18.75000 0.83534 -37.50000
v 22.50000 1.30981 -37.50000
v 26.25000 2.20203 -37.50000
v 30.00000 3.64615 -37.50000
v 33.75000 5.65392 -37.50000
v 37.50000 8.05321 -37.50000
v 41.25000 10.49433 -37.50000
v 45.00000 12.54701 -37.50000
v 48.75000 13.85919 -37.50000
v 52.50000 14.30083 -37.50000
v 56.25000 14.01461 -37.50000
v 60.00000 13.34821 -37.50000
v -60.00000 7.43863 -33.75000
v -56.25000 7.03499 -33.75000
v -52.50000 6.87223 -33.75000
v -48.75000 6.73408 -33.75000
v -45.00000 6.40175 -33.75000
v -41.25000 5.74392 -33.75000
v -37.50000 4.76588 -33.75000
v -33.75000 3.59110 -33.75000
v -30.00000 2.39363 -33.75000
v -26.25000 1.32677 -33.75000
v -22.50000 0.48409 -33.75000
v -18.75000 -0.10187 -33.75000
v -15.00000 -0.44132 -33.75000
v -11.25000 -0.57045 -33.75000
v -7.50000 -0.54611 -33.75000
v -3.75000 -0.41500 -33.75000
v 0.00000 -0.22672 -33.75000
v 3.75000 -0.03159 -33.75000
v 7.50000 0.12926 -33.75000
v 11.25000 0.23805 -33.75000
v 15.00000 0.32119 -33.75000
v 18.75000 0.47974 -33.75000
v 22.50000 0.86144 -33.75000
v 26.25000 1.63640 -33.75000
v 30.00000 2.93731 -33.75000
v 33.75000 4.78072 -33.75000
v 37.50000 7.00804 -33.75000
v 41.25000 9.29082 -33.75000
v 45.00000 11.22259 -33.75000
v 48.75000 12.46907 -33.75000
v 52.50000 12.90463 -33.75000
v 56.25000 12.66104 -33.75000
v 60.00000 12.06440 -33.75000
v -60.00000 6.09648 -30.00000
v -56.25000 5.46789 -30.00000
v -52.50000 5.08743 -30.00000
v -48.75000 4.80166 -30.00000
v -45.00000 4.44668 -30.00000
v -41.25000 3.91312 -30.00000
v -37.50000 3.18463 -30.00000
v -33.75000 2.33031 -30.00000
v -30.00000 1.46228 -30.00000
v -26.25000 0.68792 -30.00000
v -22.50000 0.08093 -30.00000
v -18.75000 -0.32818 -30.00000
v -15.00000 -0.56881 -30.00000
v -11.25000 -0.65749 -30.00000
v -7.50000 -0.61812 -30.00000
v -3.75000 -0.48777 -30.00000
v 0.00000 -0.31032 -30.00000
v 3.75000 -0.12975 -30.00000
v 7.50000 0.01759 -30.00000
v 11.25000 0.11390 -30.00000
v 15.00000 0.17494 -30.00000
v 18.75000 0.26416 -30.00000
v 22.50000 0.50553 -30.00000
v 26.25000 1.08549 -30.00000
v 30.00000 2.13363 -30.00000
v 33.75000 3.67504 -30.00000
v 37.50000 5.58023 -30.00000
v 41.25000 7.56884 -30.00000
v 45.00000 9.28885 -30.00000
v 48.75000 10.44703 -30.00000
v 52.50000 10.92806 -30.00000
v 56.25000 10.83862 -30.00000
v 60.00000 10.45513 -30.00000
v -60.00000 5.01558 -26.25000
v -56.25000 4.20307 -26.25000
v -52.50000 3.64553 -26.25000
v -48.75000 3.24227 -26.25000
v -45.00000 2.87549 -26.25000
v -41.25000 2.45438 -26.25000
v -37.50000 1.94468 -26.25000
v -33.75000 1.37044 -26.25000
v -30.00000 0.79259 -26.25000
v -26.25000 0.28111 -26.25000
v -22.50000 -0.11992 -26.25000
v -18.75000 -0.42123 -26.25000
v -15.00000 -0.59993 -26.25000
v -11.25000 -0.65292 -26.25000
v -7.50000 -0.59939 -26.25000
v -3.75000 -0.47278 -26.25000
v 0.00000 -0.31119 -26.25000
v 3.75000 -0.15073 -26.25000
v 7.50000 -0.02146 -26.25000
v 11.25000 0.05881 -26.25000
v 15.00000 0.09679 -26.25000
v 18.75000 0.13848 -26.25000
v 22.50000 0.27428 -26.25000
v 26.25000 0.62719 -26.25000
v 30.00000 1.35996 -26.25000
v 33.75000 2.52200 -26.25000
v 37.50000 4.02167 -26.25000
v 41.25000 5.64130 -26.25000
v 45.00000 7.10006 -26.25000
v 48.75000 8.15841 -26.25000
v 52.50000 8.71448 -26.25000
v 56.25000 8.84188 -26.25000
v 60.00000 8.75183 -26.25000
v -60.00000 4.24277 -22.50000
v -56.25000 3.30663 -22.50000
v -52.50000 2.63141 -22.50000
v -48.75000 2.15432 -22.50000
v -45.00000 1.79070 -22.50000
v -41.25000 1.46319 -22.50000
v -37.50000 1.12502 -22.50000
v -33.75000 0.76850 -22.50000
v -30.00000 0.41906 -22.50000
v -26.25000 0.10760 -22.50000
v -22.50000 -0.18391 -22.50000
v -18.75000 -0.41095 -22.50000
v -15.00000 -0.53893 -22.50000
v -11.25000 -0.56161 -22.50000
v -7.50000 -0.49790 -22.50000
v -3.75000 -0.37989 -22.50000
v 0.00000 -0.23985 -22.50000
v 3.75000 -0.10436 -22.50000
v 7.50000 0.00458 -22.50000
v 11.25000 0.06974 -22.50000
v 15.00000 0.08781 -22.50000
v 18.75000 0.08532 -22.50000
v 22.50000 0.12839 -22.50000
v 26.25000 0.31191 -22.50000
v 30.00000 0.73470 -22.50000
v 33.75000 1.50913 -22.50000
v 37.50000 2.59586 -22.50000
v 41.25000 3.84103 -22.50000
v 45.00000 5.03613 -22.50000
v 48.75000 5.99601 -22.50000
v 52.50000 6.63221 -22.50000
v 56.25000 6.98446 -22.50000
v 60.00000 7.19729 -22.50000
v -60.00000 3.75870 -18.75000
v -56.25000 2.75541 -18.75000
v -52.50000 2.01794 -18.75000
v -48.75000 1.50722 -18.75000
v -45.00000 1.15931 -18.75000
v -41.25000 0.90534 -18.75000
v -37.50000 0.69104 -18.75000
v -33.75000 0.48969 -18.75000
v -30.00000 0.30283 -18.75000
v -26.25000 0.08445 -18.75000
v -22.50000 -0.14261 -18.75000
v -18.75000 -0.32068 -18.75000
v -15.00000 -0.41306 -18.75000
v -11.25000 -0.41477 -18.75000
v -7.50000 -0.34800 -18.75000
v -3.75000 -0.24511 -18.75000
v 0.00000 -0.13220 -18.75000
v 3.75000 -0.02478 -18.75000
v 7.50000 0.06482 -18.75000
v 11.25000 0.12063 -18.75000
v 15.00000 0.12915 -18.75000
v 18.75000 0.09735 -18.75000
v 22.50000 0.06803 -18.75000
v 26.25000 0.11600 -18.75000
v 30.00000 0.31977 -18.75000
v 33.75000 0.75627 -18.75000
v 37.50000 1.48261 -18.75000
v 41.25000 2.40255 -18.75000
v 45.00000 3.36898 -18.75000
v 48.75000 4.24276 -18.75000
v 52.50000 4.94637 -18.75000
v 56.25000 5.49020 -18.75000
v 60.00000 5.96159 -18.75000
v -60.00000 3.50394 -15.00000
v -56.25000 2.47436 -15.00000
v -52.50000 1.71440 -15.00000
v -48.75000 1.19794 -15.00000
v -45.00000 0.87244 -15.00000
v -41.25000 0.67374 -15.00000
v -37.50000 0.54373 -15.00000
v -33.75000 0.44606 -15.00000
v -30.00000 0.33721 -15.00000
v -26.25000 0.15768 -15.00000
v -22.50000 -0.03825 -15.00000
v -18.75000 -0.19120 -15.00000
v -15.00000 -0.26460 -15.00000
v -11.25000 -0.25740 -15.00000
v -7.50000 -0.19676 -15.00000
v -3.75000 -0.11594 -15.00000
v 0.00000 -0.03437 -15.00000
v 3.75000 0.04448 -15.00000
v 7.50000 0.11868 -15.00000
v 11.25000 0.17383 -15.00000
v 15.00000 0.18643 -15.00000
v 18.75000 0.14497 -15.00000
v 22.50000 0.07165 -15.00000
v 26.25000 0.02512 -15.00000
v 30.00000 0.07800 -15.00000
v 33.75000 0.28389 -15.00000
v 37.50000 0.73360 -15.00000
v 41.25000 1.40631 -15.00000
v 45.00000 2.19956 -15.00000
v 48.75000 3.00715 -15.00000
v 52.50000 3.75884 -15.00000
v 56.25000 4.44274 -15.00000
v 60.00000 5.10364 -15.00000
v -60.00000 3.40729 -11.25000
v -56.25000 2.37545 -11.25000
v -52.50000 1.61576 -11.25000
v -48.75000 1.10820 -11.25000
v -45.00000 0.80559 -11.25000
v -41.25000 0.64609 -11.25000
v -37.50000 0.57008 -11.25000
v -33.75000 0.53572 -11.25000
v -30.00000 0.44361 -11.25000
v -26.25000 0.27323 -11.25000
v -22.50000 0.08393 -11.25000
v -18.75000 -0.06334 -11.25000
v -15.00000 -0.13310 -11.25000
v -11.25000 -0.12887 -11.25000
v -7.50000 -0.08296 -11.25000
v -3.75000 -0.02919 -11.25000
v 0.00000 0.01979 -11.25000
v 3.75000 0.07230 -11.25000
v 7.50000 0.13621 -11.25000
v 11.25000 0.19821 -11.25000
v 15.00000 0.22521 -11.25000
v 18.75000 0.18915 -11.25000
v 22.50000 0.09537 -11.25000
v 26.25000 -0.00868 -11.25000
v 30.00000 -0.05248 -11.25000
v 33.75000 0.02235 -11.25000
v 37.50000 0.28511 -11.25000
v 41.25000 0.79360 -11.25000
v 45.00000 1.47435 -11.25000
v 48.75000 2.24057 -11.25000
v 52.50000 3.02505 -11.25000
v 56.25000 3.80058 -11.25000
v 60.00000 4.58410 -11.25000
v -60.00000 3.40671 -7.50000
v -56.25000 2.38475 -7.50000
v -52.50000 1.63585 -7.50000
v -48.75000 1.14193 -7.50000
v -45.00000 0.85777 -7.50000
v -41.25000 0.72260 -7.50000
v -37.50000 0.67670 -7.50000
v -33.75000 0.66573 -7.50000
v -30.00000 0.56716 -7.50000
v -26.25000 0.38840 -7.50000
v -22.50000 0.19063 -7.50000
v -18.75000 0.03619 -7.50000
v -15.00000 -0.04064 -7.50000
v -11.25000 -0.04740 -7.50000
v -7.50000 -0.02053 -7.50000
v -3.75000 0.00599 -7.50000
v 0.00000 0.02549 -7.50000
v 3.75000 0.05605 -7.50000
v 7.50000 0.11311 -7.50000
v 11.25000 0.18328 -7.50000
v 15.00000 0.22457 -7.50000
v 18.75000 0.19526 -7.50000
v 22.50000 0.08869 -7.50000
v 26.25000 -0.05327 -7.50000
v 30.00000 -0.15763 -7.50000
v 33.75000 -0.15669 -7.50000
v 37.50000 0.00531 -7.50000
v 41.25000 0.42364 -7.50000
v 45.00000 1.04940 -7.50000
v 48.75000 1.80302 -7.50000
v 52.50000 2.61597 -7.50000
v 56.25000 3.45073 -7.50000
v 60.00000 4.30818 -7.50000
v -60.00000 3.46231 -3.75000
v -56.25000 2.45741 -3.75000
v -52.50000 1.72400 -3.75000
v -48.75000 1.24318 -3.75000
v -45.00000 0.96968 -3.75000
v -41.25000 0.84339 -3.75000
v -37.50000 0.80587 -3.75000
v -33.75000 0.79141 -3.75000
v -30.00000 0.67553 -3.75000
v -26.25000 0.47943 -3.75000
v -22.50000 0.26619 -3.75000
v -18.75000 0.09904 -3.75000
v -15.00000 0.01114 -3.75000
v -11.25000 -0.00800 -3.75000
v -7.50000 0.00228 -3.75000
v -3.75000 0.00783 -3.75000
v 0.00000 0.00575 -3.75000
v 3.75000 0.01997 -3.75000
v 7.50000 0.06973 -3.75000
v 11.25000 0.13977 -3.75000
v 15.00000 0.18047 -3.75000
v 18.75000 0.14061 -3.75000
v 22.50000 0.00747 -3.75000
v 26.25000 -0.17600 -3.75000
v 30.00000 -0.32887 -3.75000
v 33.75000 -0.37208 -3.75000
v 37.50000 -0.25148 -3.75000
v 41.25000 0.13780 -3.75000
v 45.00000 0.76074 -3.75000
v 48.75000 1.53459 -3.75000
v 52.50000 2.38483 -3.75000
v 56.25000 3.26620 -3.75000
v 60.00000 4.17145 -3.75000
v -60.00000 3.56397 0.00000
v -56.25000 2.58483 0.00000
v -52.50000 1.87174 0.00000
v -48.75000 1.40220 0.00000
v -45.00000 1.12928 0.00000
v -41.25000 0.99380 0.00000
v -37.50000 0.94049 0.00000
v -33.75000 0.90260 0.00000
v -30.00000 0.76030 0.00000
v -26.25000 0.54103 0.00000
v -22.50000 0.30951 0.00000
v -18.75000 0.12908 0.00000
v -15.00000 0.03169 0.00000
v -11.25000 0.00478 0.00000
v -7.50000 0.00709 0.00000
v -3.75000 0.00355 0.00000
v 0.00000 -0.00844 0.00000
v 3.75000 -0.00448 0.00000
v 7.50000 0.03352 0.00000
v 11.25000 0.08635 0.00000
v 15.00000 0.09864 0.00000
v 18.75000 0.01473 0.00000
v 22.50000 -0.17718 0.00000
v 26.25000 -0.42567 0.00000
v 30.00000 -0.63562 0.00000
v 33.75000 -0.71342 0.00000
v 37.50000 -0.59940 0.00000
v 41.25000 -0.18971 0.00000
v 45.00000 0.47740 0.00000
v 48.75000 1.30714 0.00000
v 52.50000 2.21411 0.00000
v 56.25000 3.14582 0.00000
v 60.00000 4.09160 0.00000
v -60.00000 3.73423 3.75000
v -56.25000 2.79655 3.75000
v -52.50000 2.11344 3.75000
v -48.75000 1.65496 3.75000
v -45.00000 1.37066 3.75000
v -41.25000 1.20303 3.75000
v -37.50000 1.10300 3.75000
v -33.75000 1.01754 3.75000
v -30.00000 0.83407 3.75000
v -26.25000 0.58182 3.75000
v -22.50000 0.32709 3.75000
v -18.75000 0.13238 3.75000
v -15.00000 0.02789 3.75000
v -11.25000 -0.00048 3.75000
v -7.50000 0.00460 3.75000
v -3.75000 0.00593 3.75000
v 0.00000 -0.00284 3.75000
v 3.75000 -0.00283 3.75000
v 7.50000 0.01761 3.75000
v 11.25000 0.03328 3.75000
v 15.00000 -0.01492 3.75000
v 18.75000 -0.18172 3.75000
v 22.50000 -0.47102 3.75000
v 26.25000 -0.81597 3.75000
v 30.00000 -1.10139 3.75000
v 33.75000 -1.20000 3.75000
v 37.50000 -1.08819 3.75000
v 41.25000 -0.61925 3.75000
v 45.00000 0.13183 3.75000
v 48.75000 1.05119 3.75000
v 52.50000 2.03820 3.75000
v 56.25000 3.03256 3.75000
v 60.00000 4.02269 3.75000
v -60.00000 4.02449 7.50000
v -56.25000 3.15439 7.50000
v -52.50000 2.51864 7.50000
v -48.75000 2.07442 7.50000
v -45.00000 1.76504 7.50000
v -41.25000 1.53583 7.50000
v -37.50000 1.34834 7.50000
v -33.75000 1.17687 7.50000
v -30.00000 0.92562 7.50000
v -26.25000 0.62002 7.50000
v -22.50000 0.32851 7.50000
v -18.75000 0.11177 7.50000
v -15.00000 -0.00260 7.50000
v -11.25000 -0.03021 7.50000
v -7.50000 -0.01491 7.50000
v -3.75000 0.00275 7.50000
v 0.00000 0.00899 7.50000
v 3.75000 0.01187 7.50000
v 7.50000 0.01192 7.50000
v 11.25000 -0.02376 7.50000
v 15.00000 -0.15595 7.50000
v 18.75000 -0.43390 7.50000
v 22.50000 -0.84831 7.50000
v 26.25000 -1.20000 7.50000
v 30.00000 -1.20000 7.50000
v 33.75000 -1.20000 7.50000
v 37.50000 -1.20000 7.50000
v 41.25000 -1.13106 7.50000
v 45.00000 -0.26946 7.50000
v 48.75000 0.76270 7.50000
v 52.50000 1.84717 7.50000
v 56.25000 2.91547 7.50000
v 60.00000 3.95630 7.50000
v -60.00000 4.50076 11.25000
v -56.25000 3.73482 11.25000
v -52.50000 3.17180 11.25000
v -48.75000 2.74878 11.25000
v -45.00000 2.39932 11.25000
v -41.25000 2.07301 11.25000
v -37.50000 1.74783 11.25000
v -33.75000 1.43199 11.25000
v -30.00000 1.07246 11.25000
v -26.25000 0.68000 11.25000
v -22.50000 0.32644 11.25000
v -18.75000 0.06984 11.25000
v -15.00000 -0.06588 11.25000
v -11.25000 -0.09826 11.25000
v -7.50000 -0.07227 11.25000
v -3.75000 -0.03264 11.25000
v 0.00000 -0.00302 11.25000
v 3.75000 0.01020 11.25000
v 7.50000 -0.00656 11.25000
v 11.25000 -0.09463 11.25000
v 15.00000 -0.31474 11.25000
v 18.75000 -0.70760 11.25000
v 22.50000 -1.20000 11.25000
v 26.25000 -1.20000 11.25000
v 30.00000 -1.20000 11.25000
v 33.75000 -1.20000 11.25000
v 37.50000 -1.20000 11.25000
v 41.25000 -1.20000 11.25000
v 45.00000 -0.65480 11.25000
v 48.75000 0.49341 11.25000
v 52.50000 1.67733 11.25000
v 56.25000 2.82119 11.25000
v 60.00000 3.91452 11.25000
v -60.00000 5.21848 15.00000
v -56.25000 4.59856 15.00000
v -52.50000 4.13779 15.00000
v -48.75000 3.74519 15.00000
v -45.00000 3.34058 15.00000
v -41.25000 2.87941 15.00000
v -37.50000 2.36238 15.00000
v -33.75000 1.82990 15.00000
v -30.00000 1.30899 15.00000
v -26.25000 0.78734 15.00000
v -22.50000 0.33806 15.00000
v -18.75000 0.01610 15.00000
v -15.00000 -0.15957 15.00000
v -11.25000 -0.20912 15.00000
v -7.50000 -0.17890 15.00000
v -3.75000 -0.11801 15.00000
v 0.00000 -0.06087 15.00000
v 3.75000 -0.02959 15.00000
v 7.50000 -0.05262 15.00000
v 11.25000 -0.17911 15.00000
v 15.00000 -0.46797 15.00000
v 18.75000 -0.95008 15.00000
v 22.50000 -1.20000 15.00000
v 26.25000 -1.20000 15.00000
v 30.00000 -1.20000 15.00000
v 33.75000 -1.20000 15.00000
v 37.50000 -1.20000 15.00000
v 41.25000 -1.20000 15.00000
v 45.00000 -0.91632 15.00000
v 48.75000 0.32666 15.00000
v 52.50000 1.59187 15.00000
v 56.25000 2.79897 15.00000
v 60.00000 3.93835 15.00000
v -60.00000 6.19210 18.75000
v -56.25000 5.75408 18.75000
v -52.50000 5.42092 18.75000
v -48.75000 5.06664 18.75000
v -45.00000 4.59397 18.75000
v -41.25000 3.96544 18.75000
v -37.50000 3.20997 18.75000
v -33.75000 2.40610 18.75000
v -30.00000 1.65045 18.75000
v -26.25000 0.96008 18.75000
v -22.50000 0.38277 18.75000
v -18.75000 -0.02987 18.75000
v -15.00000 -0.26486 18.75000
v -11.25000 -0.34598 18.75000
v -7.50000 -0.32130 18.75000
v -3.75000 -0.24411 18.75000
v 0.00000 -0.15904 18.75000
v 3.75000 -0.10296 18.75000
v 7.50000 -0.11769 18.75000
v 11.25000 -0.25814 18.75000
v 15.00000 -0.57960 18.75000
v 18.75000 -1.10320 18.75000
v 22.50000 -1.20000 18.75000
v 26.25000 -1.20000 18.75000
v 30.00000 -1.20000 18.75000
v 33.75000 -1.20000 18.75000
v 37.50000 -1.20000 18.75000
v 41.25000 -1.20000 18.75000
v 45.00000 -0.95215 18.75000
v 48.75000 0.34443 18.75000
v 52.50000 1.65623 18.75000
v 56.25000 2.90243 18.75000
v 60.00000 4.07412 18.75000
v -60.00000 7.37193 22.50000
v -56.25000 7.13059 22.50000
v -52.50000 6.93482 22.50000
v -48.75000 6.62051 22.50000
v -45.00000 6.07165 22.50000
v -41.25000 5.25842 22.50000
v -37.50000 4.24050 22.50000
v -33.75000 3.13816 22.50000
v -30.00000 2.08918 22.50000
v -26.25000 1.19772 22.50000
v -22.50000 0.47436 22.50000
v -18.75000 -0.04376 22.50000
v -15.00000 -0.35018 22.50000
v -11.25000 -0.47295 22.50000
v -7.50000 -0.46212 22.50000
v -3.75000 -0.37465 22.50000
v 0.00000 -0.26377 22.50000
v 3.75000 -0.17861 22.50000
v 7.50000 -0.17125 22.50000
v 11.25000 -0.29947 22.50000
v 15.00000 -0.61313 22.50000
v 18.75000 -1.12457 22.50000
v 22.50000 -1.20000 22.50000
v 26.25000 -1.20000 22.50000
v 30.00000 -1.20000 22.50000
v 33.75000 -1.20000 22.50000
v 37.50000 -1.20000 22.50000
v 41.25000 -1.20000 22.50000
v 45.00000 -0.70488 22.50000
v 48.75000 0.59760 22.50000
v 52.50000 1.91594 22.50000
v 56.25000 3.17324 22.50000
v 60.00000 4.36099 22.50000
v -60.00000 8.64301 26.25000
v -56.25000 8.57824 26.25000
v -52.50000 8.50377 26.25000
v -48.75000 8.22014 26.25000
v -45.00000 7.59396 26.25000
v -41.25000 6.60248 26.25000
v -37.50000 5.33385 26.25000
v -33.75000 3.94713 26.25000
v -30.00000 2.61570 26.25000
v -26.25000 1.48032 26.25000
v -22.50000 0.61201 26.25000
v -18.75000 -0.00778 26.25000
v -15.00000 -0.38447 26.25000
v -11.25000 -0.55012 26.25000
v -7.50000 -0.55646 26.25000
v -3.75000 -0.46317 26.25000
v 0.00000 -0.32994 26.25000
v 3.75000 -0.21486 26.25000
v 7.50000 -0.17671 26.25000
v 11.25000 -0.27315 26.25000
v 15.00000 -0.54736 26.25000
v 18.75000 -1.00413 26.25000
v 22.50000 -1.20000 26.25000
v 26.25000 -1.20000 26.25000
v 30.00000 -1.20000 26.25000
v 33.75000 -1.20000 26.25000
v 37.50000 -1.20000 26.25000
v 41.25000 -1.20000 26.25000
v 45.00000 -0.17790 26.25000
v 48.75000 1.09220 26.25000
v 52.50000 2.38515 26.25000
v 56.25000 3.63137 26.25000
v 60.00000 4.82242 26.25000
v -60.00000 9.85349 30.00000
v -56.25000 9.90470 30.00000
v -52.50000 9.90528 30.00000
v -48.75000 9.63014 30.00000
v -45.00000 8.93328 30.00000
v -41.25000 7.79701 30.00000
v -37.50000 6.33010 30.00000
v -33.75000 4.71976 30.00000
v -30.00000 3.16526 30.00000
v -26.25000 1.82420 30.00000
v -22.50000 0.78790 30.00000
v -18.75000 0.08000 30.00000
v -15.00000 -0.35123 30.00000
v -11.25000 -0.55124 30.00000
v -7.50000 -0.57219 30.00000
v -3.75000 -0.47493 30.00000
v 0.00000 -0.32320 30.00000
v 3.75000 -0.18079 30.00000
v 7.50000 -0.10994 30.00000
v 11.25000 -0.16609 30.00000
v 15.00000 -0.38531 30.00000
v 18.75000 -0.76624 30.00000
v 22.50000 -1.20000 30.00000
v 26.25000 -1.20000 30.00000
v 30.00000 -1.20000 30.00000
v 33.75000 -1.20000 30.00000
v 37.50000 -1.20000 30.00000
v 41.25000 -0.50531 30.00000
v 45.00000 0.57622 30.00000
v 48.75000 1.79588 30.00000
v 52.50000 3.04875 30.00000
v 56.25000 4.27407 30.00000
v 60.00000 5.46320 30.00000
v -60.00000 10.86475 33.75000
v -56.25000 10.93826 33.75000
v -52.50000 10.94303 33.75000
v -48.75000 10.64367 33.75000
v -45.00000 9.88910 33.75000
v -41.25000 8.66358 33.75000
v -37.50000 7.08403 33.75000
v -33.75000 5.34874 33.75000
v -30.00000 3.66714 33.75000
v -26.25000 2.20339 33.75000
v -22.50000 1.05169 33.75000
v -18.75000 0.24013 33.75000
v -15.00000 -0.25136 33.75000
v -11.25000 -0.47409 33.75000
v -7.50000 -0.50269 33.75000
v -3.75000 -0.40104 33.75000
v 0.00000 -0.23445 33.75000
v 3.75000 -0.06965 33.75000
v 7.50000 0.03000 33.75000
v 11.25000 0.01229 33.75000
v 15.00000 -0.14837 33.75000
v 18.75000 -0.42130 33.75000
v 22.50000 -0.73873 33.75000
v 26.25000 -0.99708 33.75000
v 30.00000 -1.07851 33.75000
v 33.75000 -0.88536 33.75000
v 37.50000 -0.37178 33.75000
v 41.25000 0.44273 33.75000
v 45.00000 1.48482 33.75000
v 48.75000 2.65744 33.75000
v 52.50000 3.87373 33.75000
v 56.25000 5.08132 33.75000
v 60.00000 6.27129 33.75000
v -60.00000 11.60186 37.50000
v -56.25000 11.59051 37.50000
v -52.50000 11.51865 37.50000
v -48.75000 11.15836 37.50000
v -45.00000 10.36215 37.50000
v -41.25000 9.11262 37.50000
v -37.50000 7.52036 37.50000
v -33.75000 5.77501 37.50000
v -30.00000 4.07771 37.50000
v -26.25000 2.58700 37.50000
v -22.50000 1.39531 37.50000
v -18.75000 0.53311 37.50000
v -15.00000 -0.01356 37.50000
v -11.25000 -0.28585 37.50000
v -7.50000 -0.34088 37.50000
v -3.75000 -0.24527 37.50000
v 0.00000 -0.07023 37.50000
v 3.75000 0.11442 37.50000
v 7.50000 0.24793 37.50000
v 11.25000 0.28786 37.50000
v 15.00000 0.22001 37.50000
v 18.75000 0.06630 37.50000
v 22.50000 -0.11363 37.50000
v 26.25000 -0.23119 37.50000
v 30.00000 -0.18918 37.50000
v 33.75000 0.09127 37.50000
v 37.50000 0.64710 37.50000
v 41.25000 1.46356 37.50000
v 45.00000 2.48277 37.50000
v 48.75000 3.62632 37.50000
v 52.50000 4.82184 37.50000
v 56.25000 6.02362 37.50000
v 60.00000 7.22246 37.50000
v -60.00000 12.07988 41.25000
v -56.25000 11.88799 41.25000
v -52.50000 11.66756 41.25000
v -48.75000 11.21405 41.25000
v -45.00000 10.39131 41.25000
v -41.25000 9.17703 41.25000
v -37.50000 7.66255 41.25000
v -33.75000 6.01100 41.25000
v -30.00000 4.39863 41.25000
v -26.25000 2.96726 41.25000
v -22.50000 1.80319 41.25000
v -18.75000 0.94015 41.25000
v -15.00000 0.37344 41.25000
v -11.25000 0.07356 41.25000
v -7.50000 -0.00580 41.25000
v -3.75000 0.07654 41.25000
v 0.00000 0.25353 41.25000
v 3.75000 0.45665 41.25000
v 7.50000 0.62552 41.25000
v 11.25000 0.71872 41.25000
v 15.00000 0.72358 41.25000
v 18.75000 0.66183 41.25000
v 22.50000 0.58831 41.25000
v 26.25000 0.58081 41.25000
v 30.00000 0.72185 41.25000
v 33.75000 1.07690 41.25000
v 37.50000 1.67642 41.25000
v 41.25000 2.50867 41.25000
v 45.00000 3.52624 41.25000
v 48.75000 4.66353 41.25000
v 52.50000 5.85807 41.25000
v 56.25000 7.06870 41.25000
v 60.00000 8.28598 41.25000
v -60.00000 12.39366 45.00000
v -56.25000 11.95787 45.00000
v -52.50000 11.54145 45.00000
v -48.75000 10.97380 45.00000
v -45.00000 10.13536 45.00000
v -41.25000 8.99674 45.00000
v -37.50000 7.62135 45.00000
v -33.75000 6.13399 45.00000
v -30.00000 4.67492 45.00000
v -26.25000 3.36177 45.00000
v -22.50000 2.27181 45.00000
v -18.75000 1.44244 45.00000
v -15.00000 0.88029 45.00000
v -11.25000 0.56947 45.00000
v -7.50000 0.47578 45.00000
v -3.75000 0.54906 45.00000
v 0.00000 0.72709 45.00000
v 3.75000 0.94339 45.00000
v 7.50000 1.13834 45.00000
v 11.25000 1.27129 45.00000
v 15.00000 1.33033 45.00000
v 18.75000 1.33681 45.00000
v 22.50000 1.34225 45.00000
v 26.25000 1.41749 45.00000
v 30.00000 1.63570 45.00000
v 33.75000 2.05382 45.00000
v 37.50000 2.69801 45.00000
v 41.25000 3.55802 45.00000
v 45.00000 4.59255 45.00000
v 48.75000 5.74353 45.00000
v 52.50000 6.95434 45.00000
v 56.25000 8.18651 45.00000
v 60.00000 9.43041 45.00000
v -60.00000 12.67874 48.75000
v -56.25000 11.97718 48.75000
v -52.50000 11.34873 48.75000
v -48.75000 10.66049 48.75000
v -45.00000 9.81134 48.75000
v -41.25000 8.76409 48.75000
v -37.50000 7.55121 48.75000
v -33.75000 6.25502 48.75000
v -30.00000 4.97589 48.75000
v -26.25000 3.80470 48.75000
v -22.50000 2.80856 48.75000
v -18.75000 2.02865 48.75000
v -15.00000 1.48330 48.75000
v -11.25000 1.17052 48.75000
v -7.50000 1.06825 48.75000
v -3.75000 1.13489 48.75000
v 0.00000 1.31318 48.75000
v 3.75000 1.53892 48.75000
v 7.50000 1.75336 48.75000
v 11.25000 1.91625 48.75000
v 15.00000 2.01591 48.75000
v 18.75000 2.07311 48.75000
v 22.50000 2.13719 48.75000
v 26.25000 2.27479 48.75000
v 30.00000 2.55362 48.75000
v 33.75000 3.02565 48.75000
v 37.50000 3.71431 48.75000
v 41.25000 4.60983 48.75000
v 45.00000 5.67387 48.75000
v 48.75000 6.85215 48.75000
v 52.50000 8.09103 48.75000
v 56.25000 9.35335 48.75000
v 60.00000 10.62933 48.75000
v -60.00000 13.06495 52.50000
v -56.25000 12.11315 52.50000
v -52.50000 11.28487 52.50000
v -48.75000 10.48256 52.50000
v -45.00000 9.62236 52.50000
v -41.25000 8.65984 52.50000
v -37.50000 7.59860 52.50000
v -33.75000 6.48130 52.50000
v -30.00000 5.37109 52.50000
v -26.25000 4.33390 52.50000
v -22.50000 3.42738 52.50000
v -18.75000 2.69610 52.50000
v -15.00000 2.16908 52.50000
v -11.25000 1.85686 52.50000
v -7.50000 1.74823 52.50000
v -3.75000 1.80923 52.50000
v 0.00000 1.98711 52.50000
v 3.75000 2.21981 52.50000
v 7.50000 2.44933 52.50000
v 11.25000 2.63562 52.50000
v 15.00000 2.76685 52.50000
v 18.75000 2.86316 52.50000
v 22.50000 2.97242 52.50000
v 26.25000 3.15880 52.50000
v 30.00000 3.48697 52.50000
v 33.75000 4.00605 52.50000
v 37.50000 4.73783 52.50000
v 41.25000 5.67237 52.50000
v 45.00000 6.77246 52.50000
v 48.75000 7.98536 52.50000
v 52.50000 9.25868 52.50000
v 56.25000 10.55576 52.50000
v 60.00000 11.86664 52.50000
v -60.00000 13.64445 56.25000
v -56.25000 12.48212 56.25000
v -52.50000 11.48454 56.25000
v -48.75000 10.58305 56.25000
v -45.00000 9.70799 56.25000
v -41.25000 8.80907 56.25000
v -37.50000 7.86639 56.25000
v -33.75000 6.89027 56.25000
v -30.00000 5.91354 56.25000
v -26.25000 4.98184 56.25000
v -22.50000 4.14518 56.25000
v -18.75000 3.45092 56.25000
v -15.00000 2.93679 56.25000
v -11.25000 2.62346 56.25000
v -7.50000 2.50843 56.25000
v -3.75000 2.56392 56.25000
v 0.00000 2.74081 56.25000
v 3.75000 2.97880 56.25000
v 7.50000 3.22052 56.25000
v 11.25000 3.42595 56.25000
v 15.00000 3.58294 56.25000
v 18.75000 3.71101 56.25000
v 22.50000 3.85698 56.25000
v 26.25000 4.08354 56.25000
v 30.00000 4.45360 56.25000
v 33.75000 5.01466 56.25000
v 37.50000 5.78738 56.25000
v 41.25000 6.76143 56.25000
v 45.00000 7.89975 56.25000
v 48.75000 9.15004 56.25000
v 52.50000 10.46022 56.25000
v 56.25000 11.79371 56.25000
v 60.00000 13.14040 56.25000
v -60.00000 14.46390 60.00000
v -56.25000 13.13945 60.00000
v -52.50000 12.00964 60.00000
v -48.75000 11.02688 60.00000
v -45.00000 10.13193 60.00000
v -41.25000 9.27032 60.00000
v -37.50000 8.40515 60.00000
v -33.75000 7.52335 60.00000
v -30.00000 6.63582 60.00000
v -26.25000 5.77356 60.00000
v -22.50000 4.98117 60.00000
v -18.75000 4.30817 60.00000
v -15.00000 3.79867 60.00000
v -11.25000 3.48076 60.00000
v -7.50000 3.35831 60.00000
v -3.75000 3.40802 60.00000
v 0.00000 3.58345 60.00000
v 3.75000 3.82562 60.00000
v 7.50000 4.07759 60.00000
v 11.25000 4.29927 60.00000
v 15.00000 4.47817 60.00000
v 18.75000 4.63325 60.00000
v 22.50000 4.81053 60.00000
v 26.25000 5.07170 60.00000
v 30.00000 5.47859 60.00000
v 33.75000 6.07766 60.00000
v 37.50000 6.88877 60.00000
v 41.25000 7.90108 60.00000
v 45.00000 9.07733 60.00000
v 48.75000 10.36510 60.00000
v 52.50000 11.71225 60.00000
v 56.25000 13.08208 60.00000
v 60.00000 14.46429 60.00000
usemtl rock
f 1 2 35 34
f 2 3 36 35
f 3 4 37 36
f 4 5 38 37
f 5 6 39 38
f 6 7 40 39
usemtl highland
f 7 8 41 40
f 8 9 42 41
f 9 10 43 42
f 10 11 44 43
f 11 12 45 44
usemtl grass
f 12 13 46 45
usemtl grass_light
f 13 14 47 46
usemtl grass
f 14 15 48 47
f 15 16 49 48
usemtl grass_light
f 16 17 50 49
usemtl grass
f 17 18 51 50
f 18 19 52 51
usemtl grass_light
f 19 20 53 52
usemtl grass
f 20 21 54 53
usemtl highland
f 21 22 55 54
f 22 23 56 55
f 23 24 57 56
f 24 25 58 57
f 25 26 59 58
f 26 27 60 59
f 27 28 61 60
usemtl rock
f 28 29 62 61
f 29 30 63 62
f 30 31 64 63
f 31 32 65 64
f 32 33 66 65
f 34 35 68 67
f 35 36 69 68
f 36 37 70 69
f 37 38 71 70
f 38 39 72 71
f 39 40 73 72
usemtl highland
f 40 41 74 73
f 41 42 75 74
f 42 43 76 75
f 43 44 77 76
usemtl grass
f 44 45 78 77
usemtl grass_light
f 45 46 79 78
usemtl grass
f 46 47 80 79
f 47 48 81 80
usemtl grass_light
f 48 49 82 81
usemtl grass
f 49 50 83 82
f 50 51 84 83
usemtl grass_light
f 51 52 85 84
usemtl grass
f 52 53 86 85
f 53 54 87 86
usemtl grass_light
f 54 55 88 87
usemtl grass
f 55 56 89 88
usemtl highland
f 56 57 90 89
f 57 58 91 90
f 58 59 92 91
f 59 60 93 92
f 60 61 94 93
usemtl rock
f 61 62 95 94
f 62 63 96 95
f 63 64 97 96
f 64 65 98 97
f 65 66 99 98
f 67 68 101 100
f 68 69 102 101
f 69 70 103 102
f 70 71 104 103
f 71 72 105 104
f 72 73 106 105
usemtl highland
f 73 74 107 106
f 74 75 108 107
f 75 76 109 108
f 76 77 110 109
usemtl grass_light
f 77 78 111 110
usemtl grass
f 78 79 112 111
f 79 80 113 112
usemtl grass_light
f 80 81 114 113
usemtl grass
f 81 82 115 114
f 82 83 116 115
usemtl grass_light
f 83 84 117 116
usemtl grass
f 84 85 118 117
f 85 86 119 118
usemtl grass_light
f 86 87 120 119
usemtl grass
f 87 88 121 120
f 88 89 122 121
usemtl grass_light
f 89 90 123 122
usemtl highland
f 90 91 124 123
f 91 92 125 124
f 92 93 126 125
f 93 94 127 126
usemtl rock
f 94 95 128 127
f 95 96 129 128
f 96 97 130 129
f 97 98 131 130
f 98 99 132 131
f 100 101 134 133
f 101 102 135 134
f 102 103 136 135
f 103 104 137 136
f 104 105 138 137
f 105 106 139 138
usemtl highland
f 106 107 140 139
f 107 108 141 140
f 108 109 142 141
usemtl grass_light
f 109 110 143 142
usemtl grass
f 110 111 144 143
f 111 112 145 144
usemtl grass_light
f 112 113 146 145
usemtl grass
f 113 114 147 146
f 114 115 148 147
usemtl grass_light
f 115 116 149 148
usemtl grass
f 116 117 150 149
f 117 118 151 150
usemtl grass_light
f 118 119 152 151
usemtl grass
f 119 120 153 152
f 120 121 154 153
usemtl grass_light
f 121 122 155 154
usemtl grass
f 122 123 156 155
f 123 124 157 156
usemtl highland
f 124 125 158 157
f 125 126 159 158
f 126 127 160 159
usemtl rock
f 127 128 161 160
f 128 129 162 161
f 129 130 163 162
f 130 131 164 163
f 131 132 165 164
f 133 134 167 166
f 134 135 168 167
f 135 136 169 168
f 136 137 170 169
f 137 138 171 170
usemtl highland
f 138 139 172 171
f 139 140 173 172
f 140 141 174 173
f 141 142 175 174
usemtl grass
f 142 143 176 175
f 143 144 177 176
usemtl grass_light
f 144 145 178 177
usemtl grass
f 145 146 179 178
f 146 147 180 179
usemtl grass_light
f 147 148 181 180
usemtl grass
f 148 149 182 181
f 149 150 183 182
usemtl grass_light
f 150 151 184 183
usemtl grass
f 151 152 185 184
f 152 153 186 185
usemtl grass_light
f 153 154 187 186
usemtl grass
f 154 155 188 187
f 155 156 189 188
usemtl grass_light
f 156 157 190 189
usemtl highland
f 157 158 191 190
f 158 159 192 191
f 159 160 193 192
usemtl rock
f 160 161 194 193
f 161 162 195 194
f 162 163 196 195
f 163 164 197 196
f 164 165 198 197
usemtl highland
f 166 167 200 199
f 167 168 201 200
f 168 169 202 201
f 169 170 203 202
f 170 171 204 203
f 171 172 205 204
f 172 173 206 205
f 173 174 207 206
usemtl grass
f 174 175 208 207
f 175 176 209 208
usemtl grass_light
f 176 177 210 209
usemtl grass
f 177 178 211 210
f 178 179 212 211
usemtl grass_light
f 179 180 213 212
usemtl grass
f 180 181 214 213
f 181 182 215 214
usemtl grass_light
f 182 183 216 215
usemtl grass
f 183 184 217 216
f 184 185 218 217
usemtl grass_light
f 185 186 219 218
usemtl grass
f 186 187 220 219
f 187 188 221 220
usemtl grass_light
f 188 189 222 221
usemtl grass
f 189 190 223 222
usemtl highland
f 190 191 224 223
f 191 192 225 224
f 192 193 226 225
usemtl rock
f 193 194 227 226
f 194 195 228 227
f 195 196 229 228
f 196 197 230 229
f 197 198 231 230
usemtl highland
f 199 200 233 232
f 200 201 234 233
f 201 202 235 234
f 202 203 236 235
f 203 204 237 236
f 204 205 238 237
f 205 206 239 238
usemtl grass
f 206 207 240 239
f 207 208 241 240
usemtl grass_light
f 208 209 242 241
usemtl grass
f 209 210 243 242
f 210 211 244 243
usemtl grass_light
f 211 212 245 244
usemtl grass
f 212 213 246 245
f 213 214 247 246
usemtl grass_light
f 214 215 248 247
usemtl grass
f 215 216 249 248
f 216 217 250 249
usemtl grass_light
f 217 218 251 250
usemtl grass
f 218 219 252 251
f 219 220 253 252
usemtl grass_light
f 220 221 254 253
usemtl grass
f 221 222 255 254
f 222 223 256 255
usemtl highland
f 223 224 257 256
f 224 225 258 257
f 225 226 259 258
usemtl rock
f 226 227 260 259
f 227 228 261 260
f 228 229 262 261
f 229 230 263 262
f 230 231 264 263
usemtl highland
f 232 233 266 265
f 233 234 267 266
f 234 235 268 267
f 235 236 269 268
f 236 237 270 269
f 237 238 271 270
usemtl grass
f 238 239 272 271
f 239 240 273 272
usemtl grass_light
f 240 241 274 273
usemtl grass
f 241 242 275 274
f 242 243 276 275
usemtl grass_light
f 243 244 277 276
usemtl grass
f 244 245 278 277
f 245 246 279 278
usemtl grass_light
f 246 247 280 279
usemtl grass
f 247 248 281 280
f 248 249 282 281
usemtl grass_light
f 249 250 283 282
usemtl grass
f 250 251 284 283
f 251 252 285 284
usemtl grass_light
f 252 253 286 285
usemtl grass
f 253 254 287 286
f 254 255 288 287
usemtl grass_light
f 255 256 289 288
usemtl grass
f 256 257 290 289
usemtl highland
f 257 258 291 290
f 258 259 292 291
f 259 260 293 292
usemtl rock
f 260 261 294 293
f 261 262 295 294
f 262 263 296 295
f 263 264 297 296
usemtl highland
f 265 266 299 298
f 266 267 300 299
f 267 268 301 300
usemtl grass
f 268 269 302 301
usemtl grass_light
f 269 270 303 302
usemtl grass
f 270 271 304 303
f 271 272 305 304
usemtl grass_light
f 272 273 306 305
usemtl grass
f 273 274 307 306
f 274 275 308 307
usemtl grass_light
f 275 276 309 308
usemtl grass
f 276 277 310 309
f 277 278 311 310
usemtl grass_light
f 278 279 312 311
usemtl grass
f 279 280 313 312
f 280 281 314 313
usemtl grass_light
f 281 282 315 314
usemtl grass
f 282 283 316 315
f 283 284 317 316
usemtl grass_light
f 284 285 318 317
usemtl grass
f 285 286 319 318
f 286 287 320 319
usemtl grass_light
f 287 288 321 320
usemtl grass
f 288 289 322 321
f 289 290 323 322
usemtl grass_light
f 290 291 324 323
usemtl highland
f 291 292 325 324
f 292 293 326 325
f 293 294 327 326
f 294 295 328 327
f 295 296 329 328
f 296 297 330 329
f 298 299 332 331
usemtl grass
f 299 300 333 332
f 300 301 334 333
usemtl grass_light
f 301 302 335 334
usemtl grass
f 302 303 336 335
f 303 304 337 336
usemtl grass_light
f 304 305 338 337
usemtl grass
f 305 306 339 338
f 306 307 340 339
usemtl grass_light
f 307 308 341 340
usemtl grass
f 308 309 342 341
f 309 310 343 342
usemtl grass_light
f 310 311 344 343
usemtl grass
f 311 312 345 344
f 312 313 346 345
usemtl grass_light
f 313 314 347 346
usemtl grass
f 314 315 348 347
f 315 316 349 348
usemtl grass_light
f 316 317 350 349
usemtl grass
f 317 318 351 350
f 318 319 352 351
usemtl grass_light
f 319 320 353 352
usemtl grass
f 320 321 354 353
f 321 322 355 354
usemtl grass_light
f 322 323 356 355
usemtl grass
f 323 324 357 356
f 324 325 358 357
usemtl highland
f 325 326 359 358
f 326 327 360 359
f 327 328 361 360
f 328 329 362 361
f 329 330 363 362
usemtl grass
f 331 332 365 364
f 332 333 366 365
usemtl grass_light
f 333 334 367 366
usemtl grass
f 334 335 368 367
f 335 336 369 368
usemtl grass_light
f 336 337 370 369
usemtl grass
f 337 338 371 370
f 338 339 372 371
usemtl grass_light
f 339 340 373 372
usemtl grass
f 340 341 374 373
f 341 342 375 374
usemtl grass_light
f 342 343 376 375
usemtl grass
f 343 344 377 376
f 344 345 378 377
usemtl grass_light
f 345 346 379 378
usemtl grass
f 346 347 380 379
f 347 348 381 380
usemtl grass_light
f 348 349 382 381
usemtl grass
f 349 350 383 382
f 350 351 384 383
usemtl grass_light
f 351 352 385 384
usemtl grass
f 352 353 386 385
f 353 354 387 386
usemtl grass_light
f 354 355 388 387
usemtl grass
f 355 356 389 388
f 356 357 390 389
usemtl grass_light
f 357 358 391 390
usemtl grass
f 358 359 392 391
usemtl highland
f 359 360 393 392
f 360 361 394 393
f 361 362 395 394
f 362 363 396 395
usemtl grass
f 364 365 398 397
usemtl grass_light
f 365 366 399 398
usemtl grass
f 366 367 400 399
f 367 368 401 400
usemtl grass_light
f 368 369 402 401
usemtl grass
f 369 370 403 402
f 370 371 404 403
usemtl grass_light
f 371 372 405 404
usemtl grass
f 372 373 406 405
f 373 374 407 406
usemtl grass_light
f 374 375 408 407
usemtl grass
f 375 376 409 408
f 376 377 410 409
usemtl grass_light
f 377 378 411 410
usemtl grass
f 378 379 412 411
f 379 380 413 412
usemtl grass_light
f 380 381 414 413
usemtl grass
f 381 382 415 414
f 382 383 416 415
usemtl grass_light
f 383 384 417 416
usemtl grass
f 384 385 418 417
f 385 386 419 418
usemtl grass_light
f 386 387 420 419
usemtl grass
f 387 388 421 420
f 388 389 422 421
usemtl grass_light
f 389 390 423 422
usemtl grass
f 390 391 424 423
f 391 392 425 424
usemtl grass_light
f 392 393 426 425
usemtl grass
f 393 394 427 426
usemtl highland
f 394 395 428 427
f 395 396 429 428
usemtl grass_light
f 397 398 431 430
usemtl grass
f 398 399 432 431
f 399 400 433 432
usemtl grass_light
f 400 401 434 433
usemtl grass
f 401 402 435 434
f 402 403 436 435
usemtl grass_light
f 403 404 437 436
usemtl grass
f 404 405 438 437
f 405 406 439 438
usemtl grass_light
f 406 407 440 439
usemtl grass
f 407 408 441 440
f 408 409 442 441
usemtl grass_light
f 409 410 443 442
usemtl grass
f 410 411 444 443
f 411 412 445 444
usemtl grass_light
f 412 413 446 445
usemtl grass
f 413 414 447 446
f 414 415 448 447
usemtl grass_light
f 415 416 449 448
usemtl grass
f 416 417 450 449
f 417 418 451 450
usemtl grass_light
f 418 419 452 451
usemtl grass
f 419 420 453 452
f 420 421 454 453
usemtl grass_light
f 421 422 455 454
usemtl grass
f 422 423 456 455
f 423 424 457 456
usemtl grass_light
f 424 425 458 457
usemtl grass
f 425 426 459 458
f 426 427 460 459
usemtl grass_light
f 427 428 461 460
usemtl highland
f 428 429 462 461
usemtl grass
f 430 431 464 463
f 431 432 465 464
usemtl grass_light
f 432 433 466 465
usemtl grass
f 433 434 467 466
f 434 435 468 467
usemtl grass_light
f 435 436 469 468
usemtl grass
f 436 437 470 469
f 437 438 471 470
usemtl grass_light
f 438 439 472 471
usemtl grass
f 439 440 473 472
f 440 441 474 473
usemtl grass_light
f 441 442 475 474
usemtl grass
f 442 443 476 475
f 443 444 477 476
usemtl grass_light
f 444 445 478 477
usemtl grass
f 445 446 479 478
f 446 447 480 479
usemtl grass_light
f 447 448 481 480
usemtl grass
f 448 449 482 481
f 449 450 483 482
usemtl grass_light
f 450 451 484 483
usemtl grass
f 451 452 485 484
f 452 453 486 485
usemtl grass_light
f 453 454 487 486
usemtl grass
f 454 455 488 487
f 455 456 489 488
usemtl grass_light
f 456 457 490 489
usemtl grass
f 457 458 491 490
f 458 459 492 491
usemtl grass_light
f 459 460 493 492
usemtl grass
f 460 461 494 493
usemtl highland
f 461 462 495 494
usemtl grass
f 463 464 497 496
usemtl grass_light
f 464 465 498 497
usemtl grass
f 465 466 499 498
f 466 467 500 499
usemtl grass_light
f 467 468 501 500
usemtl grass
f 468 469 502 501
f 469 470 503 502
usemtl grass_light
f 470 471 504 503
usemtl grass
f 471 472 505 504
f 472 473 506 505
usemtl grass_light
f 473 474 507 506
usemtl grass
f 474 475 508 507
f 475 476 509 508
usemtl grass_light
f 476 477 510 509
usemtl grass
f 477 478 511 510
f 478 479 512 511
usemtl grass_light
f 479 480 513 512
usemtl grass
f 480 481 514 513
f 481 482 515 514
usemtl grass_light
f 482 483 516 515
usemtl grass
f 483 484 517 516
f 484 485 518 517
usemtl grass_light
f 485 486 519 518
usemtl grass
f 486 487 520 519
f 487 488 521 520
usemtl grass_light
f 488 489 522 521
usemtl grass
f 489 490 523 522
f 490 491 524 523
usemtl grass_light
f 491 492 525 524
usemtl grass
f 492 493 526 525
f 493 494 527 526
usemtl grass_light
f 494 495 528 527
f 496 497 530 529
usemtl grass
f 497 498 531 530
f 498 499 532 531
usemtl grass_light
f 499 500 533 532
usemtl grass
f 500 501 534 533
f 501 502 535 534
usemtl grass_light
f 502 503 536 535
usemtl grass
f 503 504 537 536
f 504 505 538 537
usemtl grass_light
f 505 506 539 538
usemtl grass
f 506 507 540 539
f 507 508 541 540
usemtl grass_light
f 508 509 542 541
usemtl grass
f 509 510 543 542
f 510 511 544 543
usemtl grass_light
f 511 512 545 544
usemtl grass
f 512 513 546 545
f 513 514 547 546
usemtl grass_light
f 514 515 548 547
usemtl grass
f 515 516 549 548
f 516 517 550 549
usemtl grass_light
f 517 518 551 550
usemtl grass
f 518 519 552 551
f 519 520 553 552
usemtl grass_light
f 520 521 554 553
usemtl grass
f 521 522 555 554
f 522 523 556 555
usemtl grass_light
f 523 524 557 556
usemtl grass
f 524 525 558 557
f 525 526 559 558
usemtl grass_light
f 526 527 560 559
usemtl grass
f 527 528 561 560
f 529 530 563 562
f 530 531 564 563
usemtl grass_light
f 531 532 565 564
usemtl grass
f 532 533 566 565
f 533 534 567 566
usemtl grass_light
f 534 535 568 567
usemtl grass
f 535 536 569 568
f 536 537 570 569
usemtl grass_light
f 537 538 571 570
usemtl grass
f 538 539 572 571
f 539 540 573 572
usemtl grass_light
f 540 541 574 573
usemtl grass
f 541 542 575 574
f 542 543 576 575
usemtl grass_light
f 543 544 577 576
usemtl grass
f 544 545 578 577
f 545 546 579 578
usemtl grass_light
f 546 547 580 579
usemtl grass
f 547 548 581 580
f 548 549 582 581
usemtl grass_light
f 549 550 583 582
usemtl grass
f 550 551 584 583
f 551 552 585 584
usemtl grass_light
f 552 553 586 585
usemtl grass
f 553 554 587 586
f 554 555 588 587
usemtl grass_light
f 555 556 589 588
usemtl grass
f 556 557 590 589
f 557 558 591 590
usemtl grass_light
f 558 559 592 591
usemtl grass
f 559 560 593 592
f 560 561 594 593
f 562 563 596 595
usemtl grass_light
f 563 564 597 596
usemtl grass
f 564 565 598 597
f 565 566 599 598
usemtl grass_light
f 566 567 600 599
usemtl grass
f 567 568 601 600
f 568 569 602 601
usemtl grass_light
f 569 570 603 602
usemtl grass
f 570 571 604 603
f 571 572 605 604
usemtl grass_light
f 572 573 606 605
usemtl grass
f 573 574 607 606
f 574 575 608 607
usemtl grass_light
f 575 576 609 608
usemtl grass
f 576 577 610 609
f 577 578 611 610
usemtl grass_light
f 578 579 612 611
usemtl grass
f 579 580 613 612
f 580 581 614 613
usemtl grass_light
f 581 582 615 614
usemtl grass
f 582 583 616 615
f 583 584 617 616
usemtl grass_light
f 584 585 618 617
usemtl grass
f 585 586 619 618
f 586 587 620 619
usemtl grass_light
f 587 588 621 620
usemtl grass
f 588 589 622 621
f 589 590 623 622
usemtl grass_light
f 590 591 624 623
usemtl grass
f 591 592 625 624
f 592 593 626 625
usemtl grass_light
f 593 594 627 626
f 595 596 629 628
usemtl grass
f 596 597 630 629
f 597 598 631 630
usemtl grass_light
f 598 599 632 631
usemtl grass
f 599 600 633 632
f 600 601 634 633
usemtl grass_light
f 601 602 635 634
usemtl grass
f 602 603 636 635
f 603 604 637 636
usemtl grass_light
f 604 605 638 637
usemtl grass
f 605 606 639 638
f 606 607 640 639
usemtl grass_light
f 607 608 641 640
usemtl grass
f 608 609 642 641
f 609 610 643 642
usemtl grass_light
f 610 611 644 643
usemtl grass
f 611 612 645 644
f 612 613 646 645
usemtl grass_light
f 613 614 647 646
usemtl grass
f 614 615 648 647
f 615 616 649 648
usemtl grass_light
f 616 617 650 649
usemtl grass
f 617 618 651 650
f 618 619 652 651
usemtl grass_light
f 619 620 653 652
usemtl grass
f 620 621 654 653
f 621 622 655 654
usemtl grass_light
f 622 623 656 655
usemtl grass
f 623 624 657 656
f 624 625 658 657
usemtl grass_light
f 625 626 659 658
usemtl grass
f 626 627 660 659
usemtl highland
f 628 629 662 661
usemtl grass
f 629 630 663 662
usemtl grass_light
f 630 631 664 663
usemtl grass
f 631 632 665 664
f 632 633 666 665
usemtl grass_light
f 633 634 667 666
usemtl grass
f 634 635 668 667
f 635 636 669 668
usemtl grass_light
f 636 637 670 669
usemtl grass
f 637 638 671 670
f 638 639 672 671
usemtl grass_light
f 639 640 673 672
usemtl grass
f 640 641 674 673
f 641 642 675 674
usemtl grass_light
f 642 643 676 675
usemtl grass
f 643 644 677 676
f 644 645 678 677
usemtl grass_light
f 645 646 679 678
usemtl grass
f 646 647 680 679
f 647 648 681 680
usemtl grass_light
f 648 649 682 681
usemtl grass
f 649 650 683 682
f 650 651 684 683
usemtl grass_light
f 651 652 685 684
usemtl grass
f 652 653 686 685
f 653 654 687 686
usemtl grass_light
f 654 655 688 687
usemtl grass
f 655 656 689 688
f 656 657 690 689
usemtl grass_light
f 657 658 691 690
usemtl grass
f 658 659 692 691
f 659 660 693 692
usemtl highland
f 661 662 695 694
f 662 663 696 695
f 663 664 697 696
f 664 665 698 697
usemtl grass_light
f 665 666 699 698
usemtl grass
f 666 667 700 699
f 667 668 701 700
usemtl grass_light
f 668 669 702 701
usemtl grass
f 669 670 703 702
f 670 671 704 703
usemtl grass_light
f 671 672 705 704
usemtl grass
f 672 673 706 705
f 673 674 707 706
usemtl grass_light
f 674 675 708 707
usemtl grass
f 675 676 709 708
f 676 677 710 709
usemtl grass_light
f 677 678 711 710
usemtl grass
f 678 679 712 711
f 679 680 713 712
usemtl grass_light
f 680 681 714 713
usemtl grass
f 681 682 715 714
f 682 683 716 715
usemtl grass_light
f 683 684 717 716
usemtl grass
f 684 685 718 717
f 685 686 719 718
usemtl grass_light
f 686 687 720 719
usemtl grass
f 687 688 721 720
f 688 689 722 721
usemtl grass_light
f 689 690 723 722
usemtl grass
f 690 691 724 723
f 691 692 725 724
usemtl grass_light
f 692 693 726 725
usemtl highland
f 694 695 728 727
f 695 696 729 728
f 696 697 730 729
f 697 698 731 730
f 698 699 732 731
f 699 700 733 732
usemtl grass_light
f 700 701 734 733
usemtl grass
f 701 702 735 734
f 702 703 736 735
usemtl grass_light
f 703 704 737 736
usemtl grass
f 704 705 738 737
f 705 706 739 738
usemtl grass_light
f 706 707 740 739
usemtl grass
f 707 708 741 740
f 708 709 742 741
usemtl grass_light
f 709 710 743 742
usemtl grass
f 710 711 744 743
f 711 712 745 744
usemtl grass_light
f 712 713 746 745
usemtl grass
f 713 714 747 746
f 714 715 748 747
usemtl grass_light
f 715 716 749 748
usemtl grass
f 716 717 750 749
f 717 718 751 750
usemtl grass_light
f 718 719 752 751
usemtl grass
f 719 720 753 752
f 720 721 754 753
usemtl grass_light
f 721 722 755 754
usemtl grass
f 722 723 756 755
f 723 724 757 756
usemtl grass_light
f 724 725 758 757
usemtl grass
f 725 726 759 758
usemtl highland
f 727 728 761 760
f 728 729 762 761
f 729 730 763 762
f 730 731 764 763
f 731 732 765 764
f 732 733 766 765
f 733 734 767 766
usemtl grass
f 734 735 768 767
usemtl grass_light
f 735 736 769 768
usemtl grass
f 736 737 770 769
f 737 738 771 770
usemtl grass_light
f 738 739 772 771
usemtl grass
f 739 740 773 772
f 740 741 774 773
usemtl grass_light
f 741 742 775 774
usemtl grass
f 742 743 776 775
f 743 744 777 776
usemtl grass_light
f 744 745 778 777
usemtl grass
f 745 746 779 778
f 746 747 780 779
usemtl grass_light
f 747 748 781 780
usemtl grass
f 748 749 782 781
f 749 750 783 782
usemtl grass_light
f 750 751 784 783
usemtl grass
f 751 752 785 784
f 752 753 786 785
usemtl grass_light
f 753 754 787 786
usemtl grass
f 754 755 788 787
f 755 756 789 788
usemtl grass_light
f 756 757 790 789
usemtl grass
f 757 758 791 790
f 758 759 792 791
usemtl highland
f 760 761 794 793
f 761 762 795 794
f 762 763 796 795
f 763 764 797 796
f 764 765 798 797
f 765 766 799 798
f 766 767 800 799
usemtl grass_light
f 767 768 801 800
usemtl grass
f 768 769 802 801
f 769 770 803 802
usemtl grass_light
f 770 771 804 803
usemtl grass
f 771 772 805 804
f 772 773 806 805
usemtl grass_light
f 773 774 807 806
usemtl grass
f 774 775 808 807
f 775 776 809 808
usemtl grass_light
f 776 777 810 809
usemtl grass
f 777 778 811 810
f 778 779 812 811
usemtl grass_light
f 779 780 813 812
usemtl grass
f 780 781 814 813
f 781 782 815 814
usemtl grass_light
f 782 783 816 815
usemtl grass
f 783 784 817 816
f 784 785 818 817
usemtl grass_light
f 785 786 819 818
usemtl grass
f 786 787 820 819
f 787 788 821 820
usemtl grass_light
f 788 789 822 821
usemtl grass
f 789 790 823 822
f 790 791 824 823
usemtl highland
f 791 792 825 824
usemtl rock
f 793 794 827 826
f 794 795 828 827
f 795 796 829 828
usemtl highland
f 796 797 830 829
f 797 798 831 830
f 798 799 832 831
f 799 800 833 832
f 800 801 834 833
usemtl grass
f 801 802 835 834
usemtl grass_light
f 802 803 836 835
usemtl grass
f 803 804 837 836
f 804 805 838 837
usemtl grass_light
f 805 806 839 838
usemtl grass
f 806 807 840 839
f 807 808 841 840
usemtl grass_light
f 808 809 842 841
usemtl grass
f 809 810 843 842
f 810 811 844 843
usemtl grass_light
f 811 812 845 844
usemtl grass
f 812 813 846 845
f 813 814 847 846
usemtl grass_light
f 814 815 848 847
usemtl grass
f 815 816 849 848
f 816 817 850 849
usemtl grass_light
f 817 818 851 850
usemtl grass
f 818 819 852 851
f 819 820 853 852
usemtl grass_light
f 820 821 854 853
usemtl grass
f 821 822 855 854
f 822 823 856 855
usemtl highland
f 823 824 857 856
f 824 825 858 857
usemtl rock
f 826 827 860 859
f 827 828 861 860
f 828 829 862 861
f 829 830 863 862
usemtl highland
f 830 831 864 863
f 831 832 865 864
f 832 833 866 865
f 833 834 867 866
usemtl grass_light
f 834 835 868 867
usemtl grass
f 835 836 869 868
f 836 837 870 869
usemtl grass_light
f 837 838 871 870
usemtl grass
f 838 839 872 871
f 839 840 873 872
usemtl grass_light
f 840 841 874 873
usemtl grass
f 841 842 875 874
f 842 843 876 875
usemtl grass_light
f 843 844 877 876
usemtl grass
f 844 845 878 877
f 845 846 879 878
usemtl grass_light
f 846 847 880 879
usemtl grass
f 847 848 881 880
f 848 849 882 881
usemtl grass_light
f 849 850 883 882
usemtl grass
f 850 851 884 883
f 851 852 885 884
usemtl grass_light
f 852 853 886 885
usemtl grass
f 853 854 887 886
f 854 855 888 887
usemtl grass_light
f 855 856 889 888
usemtl highland
f 856 857 890 889
f 857 858 891 890
usemtl rock
f 859 860 893 892
f 860 861 894 893
f 861 862 895 894
f 862 863 896 895
usemtl highland
f 863 864 897 896
f 864 865 898 897
f 865 866 899 898
f 866 867 900 899
usemtl grass
f 867 868 901 900
f 868 869 902 901
usemtl grass_light
f 869 870 903 902
usemtl grass
f 870 871 904 903
f 871 872 905 904
usemtl grass_light
f 872 873 906 905
usemtl grass
f 873 874 907 906
f 874 875 908 907
usemtl grass_light
f 875 876 909 908
usemtl grass
f 876 877 910 909
f 877 878 911 910
usemtl grass_light
f 878 879 912 911
usemtl grass
f 879 880 913 912
f 880 881 914 913
usemtl grass_light
f 881 882 915 914
usemtl grass
f 882 883 916 915
f 883 884 917 916
usemtl grass_light
f 884 885 918 917
usemtl grass
f 885 886 919 918
f 886 887 920 919
usemtl grass_light
f 887 888 921 920
usemtl highland
f 888 889 922 921
f 889 890 923 922
f 890 891 924 923
usemtl rock
f 892 893 926 925
f 893 894 927 926
f 894 895 928 927
f 895 896 929 928
usemtl highland
f 896 897 930 929
f 897 898 931 930
f 898 899 932 931
f 899 900 933 932
usemtl grass
f 900 901 934 933
usemtl grass_light
f 901 902 935 934
usemtl grass
f 902 903 936 935
f 903 904 937 936
usemtl grass_light
f 904 905 938 937
usemtl grass
f 905 906 939 938
f 906 907 940 939
usemtl grass_light
f 907 908 941 940
usemtl grass
f 908 909 942 941
f 909 910 943 942
usemtl grass_light
f 910 911 944 943
usemtl grass
f 911 912 945 944
f 912 913 946 945
usemtl grass_light
f 913 914 947 946
usemtl grass
f 914 915 948 947
f 915 916 949 948
usemtl grass_light
f 916 917 950 949
usemtl grass
f 917 918 951 950
f 918 919 952 951
usemtl grass_light
f 919 920 953 952
usemtl highland
f 920 921 954 953
f 921 922 955 954
f 922 923 956 955
f 923 924 957 956
usemtl rock
f 925 926 959 958
f 926 927 960 959
f 927 928 961 960
f 928 929 962 961
usemtl highland
f 929 930 963 962
f 930 931 964 963
f 931 932 965 964
f 932 933 966 965
f 933 934 967 966
usemtl grass
f 934 935 968 967
f 935 936 969 968
usemtl grass_light
f 936 937 970 969
usemtl grass
f 937 938 971 970
f 938 939 972 971
usemtl grass_light
f 939 940 973 972
usemtl grass
f 940 941 974 973
f 941 942 975 974
usemtl grass_light
f 942 943 976 975
usemtl grass
f 943 944 977 976
f 944 945 978 977
usemtl grass_light
f 945 946 979 978
usemtl grass
f 946 947 980 979
f 947 948 981 980
usemtl grass_light
f 948 949 982 981
usemtl grass
f 949 950 983 982
f 950 951 984 983
usemtl grass_light
f 951 952 985 984
usemtl highland
f 952 953 986 985
f 953 954 987 986
f 954 955 988 987
f 955 956 989 988
f 956 957 990 989
usemtl rock
f 958 959 992 991
f 959 960 993 992
f 960 961 994 993
f 961 962 995 994
usemtl highland
f 962 963 996 995
f 963 964 997 996
f 964 965 998 997
f 965 966 999 998
f 966 967 1000 999
usemtl grass
f 967 968 1001 1000
usemtl grass_light
f 968 969 1002 1001
usemtl grass
f 969 970 1003 1002
f 970 971 1004 1003
usemtl grass_light
f 971 972 1005 1004
usemtl grass
f 972 973 1006 1005
f 973 974 1007 1006
usemtl grass_light
f 974 975 1008 1007
usemtl grass
f 975 976 1009 1008
f 976 977 1010 1009
usemtl grass_light
f 977 978 1011 1010
usemtl grass
f 978 979 1012 1011
f 979 980 1013 1012
usemtl grass_light
f 980 981 1014 1013
usemtl grass
f 981 982 1015 1014
f 982 983 1016 1015
usemtl grass_light
f 983 984 1017 1016
usemtl highland
f 984 985 1018 1017
f 985 986 1019 1018
f 986 987 1020 1019
f 987 988 1021 1020
f 988 989 1022 1021
usemtl rock
f 989 990 1023 1022
f 991 992 1025 1024
f 992 993 1026 1025
f 993 994 1027 1026
f 994 995 1028 1027
usemtl highland
f 995 996 1029 1028
f 996 997 1030 1029
f 997 998 1031 1030
f 998 999 1032 1031
f 999 1000 1033 1032
f 1000 1001 1034 1033
usemtl grass
f 1001 1002 1035 1034
f 1002 1003 1036 1035
usemtl grass_light
f 1003 1004 1037 1036
usemtl grass
f 1004 1005 1038 1037
f 1005 1006 1039 1038
usemtl grass_light
f 1006 1007 1040 1039
usemtl grass
f 1007 1008 1041 1040
f 1008 1009 1042 1041
usemtl grass_light
f 1009 1010 1043 1042
usemtl grass
f 1010 1011 1044 1043
f 1011 1012 1045 1044
usemtl grass_light
f 1012 1013 1046 1045
usemtl grass
f 1013 1014 1047 1046
f 1014 1015 1048 1047
usemtl highland
f 1015 1016 1049 1048
f 1016 1017 1050 1049
f 1017 1018 1051 1050
f 1018 1019 1052 1051
f 1019 1020 1053 1052
f 1020 1021 1054 1053
usemtl rock
f 1021 1022 1055 1054
f 1022 1023 1056 1055
f 1024 1025 1058 1057
f 1025 1026 1059 1058
f 1026 1027 1060 1059
f 1027 1028 1061 1060
usemtl highland
f 1028 1029 1062 1061
f 1029 1030 1063 1062
f 1030 1031 1064 1063
f 1031 1032 1065 1064
f 1032 1033 1066 1065
f 1033 1034 1067 1066
f 1034 1035 1068 1067
usemtl grass_light
f 1035 1036 1069 1068
usemtl grass
f 1036 1037 1070 1069
f 1037 1038 1071 1070
usemtl grass_light
f 1038 1039 1072 1071
usemtl grass
f 1039 1040 1073 1072
f 1040 1041 1074 1073
usemtl grass_light
f 1041 1042 1075 1074
usemtl grass
f 1042 1043 1076 1075
f 1043 1044 1077 1076
usemtl highland
f 1044 1045 1078 1077
f 1045 1046 1079 1078
f 1046 1047 1080 1079
f 1047 1048 1081 1080
f 1048 1049 1082 1081
f 1049 1050 1083 1082
f 1050 1051 1084 1083
f 1051 1052 1085 1084
f 1052 1053 1086 1085
usemtl rock
f 1053 1054 1087 1086
f 1054 1055 1088 1087
f 1055 1056 1089 1088
