# Deterministic Story World asset: StoryWorld_Tree
mtllib story_world.mtl
o StoryWorld_Tree
v -0.45000 0.00000 -0.45000
v 0.45000 0.00000 -0.45000
v 0.45000 4.50000 -0.45000
v -0.45000 4.50000 -0.45000
v -0.45000 0.00000 0.45000
v 0.45000 0.00000 0.45000
v 0.45000 4.50000 0.45000
v -0.45000 4.50000 0.45000
v 3.20000 3.20000 0.00000
v 1.99517 3.20000 2.50186
v -0.71207 3.20000 3.11977
v -2.88310 3.20000 1.38843
v -2.88310 3.20000 -1.38843
v -0.71207 3.20000 -3.11977
v 1.99517 3.20000 -2.50186
v 0.00000 8.20000 0.00000
v 2.50000 5.10000 0.00000
v 1.55872 5.10000 1.95458
v -0.55630 5.10000 2.43732
v -2.25242 5.10000 1.08471
v -2.25242 5.10000 -1.08471
v -0.55630 5.10000 -2.43732
v 1.55872 5.10000 -1.95458
v 0.00000 9.10000 0.00000
usemtl wood
f 1 2 3 4
f 6 5 8 7
f 5 1 4 8
f 2 6 7 3
f 4 3 7 8
f 5 6 2 1
usemtl leaf
f 9 10 16
f 10 11 16
f 11 12 16
f 12 13 16
f 13 14 16
f 14 15 16
f 15 9 16
f 15 14 13 12 11 10 9
usemtl leaf_light
f 17 18 24
f 18 19 24
f 19 20 24
f 20 21 24
f 21 22 24
f 22 23 24
f 23 17 24
f 23 22 21 20 19 18 17
