# Deterministic Story World v5 grounded asset: water_v5
# Triangles: 216
mtllib story_world_v5.mtl
o water_v5
s 1
v 0.000000 0.000000 0.000000
v 19.216494 0.000000 0.000000
v 19.359132 0.000000 1.024908
v 19.216494 0.000000 0.000000
v 21.680147 0.008000 0.000000
v 21.841072 0.008000 1.215993
v 19.216494 0.000000 0.000000
v 21.841072 0.008000 1.215993
v 19.359132 0.000000 1.024908
v 0.000000 0.000000 0.000000
v 19.359132 0.000000 1.024908
v 19.277575 0.000000 2.056926
v 19.359132 0.000000 1.024908
v 21.841072 0.008000 1.215993
v 21.749059 0.008000 2.440420
v 19.359132 0.000000 1.024908
v 21.749059 0.008000 2.440420
v 19.277575 0.000000 2.056926
v 0.000000 0.000000 0.000000
v 19.277575 0.000000 2.056926
v 18.939218 0.000000 3.070873
v 19.277575 0.000000 2.056926
v 21.749059 0.008000 2.440420
v 21.367323 0.008000 3.643409
v 19.277575 0.000000 2.056926
v 21.367323 0.008000 3.643409
v 18.939218 0.000000 3.070873
v 0.000000 0.000000 0.000000
v 18.939218 0.000000 3.070873
v 18.348579 0.000000 4.041250
v 18.939218 0.000000 3.070873
v 21.367323 0.008000 3.643409
v 20.700961 0.008000 4.794703
v 18.939218 0.000000 3.070873
v 20.700961 0.008000 4.794703
v 18.348579 0.000000 4.041250
v 0.000000 0.000000 0.000000
v 18.348579 0.000000 4.041250
v 17.545372 0.000000 4.950881
v 18.348579 0.000000 4.041250
v 20.700961 0.008000 4.794703
v 19.794779 0.008000 5.873927
v 18.348579 0.000000 4.041250
v 19.794779 0.008000 5.873927
v 17.545372 0.000000 4.950881
v 0.000000 0.000000 0.000000
v 17.545372 0.000000 4.950881
v 16.589536 0.000000 5.795902
v 17.545372 0.000000 4.950881
v 19.794779 0.008000 5.873927
v 18.716400 0.008000 6.876493
v 17.545372 0.000000 4.950881
v 18.716400 0.008000 6.876493
v 16.589536 0.000000 5.795902
v 0.000000 0.000000 0.000000
v 16.589536 0.000000 5.795902
v 15.539839 0.000000 6.584468
v 16.589536 0.000000 5.795902
v 18.716400 0.008000 6.876493
v 17.532126 0.008000 7.812081
v 16.589536 0.000000 5.795902
v 17.532126 0.008000 7.812081
v 15.539839 0.000000 6.584468
v 0.000000 0.000000 0.000000
v 15.539839 0.000000 6.584468
v 14.435187 0.000000 7.329652
v 15.539839 0.000000 6.584468
v 17.532126 0.008000 7.812081
v 16.285852 0.008000 8.696197
v 15.539839 0.000000 6.584468
v 16.285852 0.008000 8.696197
v 14.435187 0.000000 7.329652
v 0.000000 0.000000 0.000000
v 14.435187 0.000000 7.329652
v 13.286151 0.000000 8.039825
v 14.435187 0.000000 7.329652
v 16.285852 0.008000 8.696197
v 14.989504 0.008000 9.538775
v 14.435187 0.000000 7.329652
v 14.989504 0.008000 9.538775
v 13.286151 0.000000 8.039825
v 0.000000 0.000000 0.000000
v 13.286151 0.000000 8.039825
v 12.079418 0.000000 8.711238
v 13.286151 0.000000 8.039825
v 14.989504 0.008000 9.538775
v 13.628061 0.008000 10.335367
v 13.286151 0.000000 8.039825
v 13.628061 0.008000 10.335367
v 12.079418 0.000000 8.711238
v 0.000000 0.000000 0.000000
v 12.079418 0.000000 8.711238
v 10.792021 0.000000 9.326601
v 12.079418 0.000000 8.711238
v 13.628061 0.008000 10.335367
v 12.175614 0.008000 11.065459
v 12.079418 0.000000 8.711238
v 12.175614 0.008000 11.065459
v 10.792021 0.000000 9.326601
v 0.000000 0.000000 0.000000
v 10.792021 0.000000 9.326601
v 9.408078 0.000000 9.860727
v 10.792021 0.000000 9.326601
v 12.175614 0.008000 11.065459
v 10.614242 0.008000 11.699168
v 10.792021 0.000000 9.326601
v 10.614242 0.008000 11.699168
v 9.408078 0.000000 9.860727
v 0.000000 0.000000 0.000000
v 9.408078 0.000000 9.860727
v 7.930113 0.000000 10.290920
v 9.408078 0.000000 9.860727
v 10.614242 0.008000 11.699168
v 8.946794 0.008000 12.209566
v 9.408078 0.000000 9.860727
v 8.946794 0.008000 12.209566
v 7.930113 0.000000 10.290920
v 0.000000 0.000000 0.000000
v 7.930113 0.000000 10.290920
v 6.380105 0.000000 10.607410
v 7.930113 0.000000 10.290920
v 8.946794 0.008000 12.209566
v 7.198068 0.008000 12.585063
v 7.930113 0.000000 10.290920
v 7.198068 0.008000 12.585063
v 6.380105 0.000000 10.607410
v 0.000000 0.000000 0.000000
v 6.380105 0.000000 10.607410
v 4.790551 0.000000 10.818834
v 6.380105 0.000000 10.607410
v 7.198068 0.008000 12.585063
v 5.404725 0.008000 12.835904
v 6.380105 0.000000 10.607410
v 5.404725 0.008000 12.835904
v 4.790551 0.000000 10.818834
v 0.000000 0.000000 0.000000
v 4.790551 0.000000 10.818834
v 3.190652 0.000000 10.949846
v 4.790551 0.000000 10.818834
v 5.404725 0.008000 12.835904
v 3.599709 0.008000 12.991342
v 4.790551 0.000000 10.818834
v 3.599709 0.008000 12.991342
v 3.190652 0.000000 10.949846
v 0.000000 0.000000 0.000000
v 3.190652 0.000000 10.949846
v 1.594910 0.000000 11.031428
v 3.190652 0.000000 10.949846
v 3.599709 0.008000 12.991342
v 1.799385 0.008000 13.088134
v 3.190652 0.000000 10.949846
v 1.799385 0.008000 13.088134
v 1.594910 0.000000 11.031428
v 0.000000 0.000000 0.000000
v 1.594910 0.000000 11.031428
v 0.000000 0.000000 11.087797
v 1.594910 0.000000 11.031428
v 1.799385 0.008000 13.088134
v 0.000000 0.008000 13.155013
v 1.594910 0.000000 11.031428
v 0.000000 0.008000 13.155013
v 0.000000 0.000000 11.087797
v 0.000000 0.000000 0.000000
v 0.000000 0.000000 11.087797
v -1.608512 0.000000 11.125507
v 0.000000 0.000000 11.087797
v 0.000000 0.008000 13.155013
v -1.814731 0.008000 13.199754
v 0.000000 0.000000 11.087797
v -1.814731 0.008000 13.199754
v -1.608512 0.000000 11.125507
v 0.000000 0.000000 0.000000
v -1.608512 0.000000 11.125507
v -3.243005 0.000000 11.129516
v -1.608512 0.000000 11.125507
v -1.814731 0.008000 13.199754
v -3.658775 0.008000 13.204511
v -1.608512 0.000000 11.125507
v -3.658775 0.008000 13.204511
v -3.243005 0.000000 11.129516
v 0.000000 0.000000 0.000000
v -3.243005 0.000000 11.129516
v -4.900906 0.000000 11.068055
v -3.243005 0.000000 11.129516
v -3.658775 0.008000 13.204511
v -5.529227 0.008000 13.131590
v -3.243005 0.000000 11.129516
v -5.529227 0.008000 13.131590
v -4.900906 0.000000 11.068055
v 0.000000 0.000000 0.000000
v -4.900906 0.000000 11.068055
v -6.558709 0.000000 10.904353
v -4.900906 0.000000 11.068055
v -5.529227 0.008000 13.131590
v -7.399569 0.008000 12.937368
v -4.900906 0.000000 11.068055
v -7.399569 0.008000 12.937368
v -6.558709 0.000000 10.904353
v 0.000000 0.000000 0.000000
v -6.558709 0.000000 10.904353
v -8.176263 0.000000 10.610350
v -6.558709 0.000000 10.904353
v -7.399569 0.008000 12.937368
v -9.224502 0.008000 12.588551
v -6.558709 0.000000 10.904353
v -9.224502 0.008000 12.588551
v -8.176263 0.000000 10.610350
v 0.000000 0.000000 0.000000
v -8.176263 0.000000 10.610350
v -9.709572 0.000000 10.176727
v -8.176263 0.000000 10.610350
v -9.224502 0.008000 12.588551
v -10.954389 0.008000 12.074082
v -8.176263 0.000000 10.610350
v -10.954389 0.008000 12.074082
v -9.709572 0.000000 10.176727
v 0.000000 0.000000 0.000000
v -9.709572 0.000000 10.176727
v -11.126096 0.000000 9.615313
v -9.709572 0.000000 10.176727
v -10.954389 0.008000 12.074082
v -12.552519 0.008000 11.407998
v -9.709572 0.000000 10.176727
v -12.552519 0.008000 11.407998
v -11.126096 0.000000 9.615313
v 0.000000 0.000000 0.000000
v -11.126096 0.000000 9.615313
v -12.415083 0.000000 8.953307
v -11.126096 0.000000 9.615313
v -12.552519 0.008000 11.407998
v -14.006761 0.008000 10.622568
v -11.126096 0.000000 9.615313
v -14.006761 0.008000 10.622568
v -12.415083 0.000000 8.953307
v 0.000000 0.000000 0.000000
v -12.415083 0.000000 8.953307
v -13.587645 0.000000 8.222267
v -12.415083 0.000000 8.953307
v -14.006761 0.008000 10.622568
v -15.329651 0.008000 9.755232
v -12.415083 0.000000 8.953307
v -15.329651 0.008000 9.755232
v -13.587645 0.000000 8.222267
v 0.000000 0.000000 0.000000
v -13.587645 0.000000 8.222267
v -14.666145 0.000000 7.446924
v -13.587645 0.000000 8.222267
v -15.329651 0.008000 9.755232
v -16.546420 0.008000 8.835333
v -13.587645 0.000000 8.222267
v -16.546420 0.008000 8.835333
v -14.666145 0.000000 7.446924
v 0.000000 0.000000 0.000000
v -14.666145 0.000000 7.446924
v -15.667680 0.000000 6.638636
v -14.666145 0.000000 7.446924
v -16.546420 0.008000 8.835333
v -17.676357 0.008000 7.876348
v -14.666145 0.000000 7.446924
v -17.676357 0.008000 7.876348
v -15.667680 0.000000 6.638636
v 0.000000 0.000000 0.000000
v -15.667680 0.000000 6.638636
v -16.589536 0.000000 5.795902
v -15.667680 0.000000 6.638636
v -17.676357 0.008000 7.876348
v -18.716400 0.008000 6.876493
v -15.667680 0.000000 6.638636
v -18.716400 0.008000 6.876493
v -16.589536 0.000000 5.795902
v 0.000000 0.000000 0.000000
v -16.589536 0.000000 5.795902
v -17.403929 0.000000 4.910970
v -16.589536 0.000000 5.795902
v -18.716400 0.008000 6.876493
v -19.635203 0.008000 5.826574
v -16.589536 0.000000 5.795902
v -19.635203 0.008000 5.826574
v -17.403929 0.000000 4.910970
v 0.000000 0.000000 0.000000
v -17.403929 0.000000 4.910970
v -18.065267 0.000000 3.978851
v -17.403929 0.000000 4.910970
v -19.635203 0.008000 5.826574
v -20.381327 0.008000 4.720670
v -17.403929 0.000000 4.910970
v -20.381327 0.008000 4.720670
v -18.065267 0.000000 3.978851
v 0.000000 0.000000 0.000000
v -18.065267 0.000000 3.978851
v -18.527370 0.000000 3.004095
v -18.065267 0.000000 3.978851
v -20.381327 0.008000 4.720670
v -20.902673 0.008000 3.564180
v -18.065267 0.000000 3.978851
v -20.902673 0.008000 3.564180
v -18.527370 0.000000 3.004095
v 0.000000 0.000000 0.000000
v -18.527370 0.000000 3.004095
v -18.763306 0.000000 2.002053
v -18.527370 0.000000 3.004095
v -20.902673 0.008000 3.564180
v -21.168858 0.008000 2.375317
v -18.527370 0.000000 3.004095
v -21.168858 0.008000 2.375317
v -18.763306 0.000000 2.002053
v 0.000000 0.000000 0.000000
v -18.763306 0.000000 2.002053
v -18.778907 0.000000 0.994190
v -18.763306 0.000000 2.002053
v -21.168858 0.008000 2.375317
v -21.186459 0.008000 1.179548
v -18.763306 0.000000 2.002053
v -21.186459 0.008000 1.179548
v -18.778907 0.000000 0.994190
v 0.000000 0.000000 0.000000
v -18.778907 0.000000 0.994190
v -18.613506 0.000000 0.000000
v -18.778907 0.000000 0.994190
v -21.186459 0.008000 1.179548
v -20.999853 0.008000 0.000000
v -18.778907 0.000000 0.994190
v -20.999853 0.008000 0.000000
v -18.613506 0.000000 0.000000
v 0.000000 0.000000 0.000000
v -18.613506 0.000000 0.000000
v -18.326913 0.000000 -0.970261
v -18.613506 0.000000 0.000000
v -20.999853 0.008000 0.000000
v -20.676518 0.008000 -1.151157
v -18.613506 0.000000 0.000000
v -20.676518 0.008000 -1.151157
v -18.326913 0.000000 -0.970261
v 0.000000 0.000000 0.000000
v -18.326913 0.000000 -0.970261
v -17.977702 0.000000 -1.918229
v -18.326913 0.000000 -0.970261
v -20.676518 0.008000 -1.151157
v -20.282536 0.008000 -2.275864
v -18.326913 0.000000 -0.970261
v -20.282536 0.008000 -2.275864
v -17.977702 0.000000 -1.918229
v 0.000000 0.000000 0.000000
v -17.977702 0.000000 -1.918229
v -17.601756 0.000000 -2.854012
v -17.977702 0.000000 -1.918229
v -20.282536 0.008000 -2.275864
v -19.858392 0.008000 -3.386116
v -17.977702 0.000000 -1.918229
v -19.858392 0.008000 -3.386116
v -17.601756 0.000000 -2.854012
v 0.000000 0.000000 0.000000
v -17.601756 0.000000 -2.854012
v -17.199993 0.000000 -3.788275
v -17.601756 0.000000 -2.854012
v -19.858392 0.008000 -3.386116
v -19.405120 0.008000 -4.494564
v -17.601756 0.000000 -2.854012
v -19.405120 0.008000 -4.494564
v -17.199993 0.000000 -3.788275
v 0.000000 0.000000 0.000000
v -17.199993 0.000000 -3.788275
v -16.740251 0.000000 -4.723696
v -17.199993 0.000000 -3.788275
v -19.405120 0.008000 -4.494564
v -18.886437 0.008000 -5.604385
v -17.199993 0.000000 -3.788275
v -18.886437 0.008000 -5.604385
v -16.740251 0.000000 -4.723696
v 0.000000 0.000000 0.000000
v -16.740251 0.000000 -4.723696
v -16.172205 0.000000 -5.650098
v -16.740251 0.000000 -4.723696
v -18.886437 0.008000 -5.604385
v -18.245565 0.008000 -6.703507
v -16.740251 0.000000 -4.723696
v -18.245565 0.008000 -6.703507
v -16.172205 0.000000 -5.650098
v 0.000000 0.000000 0.000000
v -16.172205 0.000000 -5.650098
v -15.448682 0.000000 -6.545844
v -16.172205 0.000000 -5.650098
v -18.245565 0.008000 -6.703507
v -17.429283 0.008000 -7.766255
v -16.172205 0.000000 -5.650098
v -17.429283 0.008000 -7.766255
v -15.448682 0.000000 -6.545844
v 0.000000 0.000000 0.000000
v -15.448682 0.000000 -6.545844
v -14.544274 0.000000 -7.385042
v -15.448682 0.000000 -6.545844
v -17.429283 0.008000 -7.766255
v -16.408925 0.008000 -8.761914
v -15.448682 0.000000 -6.545844
v -16.408925 0.008000 -8.761914
v -14.544274 0.000000 -7.385042
v 0.000000 0.000000 0.000000
v -14.544274 0.000000 -7.385042
v -13.463699 0.000000 -8.147264
v -14.544274 0.000000 -7.385042
v -16.408925 0.008000 -8.761914
v -15.189814 0.008000 -9.666245
v -14.544274 0.000000 -7.385042
v -15.189814 0.008000 -9.666245
v -13.463699 0.000000 -8.147264
v 0.000000 0.000000 0.000000
v -13.463699 0.000000 -8.147264
v -12.237238 0.000000 -8.825052
v -13.463699 0.000000 -8.147264
v -15.189814 0.008000 -9.666245
v -13.806114 0.008000 -10.470400
v -13.463699 0.000000 -8.147264
v -13.806114 0.008000 -10.470400
v -12.237238 0.000000 -8.825052
v 0.000000 0.000000 0.000000
v -12.237238 0.000000 -8.825052
v -10.906375 0.000000 -9.425427
v -12.237238 0.000000 -8.825052
v -13.806114 0.008000 -10.470400
v -12.304628 0.008000 -11.182710
v -12.237238 0.000000 -8.825052
v -12.304628 0.008000 -11.182710
v -10.906375 0.000000 -9.425427
v 0.000000 0.000000 0.000000
v -10.906375 0.000000 -9.425427
v -9.506922 0.000000 -9.964327
v -10.906375 0.000000 -9.425427
v -12.304628 0.008000 -11.182710
v -10.725758 0.008000 -11.822082
v -10.906375 0.000000 -9.425427
v -10.725758 0.008000 -11.822082
v -9.506922 0.000000 -9.964327
v 0.000000 0.000000 0.000000
v -9.506922 0.000000 -9.964327
v -8.057536 0.000000 -10.456278
v -9.506922 0.000000 -9.964327
v -10.725758 0.008000 -11.822082
v -9.090553 0.008000 -12.405753
v -9.506922 0.000000 -9.964327
v -9.090553 0.008000 -12.405753
v -8.057536 0.000000 -10.456278
v 0.000000 0.000000 0.000000
v -8.057536 0.000000 -10.456278
v -6.558517 0.000000 -10.904033
v -8.057536 0.000000 -10.456278
v -9.090553 0.008000 -12.405753
v -7.399352 0.008000 -12.936988
v -8.057536 0.000000 -10.456278
v -7.399352 0.008000 -12.936988
v -6.558517 0.000000 -10.904033
v 0.000000 0.000000 0.000000
v -6.558517 0.000000 -10.904033
v -5.000573 0.000000 -11.293140
v -6.558517 0.000000 -10.904033
v -7.399352 0.008000 -12.936988
v -5.641672 0.008000 -13.398641
v -6.558517 0.000000 -10.904033
v -5.641672 0.008000 -13.398641
v -5.000573 0.000000 -11.293140
v 0.000000 0.000000 0.000000
v -5.000573 0.000000 -11.293140
v -3.378459 0.000000 -11.594373
v -5.000573 0.000000 -11.293140
v -5.641672 0.008000 -13.398641
v -3.811595 0.008000 -13.756036
v -5.000573 0.000000 -11.293140
v -3.811595 0.008000 -13.756036
v -3.378459 0.000000 -11.594373
v 0.000000 0.000000 0.000000
v -3.378459 0.000000 -11.594373
v -1.702192 0.000000 -11.773462
v -3.378459 0.000000 -11.594373
v -3.811595 0.008000 -13.756036
v -1.920422 0.008000 -13.968514
v -3.378459 0.000000 -11.594373
v -1.920422 0.008000 -13.968514
v -1.702192 0.000000 -11.773462
v 0.000000 0.000000 0.000000
v -1.702192 0.000000 -11.773462
v -0.000000 0.000000 -11.804203
v -1.702192 0.000000 -11.773462
v -1.920422 0.008000 -13.968514
v -0.000000 0.008000 -14.004987
v -1.702192 0.000000 -11.773462
v -0.000000 0.008000 -14.004987
v -0.000000 0.000000 -11.804203
v 0.000000 0.000000 0.000000
v -0.000000 0.000000 -11.804203
v 1.688590 0.000000 -11.679382
v -0.000000 0.000000 -11.804203
v -0.000000 0.008000 -14.004987
v 1.905076 0.008000 -13.856894
v -0.000000 0.000000 -11.804203
v 1.905076 0.008000 -13.856894
v 1.688590 0.000000 -11.679382
v 0.000000 0.000000 0.000000
v 1.688590 0.000000 -11.679382
v 3.326105 0.000000 -11.414703
v 1.688590 0.000000 -11.679382
v 1.905076 0.008000 -13.856894
v 3.752529 0.008000 -13.542868
v 1.688590 0.000000 -11.679382
v 3.752529 0.008000 -13.542868
v 3.326105 0.000000 -11.414703
v 0.000000 0.000000 0.000000
v 3.326105 0.000000 -11.414703
v 4.890219 0.000000 -11.043919
v 3.326105 0.000000 -11.414703
v 3.752529 0.008000 -13.542868
v 5.517170 0.008000 -13.102955
v 3.326105 0.000000 -11.414703
v 5.517170 0.008000 -13.102955
v 4.890219 0.000000 -11.043919
v 0.000000 0.000000 0.000000
v 4.890219 0.000000 -11.043919
v 6.379913 0.000000 -10.607091
v 4.890219 0.000000 -11.043919
v 5.517170 0.008000 -13.102955
v 7.197850 0.008000 -12.584684
v 4.890219 0.000000 -11.043919
v 7.197850 0.008000 -12.584684
v 6.379913 0.000000 -10.607091
v 0.000000 0.000000 0.000000
v 6.379913 0.000000 -10.607091
v 7.811386 0.000000 -10.136848
v 6.379913 0.000000 -10.607091
v 7.197850 0.008000 -12.584684
v 8.812845 0.008000 -12.026769
v 6.379913 0.000000 -10.607091
v 8.812845 0.008000 -12.026769
v 7.811386 0.000000 -10.136848
v 0.000000 0.000000 0.000000
v 7.811386 0.000000 -10.136848
v 9.205428 0.000000 -9.648327
v 7.811386 0.000000 -10.136848
v 8.812845 0.008000 -12.026769
v 10.385611 0.008000 -11.447168
v 7.811386 0.000000 -10.136848
v 10.385611 0.008000 -11.447168
v 9.205428 0.000000 -9.648327
v 0.000000 0.000000 0.000000
v 9.205428 0.000000 -9.648327
v 10.572300 0.000000 -9.136716
v 9.205428 0.000000 -9.648327
v 10.385611 0.008000 -11.447168
v 11.927724 0.008000 -10.840171
v 9.205428 0.000000 -9.648327
v 11.927724 0.008000 -10.840171
v 10.572300 0.000000 -9.136716
v 0.000000 0.000000 0.000000
v 10.572300 0.000000 -9.136716
v 11.901572 0.000000 -8.582982
v 10.572300 0.000000 -9.136716
v 11.927724 0.008000 -10.840171
v 13.427415 0.008000 -10.183199
v 10.572300 0.000000 -9.136716
v 13.427415 0.008000 -10.183199
v 11.901572 0.000000 -8.582982
v 0.000000 0.000000 0.000000
v 11.901572 0.000000 -8.582982
v 13.162205 0.000000 -7.964821
v 11.901572 0.000000 -8.582982
v 13.427415 0.008000 -10.183199
v 14.849667 0.008000 -9.449788
v 11.901572 0.000000 -8.582982
v 14.849667 0.008000 -9.449788
v 13.162205 0.000000 -7.964821
v 0.000000 0.000000 0.000000
v 13.162205 0.000000 -7.964821
v 14.313316 0.000000 -7.267770
v 13.162205 0.000000 -7.964821
v 14.849667 0.008000 -9.449788
v 16.148357 0.008000 -8.622778
v 13.162205 0.000000 -7.964821
v 16.148357 0.008000 -8.622778
v 14.313316 0.000000 -7.267770
v 0.000000 0.000000 0.000000
v 14.313316 0.000000 -7.267770
v 15.320842 0.000000 -6.491676
v 14.313316 0.000000 -7.267770
v 16.148357 0.008000 -8.622778
v 17.285052 0.008000 -7.701988
v 14.313316 0.000000 -7.267770
v 17.285052 0.008000 -7.701988
v 15.320842 0.000000 -6.491676
v 0.000000 0.000000 0.000000
v 15.320842 0.000000 -6.491676
v 16.172205 0.000000 -5.650098
v 15.320842 0.000000 -6.491676
v 17.285052 0.008000 -7.701988
v 18.245565 0.008000 -6.703507
v 15.320842 0.000000 -6.491676
v 18.245565 0.008000 -6.703507
v 16.172205 0.000000 -5.650098
v 0.000000 0.000000 0.000000
v 16.172205 0.000000 -5.650098
v 16.881694 0.000000 -4.763607
v 16.172205 0.000000 -5.650098
v 18.245565 0.008000 -6.703507
v 19.046014 0.008000 -5.651738
v 16.172205 0.000000 -5.650098
v 19.046014 0.008000 -5.651738
v 16.881694 0.000000 -4.763607
v 0.000000 0.000000 0.000000
v 16.881694 0.000000 -4.763607
v 17.483305 0.000000 -3.850674
v 16.881694 0.000000 -4.763607
v 19.046014 0.008000 -5.651738
v 19.724754 0.008000 -4.568597
v 16.881694 0.000000 -4.763607
v 19.724754 0.008000 -4.568597
v 17.483305 0.000000 -3.850674
v 0.000000 0.000000 0.000000
v 17.483305 0.000000 -3.850674
v 18.013604 0.000000 -2.920791
v 17.483305 0.000000 -3.850674
v 19.724754 0.008000 -4.568597
v 20.323041 0.008000 -3.465345
v 17.483305 0.000000 -3.850674
v 20.323041 0.008000 -3.465345
v 18.013604 0.000000 -2.920791
v 0.000000 0.000000 0.000000
v 18.013604 0.000000 -2.920791
v 18.491972 0.000000 -1.973101
v 18.013604 0.000000 -2.920791
v 20.323041 0.008000 -3.465345
v 20.862737 0.008000 -2.340968
v 18.013604 0.000000 -2.920791
v 20.862737 0.008000 -2.340968
v 18.491972 0.000000 -1.973101
v 0.000000 0.000000 0.000000
v 18.491972 0.000000 -1.973101
v 18.907138 0.000000 -1.000979
v 18.491972 0.000000 -1.973101
v 20.862737 0.008000 -2.340968
v 21.331130 0.008000 -1.187602
v 18.491972 0.000000 -1.973101
v 21.331130 0.008000 -1.187602
v 18.907138 0.000000 -1.000979
v 0.000000 0.000000 0.000000
v 18.907138 0.000000 -1.000979
v 19.216494 0.000000 -0.000000
v 18.907138 0.000000 -1.000979
v 21.331130 0.008000 -1.187602
v 21.680147 0.008000 -0.000000
v 18.907138 0.000000 -1.000979
v 21.680147 0.008000 -0.000000
v 19.216494 0.000000 -0.000000
vt 0.000000 0.000000
vt 1.000000 0.000000
vt 1.000000 1.000000
vt 0.000000 0.000000
vt 1.000000 0.000000
vt 1.000000 1.000000
vt 0.000000 0.000000
vt 1.000000 1.000000
vt 0.000000 1.000000
vt 0.000000 0.000000
vt 1.000000 0.000000
vt 1.000000 1.000000
vt 0.000000 0.000000
vt 1.000000 0.000000
vt 1.000000 1.000000
vt 0.000000 0.000000
vt 1.000000 1.000000
vt 0.000000 1.000000
vt 0.000000 0.000000
vt 1.000000 0.000000
vt 1.000000 1.000000
vt 0.000000 0.000000
vt 1.000000 0.000000
vt 1.000000 1.000000
vt 0.000000 0.000000
vt 1.000000 1.000000
vt 0.000000 1.000000
vt 0.000000 0.000000
vt 1.000000 0.000000
vt 1.000000 1.000000
vt 0.000000 0.000000
vt 1.000000 0.000000
vt 1.000000 1.000000
vt 0.000000 0.000000
vt 1.000000 1.000000
vt 0.000000 1.000000
vt 0.000000 0.000000
vt 1.000000 0.000000
vt 1.000000 1.000000
vt 0.000000 0.000000
vt 1.000000 0.000000
vt 1.000000 1.000000
vt 0.000000 0.000000
vt 1.000000 1.000000
vt 0.000000 1.000000
vt 0.000000 0.000000
vt 1.000000 0.000000
vt 1.000000 1.000000
vt 0.000000 0.000000
vt 1.000000 0.000000
vt 1.000000 1.000000
vt 0.000000 0.000000
vt 1.000000 1.000000
vt 0.000000 1.000000
vt 0.000000 0.000000
vt 1.000000 0.000000
vt 1.000000 1.000000
vt 0.000000 0.000000
vt 1.000000 0.000000
vt 1.000000 1.000000
vt 0.000000 0.000000
vt 1.000000 1.000000
vt 0.000000 1.000000
vt 0.000000 0.000000
vt 1.000000 0.000000
vt 1.000000 1.000000
vt 0.000000 0.000000
vt 1.000000 0.000000
vt 1.000000 1.000000
vt 0.000000 0.000000
vt 1.000000 1.000000
vt 0.000000 1.000000
vt 0.000000 0.000000
vt 1.000000 0.000000
vt 1.000000 1.000000
vt 0.000000 0.000000
vt 1.000000 0.000000
vt 1.000000 1.000000
vt 0.000000 0.000000
vt 1.000000 1.000000
vt 0.000000 1.000000
vt 0.000000 0.000000
vt 1.000000 0.000000
vt 1.000000 1.000000
vt 0.000000 0.000000
vt 1.000000 0.000000
vt 1.000000 1.000000
vt 0.000000 0.000000
vt 1.000000 1.000000
vt 0.000000 1.000000
vt 0.000000 0.000000
vt 1.000000 0.000000
vt 1.000000 1.000000
vt 0.000000 0.000000
vt 1.000000 0.000000
vt 1.000000 1.000000
vt 0.000000 0.000000
vt 1.000000 1.000000
vt 0.000000 1.000000
vt 0.000000 0.000000
vt 1.000000 0.000000
vt 1.000000 1.000000
vt 0.000000 0.000000
vt 1.000000 0.000000
vt 1.000000 1.000000
vt 0.000000 0.000000
vt 1.000000 1.000000
vt 0.000000 1.000000
vt 0.000000 0.000000
vt 1.000000 0.000000
vt 1.000000 1.000000
vt 0.000000 0.000000
vt 1.000000 0.000000
vt 1.000000 1.000000
vt 0.000000 0.000000
vt 1.000000 1.000000
vt 0.000000 1.000000
vt 0.000000 0.000000
vt 1.000000 0.000000
vt 1.000000 1.000000
vt 0.000000 0.000000
vt 1.000000 0.000000
vt 1.000000 1.000000
vt 0.000000 0.000000
vt 1.000000 1.000000
vt 0.000000 1.000000
vt 0.000000 0.000000
vt 1.000000 0.000000
vt 1.000000 1.000000
vt 0.000000 0.000000
vt 1.000000 0.000000
vt 1.000000 1.000000
vt 0.000000 0.000000
vt 1.000000 1.000000
vt 0.000000 1.000000
vt 0.000000 0.000000
vt 1.000000 0.000000
vt 1.000000 1.000000
vt 0.000000 0.000000
vt 1.000000 0.000000
vt 1.000000 1.000000
vt 0.000000 0.000000
vt 1.000000 1.000000
vt 0.000000 1.000000
vt 0.000000 0.000000
vt 1.000000 0.000000
vt 1.000000 1.000000
vt 0.000000 0.000000
vt 1.000000 0.000000
vt 1.000000 1.000000
vt 0.000000 0.000000
vt 1.000000 1.000000
vt 0.000000 1.000000
vt 0.000000 0.000000
vt 1.000000 0.000000
vt 1.000000 1.000000
vt 0.000000 0.000000
vt 1.000000 0.000000
vt 1.000000 1.000000
vt 0.000000 0.000000
vt 1.000000 1.000000
vt 0.000000 1.000000
vt 0.000000 0.000000
vt 1.000000 0.000000
vt 1.000000 1.000000
vt 0.000000 0.000000
vt 1.000000 0.000000
vt 1.000000 1.000000
vt 0.000000 0.000000
vt 1.000000 1.000000
vt 0.000000 1.000000
vt 0.000000 0.000000
vt 1.000000 0.000000
vt 1.000000 1.000000
vt 0.000000 0.000000
vt 1.000000 0.000000
vt 1.000000 1.000000
vt 0.000000 0.000000
vt 1.000000 1.000000
vt 0.000000 1.000000
vt 0.000000 0.000000
vt 1.000000 0.000000
vt 1.000000 1.000000
vt 0.000000 0.000000
vt 1.000000 0.000000
vt 1.000000 1.000000
vt 0.000000 0.000000
vt 1.000000 1.000000
vt 0.000000 1.000000
vt 0.000000 0.000000
vt 1.000000 0.000000
vt 1.000000 1.000000
vt 0.000000 0.000000
vt 1.000000 0.000000
vt 1.000000 1.000000
vt 0.000000 0.000000
vt 1.000000 1.000000
vt 0.000000 1.000000
vt 0.000000 0.000000
vt 1.000000 0.000000
vt 1.000000 1.000000
vt 0.000000 0.000000
vt 1.000000 0.000000
vt 1.000000 1.000000
vt 0.000000 0.000000
vt 1.000000 1.000000
vt 0.000000 1.000000
vt 0.000000 0.000000
vt 1.000000 0.000000
vt 1.000000 1.000000
vt 0.000000 0.000000
vt 1.000000 0.000000
vt 1.000000 1.000000
vt 0.000000 0.000000
vt 1.000000 1.000000
vt 0.000000 1.000000
vt 0.000000 0.000000
vt 1.000000 0.000000
vt 1.000000 1.000000
vt 0.000000 0.000000
vt 1.000000 0.000000
vt 1.000000 1.000000
vt 0.000000 0.000000
vt 1.000000 1.000000
vt 0.000000 1.000000
vt 0.000000 0.000000
vt 1.000000 0.000000
vt 1.000000 1.000000
vt 0.000000 0.000000
vt 1.000000 0.000000
vt 1.000000 1.000000
vt 0.000000 0.000000
vt 1.000000 1.000000
vt 0.000000 1.000000
vt 0.000000 0.000000
vt 1.000000 0.000000
vt 1.000000 1.000000
vt 0.000000 0.000000
vt 1.000000 0.000000
vt 1.000000 1.000000
vt 0.000000 0.000000
vt 1.000000 1.000000
vt 0.000000 1.000000
vt 0.000000 0.000000
vt 1.000000 0.000000
vt 1.000000 1.000000
vt 0.000000 0.000000
vt 1.000000 0.000000
vt 1.000000 1.000000
vt 0.000000 0.000000
vt 1.000000 1.000000
vt 0.000000 1.000000
vt 0.000000 0.000000
vt 1.000000 0.000000
vt 1.000000 1.000000
vt 0.000000 0.000000
vt 1.000000 0.000000
vt 1.000000 1.000000
vt 0.000000 0.000000
vt 1.000000 1.000000
vt 0.000000 1.000000
vt 0.000000 0.000000
vt 1.000000 0.000000
vt 1.000000 1.000000
vt 0.000000 0.000000
vt 1.000000 0.000000
vt 1.000000 1.000000
vt 0.000000 0.000000
vt 1.000000 1.000000
vt 0.000000 1.000000
vt 0.000000 0.000000
vt 1.000000 0.000000
vt 1.000000 1.000000
vt 0.000000 0.000000
vt 1.000000 0.000000
vt 1.000000 1.000000
vt 0.000000 0.000000
vt 1.000000 1.000000
vt 0.000000 1.000000
vt 0.000000 0.000000
vt 1.000000 0.000000
vt 1.000000 1.000000
vt 0.000000 0.000000
vt 1.000000 0.000000
vt 1.000000 1.000000
vt 0.000000 0.000000
vt 1.000000 1.000000
vt 0.000000 1.000000
vt 0.000000 0.000000
vt 1.000000 0.000000
vt 1.000000 1.000000
vt 0.000000 0.000000
vt 1.000000 0.000000
vt 1.000000 1.000000
vt 0.000000 0.000000
vt 1.000000 1.000000
vt 0.000000 1.000000
vt 0.000000 0.000000
vt 1.000000 0.000000
vt 1.000000 1.000000
vt 0.000000 0.000000
vt 1.000000 0.000000
vt 1.000000 1.000000
vt 0.000000 0.000000
vt 1.000000 1.000000
vt 0.000000 1.000000
vt 0.000000 0.000000
vt 1.000000 0.000000
vt 1.000000 1.000000
vt 0.000000 0.000000
vt 1.000000 0.000000
vt 1.000000 1.000000
vt 0.000000 0.000000
vt 1.000000 1.000000
vt 0.000000 1.000000
vt 0.000000 0.000000
vt 1.000000 0.000000
vt 1.000000 1.000000
vt 0.000000 0.000000
vt 1.000000 0.000000
vt 1.000000 1.000000
vt 0.000000 0.000000
vt 1.000000 1.000000
vt 0.000000 1.000000
vt 0.000000 0.000000
vt 1.000000 0.000000
vt 1.000000 1.000000
vt 0.000000 0.000000
vt 1.000000 0.000000
vt 1.000000 1.000000
vt 0.000000 0.000000
vt 1.000000 1.000000
vt 0.000000 1.000000
vt 0.000000 0.000000
vt 1.000000 0.000000
vt 1.000000 1.000000
vt 0.000000 0.000000
vt 1.000000 0.000000
vt 1.000000 1.000000
vt 0.000000 0.000000
vt 1.000000 1.000000
vt 0.000000 1.000000
vt 0.000000 0.000000
vt 1.000000 0.000000
vt 1.000000 1.000000
vt 0.000000 0.000000
vt 1.000000 0.000000
vt 1.000000 1.000000
vt 0.000000 0.000000
vt 1.000000 1.000000
vt 0.000000 1.000000
vt 0.000000 0.000000
vt 1.000000 0.000000
vt 1.000000 1.000000
vt 0.000000 0.000000
vt 1.000000 0.000000
vt 1.000000 1.000000
vt 0.000000 0.000000
vt 1.000000 1.000000
vt 0.000000 1.000000
vt 0.000000 0.000000
vt 1.000000 0.000000
vt 1.000000 1.000000
vt 0.000000 0.000000
vt 1.000000 0.000000
vt 1.000000 1.000000
vt 0.000000 0.000000
vt 1.000000 1.000000
vt 0.000000 1.000000
vt 0.000000 0.000000
vt 1.000000 0.000000
vt 1.000000 1.000000
vt 0.000000 0.000000
vt 1.000000 0.000000
vt 1.000000 1.000000
vt 0.000000 0.000000
vt 1.000000 1.000000
vt 0.000000 1.000000
vt 0.000000 0.000000
vt 1.000000 0.000000
vt 1.000000 1.000000
vt 0.000000 0.000000
vt 1.000000 0.000000
vt 1.000000 1.000000
vt 0.000000 0.000000
vt 1.000000 1.000000
vt 0.000000 1.000000
vt 0.000000 0.000000
vt 1.000000 0.000000
vt 1.000000 1.000000
vt 0.000000 0.000000
vt 1.000000 0.000000
vt 1.000000 1.000000
vt 0.000000 0.000000
vt 1.000000 1.000000
vt 0.000000 1.000000
vt 0.000000 0.000000
vt 1.000000 0.000000
vt 1.000000 1.000000
vt 0.000000 0.000000
vt 1.000000 0.000000
vt 1.000000 1.000000
vt 0.000000 0.000000
vt 1.000000 1.000000
vt 0.000000 1.000000
vt 0.000000 0.000000
vt 1.000000 0.000000
vt 1.000000 1.000000
vt 0.000000 0.000000
vt 1.000000 0.000000
vt 1.000000 1.000000
vt 0.000000 0.000000
vt 1.000000 1.000000
vt 0.000000 1.000000
vt 0.000000 0.000000
vt 1.000000 0.000000
vt 1.000000 1.000000
vt 0.000000 0.000000
vt 1.000000 0.000000
vt 1.000000 1.000000
vt 0.000000 0.000000
vt 1.000000 1.000000
vt 0.000000 1.000000
vt 0.000000 0.000000
vt 1.000000 0.000000
vt 1.000000 1.000000
vt 0.000000 0.000000
vt 1.000000 0.000000
vt 1.000000 1.000000
vt 0.000000 0.000000
vt 1.000000 1.000000
vt 0.000000 1.000000
vt 0.000000 0.000000
vt 1.000000 0.000000
vt 1.000000 1.000000
vt 0.000000 0.000000
vt 1.000000 0.000000
vt 1.000000 1.000000
vt 0.000000 0.000000
vt 1.000000 1.000000
vt 0.000000 1.000000
vt 0.000000 0.000000
vt 1.000000 0.000000
vt 1.000000 1.000000
vt 0.000000 0.000000
vt 1.000000 0.000000
vt 1.000000 1.000000
vt 0.000000 0.000000
vt 1.000000 1.000000
vt 0.000000 1.000000
vt 0.000000 0.000000
vt 1.000000 0.000000
vt 1.000000 1.000000
vt 0.000000 0.000000
vt 1.000000 0.000000
vt 1.000000 1.000000
vt 0.000000 0.000000
vt 1.000000 1.000000
vt 0.000000 1.000000
vt 0.000000 0.000000
vt 1.000000 0.000000
vt 1.000000 1.000000
vt 0.000000 0.000000
vt 1.000000 0.000000
vt 1.000000 1.000000
vt 0.000000 0.000000
vt 1.000000 1.000000
vt 0.000000 1.000000
vt 0.000000 0.000000
vt 1.000000 0.000000
vt 1.000000 1.000000
vt 0.000000 0.000000
vt 1.000000 0.000000
vt 1.000000 1.000000
vt 0.000000 0.000000
vt 1.000000 1.000000
vt 0.000000 1.000000
vt 0.000000 0.000000
vt 1.000000 0.000000
vt 1.000000 1.000000
vt 0.000000 0.000000
vt 1.000000 0.000000
vt 1.000000 1.000000
vt 0.000000 0.000000
vt 1.000000 1.000000
vt 0.000000 1.000000
vt 0.000000 0.000000
vt 1.000000 0.000000
vt 1.000000 1.000000
vt 0.000000 0.000000
vt 1.000000 0.000000
vt 1.000000 1.000000
vt 0.000000 0.000000
vt 1.000000 1.000000
vt 0.000000 1.000000
vt 0.000000 0.000000
vt 1.000000 0.000000
vt 1.000000 1.000000
vt 0.000000 0.000000
vt 1.000000 0.000000
vt 1.000000 1.000000
vt 0.000000 0.000000
vt 1.000000 1.000000
vt 0.000000 1.000000
vt 0.000000 0.000000
vt 1.000000 0.000000
vt 1.000000 1.000000
vt 0.000000 0.000000
vt 1.000000 0.000000
vt 1.000000 1.000000
vt 0.000000 0.000000
vt 1.000000 1.000000
vt 0.000000 1.000000
vt 0.000000 0.000000
vt 1.000000 0.000000
vt 1.000000 1.000000
vt 0.000000 0.000000
vt 1.000000 0.000000
vt 1.000000 1.000000
vt 0.000000 0.000000
vt 1.000000 1.000000
vt 0.000000 1.000000
vt 0.000000 0.000000
vt 1.000000 0.000000
vt 1.000000 1.000000
vt 0.000000 0.000000
vt 1.000000 0.000000
vt 1.000000 1.000000
vt 0.000000 0.000000
vt 1.000000 1.000000
vt 0.000000 1.000000
vt 0.000000 0.000000
vt 1.000000 0.000000
vt 1.000000 1.000000
vt 0.000000 0.000000
vt 1.000000 0.000000
vt 1.000000 1.000000
vt 0.000000 0.000000
vt 1.000000 1.000000
vt 0.000000 1.000000
vt 0.000000 0.000000
vt 1.000000 0.000000
vt 1.000000 1.000000
vt 0.000000 0.000000
vt 1.000000 0.000000
vt 1.000000 1.000000
vt 0.000000 0.000000
vt 1.000000 1.000000
vt 0.000000 1.000000
vt 0.000000 0.000000
vt 1.000000 0.000000
vt 1.000000 1.000000
vt 0.000000 0.000000
vt 1.000000 0.000000
vt 1.000000 1.000000
vt 0.000000 0.000000
vt 1.000000 1.000000
vt 0.000000 1.000000
vt 0.000000 0.000000
vt 1.000000 0.000000
vt 1.000000 1.000000
vt 0.000000 0.000000
vt 1.000000 0.000000
vt 1.000000 1.000000
vt 0.000000 0.000000
vt 1.000000 1.000000
vt 0.000000 1.000000
vt 0.000000 0.000000
vt 1.000000 0.000000
vt 1.000000 1.000000
vt 0.000000 0.000000
vt 1.000000 0.000000
vt 1.000000 1.000000
vt 0.000000 0.000000
vt 1.000000 1.000000
vt 0.000000 1.000000
vt 0.000000 0.000000
vt 1.000000 0.000000
vt 1.000000 1.000000
vt 0.000000 0.000000
vt 1.000000 0.000000
vt 1.000000 1.000000
vt 0.000000 0.000000
vt 1.000000 1.000000
vt 0.000000 1.000000
vt 0.000000 0.000000
vt 1.000000 0.000000
vt 1.000000 1.000000
vt 0.000000 0.000000
vt 1.000000 0.000000
vt 1.000000 1.000000
vt 0.000000 0.000000
vt 1.000000 1.000000
vt 0.000000 1.000000
vt 0.000000 0.000000
vt 1.000000 0.000000
vt 1.000000 1.000000
vt 0.000000 0.000000
vt 1.000000 0.000000
vt 1.000000 1.000000
vt 0.000000 0.000000
vt 1.000000 1.000000
vt 0.000000 1.000000
vt 0.000000 0.000000
vt 1.000000 0.000000
vt 1.000000 1.000000
vt 0.000000 0.000000
vt 1.000000 0.000000
vt 1.000000 1.000000
vt 0.000000 0.000000
vt 1.000000 1.000000
vt 0.000000 1.000000
vt 0.000000 0.000000
vt 1.000000 0.000000
vt 1.000000 1.000000
vt 0.000000 0.000000
vt 1.000000 0.000000
vt 1.000000 1.000000
vt 0.000000 0.000000
vt 1.000000 1.000000
vt 0.000000 1.000000
vt 0.000000 0.000000
vt 1.000000 0.000000
vt 1.000000 1.000000
vt 0.000000 0.000000
vt 1.000000 0.000000
vt 1.000000 1.000000
vt 0.000000 0.000000
vt 1.000000 1.000000
vt 0.000000 1.000000
vt 0.000000 0.000000
vt 1.000000 0.000000
vt 1.000000 1.000000
vt 0.000000 0.000000
vt 1.000000 0.000000
vt 1.000000 1.000000
vt 0.000000 0.000000
vt 1.000000 1.000000
vt 0.000000 1.000000
vt 0.000000 0.000000
vt 1.000000 0.000000
vt 1.000000 1.000000
vt 0.000000 0.000000
vt 1.000000 0.000000
vt 1.000000 1.000000
vt 0.000000 0.000000
vt 1.000000 1.000000
vt 0.000000 1.000000
vn 0.000000 1.000000 0.000000
vn 0.000000 1.000000 0.000000
vn 0.000000 1.000000 0.000000
vn 0.000000 1.000000 0.000000
vn 0.000000 1.000000 0.000000
vn 0.000000 1.000000 0.000000
vn 0.000000 1.000000 0.000000
vn 0.000000 1.000000 0.000000
vn 0.000000 1.000000 0.000000
vn 0.000000 1.000000 0.000000
vn 0.000000 1.000000 0.000000
vn 0.000000 1.000000 0.000000
vn 0.000000 1.000000 0.000000
vn 0.000000 1.000000 0.000000
vn 0.000000 1.000000 0.000000
vn 0.000000 1.000000 0.000000
vn 0.000000 1.000000 0.000000
vn 0.000000 1.000000 0.000000
vn 0.000000 1.000000 0.000000
vn 0.000000 1.000000 0.000000
vn 0.000000 1.000000 0.000000
vn 0.000000 1.000000 0.000000
vn 0.000000 1.000000 0.000000
vn 0.000000 1.000000 0.000000
vn 0.000000 1.000000 0.000000
vn 0.000000 1.000000 0.000000
vn 0.000000 1.000000 0.000000
vn 0.000000 1.000000 0.000000
vn 0.000000 1.000000 0.000000
vn 0.000000 1.000000 0.000000
vn 0.000000 1.000000 0.000000
vn 0.000000 1.000000 0.000000
vn 0.000000 1.000000 0.000000
vn 0.000000 1.000000 0.000000
vn 0.000000 1.000000 0.000000
vn 0.000000 1.000000 0.000000
vn 0.000000 1.000000 0.000000
vn 0.000000 1.000000 0.000000
vn 0.000000 1.000000 0.000000
vn 0.000000 1.000000 0.000000
vn 0.000000 1.000000 0.000000
vn 0.000000 1.000000 0.000000
vn 0.000000 1.000000 0.000000
vn 0.000000 1.000000 0.000000
vn 0.000000 1.000000 0.000000
vn 0.000000 1.000000 0.000000
vn 0.000000 1.000000 0.000000
vn 0.000000 1.000000 0.000000
vn 0.000000 1.000000 0.000000
vn 0.000000 1.000000 0.000000
vn 0.000000 1.000000 0.000000
vn 0.000000 1.000000 0.000000
vn 0.000000 1.000000 0.000000
vn 0.000000 1.000000 0.000000
vn 0.000000 1.000000 0.000000
vn 0.000000 1.000000 0.000000
vn 0.000000 1.000000 0.000000
vn 0.000000 1.000000 0.000000
vn 0.000000 1.000000 0.000000
vn 0.000000 1.000000 0.000000
vn 0.000000 1.000000 0.000000
vn 0.000000 1.000000 0.000000
vn 0.000000 1.000000 0.000000
vn 0.000000 1.000000 0.000000
vn 0.000000 1.000000 0.000000
vn 0.000000 1.000000 0.000000
vn 0.000000 1.000000 0.000000
vn 0.000000 1.000000 0.000000
vn 0.000000 1.000000 0.000000
vn 0.000000 1.000000 0.000000
vn 0.000000 1.000000 0.000000
vn 0.000000 1.000000 0.000000
vn 0.000000 1.000000 0.000000
vn 0.000000 1.000000 0.000000
vn 0.000000 1.000000 0.000000
vn 0.000000 1.000000 0.000000
vn 0.000000 1.000000 0.000000
vn 0.000000 1.000000 0.000000
vn 0.000000 1.000000 0.000000
vn 0.000000 1.000000 0.000000
vn 0.000000 1.000000 0.000000
vn 0.000000 1.000000 0.000000
vn 0.000000 1.000000 0.000000
vn 0.000000 1.000000 0.000000
vn 0.000000 1.000000 0.000000
vn 0.000000 1.000000 0.000000
vn 0.000000 1.000000 0.000000
vn 0.000000 1.000000 0.000000
vn 0.000000 1.000000 0.000000
vn 0.000000 1.000000 0.000000
vn 0.000000 1.000000 0.000000
vn 0.000000 1.000000 0.000000
vn 0.000000 1.000000 0.000000
vn 0.000000 1.000000 0.000000
vn 0.000000 1.000000 0.000000
vn 0.000000 1.000000 0.000000
vn 0.000000 1.000000 0.000000
vn 0.000000 1.000000 0.000000
vn 0.000000 1.000000 0.000000
vn 0.000000 1.000000 0.000000
vn 0.000000 1.000000 0.000000
vn 0.000000 1.000000 0.000000
vn 0.000000 1.000000 0.000000
vn 0.000000 1.000000 0.000000
vn 0.000000 1.000000 0.000000
vn 0.000000 1.000000 0.000000
vn 0.000000 1.000000 0.000000
vn 0.000000 1.000000 0.000000
vn 0.000000 1.000000 0.000000
vn 0.000000 1.000000 0.000000
vn 0.000000 1.000000 0.000000
vn 0.000000 1.000000 0.000000
vn 0.000000 1.000000 0.000000
vn 0.000000 1.000000 0.000000
vn 0.000000 1.000000 0.000000
vn 0.000000 1.000000 0.000000
vn 0.000000 1.000000 0.000000
vn 0.000000 1.000000 0.000000
vn 0.000000 1.000000 0.000000
vn 0.000000 1.000000 0.000000
vn 0.000000 1.000000 0.000000
vn 0.000000 1.000000 0.000000
vn 0.000000 1.000000 0.000000
vn 0.000000 1.000000 0.000000
vn 0.000000 1.000000 0.000000
vn 0.000000 1.000000 0.000000
vn 0.000000 1.000000 0.000000
vn 0.000000 1.000000 0.000000
vn 0.000000 1.000000 0.000000
vn 0.000000 1.000000 0.000000
vn 0.000000 1.000000 0.000000
vn 0.000000 1.000000 0.000000
vn 0.000000 1.000000 0.000000
vn 0.000000 1.000000 0.000000
vn 0.000000 1.000000 0.000000
vn 0.000000 1.000000 0.000000
vn 0.000000 1.000000 0.000000
vn 0.000000 1.000000 0.000000
vn 0.000000 1.000000 0.000000
vn 0.000000 1.000000 0.000000
vn 0.000000 1.000000 0.000000
vn 0.000000 1.000000 0.000000
vn 0.000000 1.000000 0.000000
vn 0.000000 1.000000 0.000000
vn 0.000000 1.000000 0.000000
vn 0.000000 1.000000 0.000000
vn 0.000000 1.000000 0.000000
vn 0.000000 1.000000 0.000000
vn 0.000000 1.000000 0.000000
vn 0.000000 1.000000 0.000000
vn 0.000000 1.000000 0.000000
vn 0.000000 1.000000 0.000000
vn 0.000000 1.000000 0.000000
vn 0.000000 1.000000 0.000000
vn 0.000000 1.000000 0.000000
vn 0.000000 1.000000 0.000000
vn 0.000000 1.000000 0.000000
vn 0.000000 1.000000 0.000000
vn 0.000000 1.000000 0.000000
vn 0.000000 1.000000 0.000000
vn 0.000000 1.000000 0.000000
vn 0.000000 1.000000 0.000000
vn 0.000000 1.000000 0.000000
vn 0.000000 1.000000 0.000000
vn 0.000000 1.000000 0.000000
vn 0.000000 1.000000 0.000000
vn 0.000000 1.000000 0.000000
vn 0.000000 1.000000 0.000000
vn 0.000000 1.000000 0.000000
vn 0.000000 1.000000 0.000000
vn 0.000000 1.000000 0.000000
vn 0.000000 1.000000 0.000000
vn 0.000000 1.000000 0.000000
vn 0.000000 1.000000 0.000000
vn 0.000000 1.000000 0.000000
vn 0.000000 1.000000 0.000000
vn 0.000000 1.000000 0.000000
vn 0.000000 1.000000 0.000000
vn 0.000000 1.000000 0.000000
vn 0.000000 1.000000 0.000000
vn 0.000000 1.000000 0.000000
vn 0.000000 1.000000 0.000000
vn 0.000000 1.000000 0.000000
vn 0.000000 1.000000 0.000000
vn 0.000000 1.000000 0.000000
vn 0.000000 1.000000 0.000000
vn 0.000000 1.000000 0.000000
vn 0.000000 1.000000 0.000000
vn 0.000000 1.000000 0.000000
vn 0.000000 1.000000 0.000000
vn 0.000000 1.000000 0.000000
vn 0.000000 1.000000 0.000000
vn 0.000000 1.000000 0.000000
vn 0.000000 1.000000 0.000000
vn 0.000000 1.000000 0.000000
vn 0.000000 1.000000 0.000000
vn 0.000000 1.000000 0.000000
vn 0.000000 1.000000 0.000000
vn 0.000000 1.000000 0.000000
vn 0.000000 1.000000 0.000000
vn 0.000000 1.000000 0.000000
vn 0.000000 1.000000 0.000000
vn 0.000000 1.000000 0.000000
vn 0.000000 1.000000 0.000000
vn 0.000000 1.000000 0.000000
vn 0.000000 1.000000 0.000000
vn 0.000000 1.000000 0.000000
vn 0.000000 1.000000 0.000000
vn 0.000000 1.000000 0.000000
vn 0.000000 1.000000 0.000000
vn 0.000000 1.000000 0.000000
vn 0.000000 1.000000 0.000000
vn 0.000000 1.000000 0.000000
vn 0.000000 1.000000 0.000000
vn 0.000000 1.000000 0.000000
vn 0.000000 1.000000 0.000000
vn 0.000000 1.000000 0.000000
vn 0.000000 1.000000 0.000000
vn 0.000000 1.000000 0.000000
vn 0.000000 1.000000 0.000000
vn 0.000000 1.000000 0.000000
vn 0.000000 1.000000 0.000000
vn 0.000000 1.000000 0.000000
vn 0.000000 1.000000 0.000000
vn 0.000000 1.000000 0.000000
vn 0.000000 1.000000 0.000000
vn 0.000000 1.000000 0.000000
vn 0.000000 1.000000 0.000000
vn 0.000000 1.000000 0.000000
vn 0.000000 1.000000 0.000000
vn 0.000000 1.000000 0.000000
vn 0.000000 1.000000 0.000000
vn 0.000000 1.000000 0.000000
vn 0.000000 1.000000 0.000000
vn 0.000000 1.000000 0.000000
vn 0.000000 1.000000 0.000000
vn 0.000000 1.000000 0.000000
vn 0.000000 1.000000 0.000000
vn 0.000000 1.000000 0.000000
vn 0.000000 1.000000 0.000000
vn 0.000000 1.000000 0.000000
vn 0.000000 1.000000 0.000000
vn 0.000000 1.000000 0.000000
vn 0.000000 1.000000 0.000000
vn 0.000000 1.000000 0.000000
vn 0.000000 1.000000 0.000000
vn 0.000000 1.000000 0.000000
vn 0.000000 1.000000 0.000000
vn 0.000000 1.000000 0.000000
vn 0.000000 1.000000 0.000000
vn 0.000000 1.000000 0.000000
vn 0.000000 1.000000 0.000000
vn 0.000000 1.000000 0.000000
vn 0.000000 1.000000 0.000000
vn 0.000000 1.000000 0.000000
vn 0.000000 1.000000 0.000000
vn 0.000000 1.000000 0.000000
vn 0.000000 1.000000 0.000000
vn 0.000000 1.000000 0.000000
vn 0.000000 1.000000 0.000000
vn 0.000000 1.000000 0.000000
vn 0.000000 1.000000 0.000000
vn 0.000000 1.000000 0.000000
vn 0.000000 1.000000 0.000000
vn 0.000000 1.000000 0.000000
vn 0.000000 1.000000 0.000000
vn 0.000000 1.000000 0.000000
vn 0.000000 1.000000 0.000000
vn 0.000000 1.000000 0.000000
vn 0.000000 1.000000 0.000000
vn 0.000000 1.000000 0.000000
vn 0.000000 1.000000 0.000000
vn 0.000000 1.000000 0.000000
vn 0.000000 1.000000 0.000000
vn 0.000000 1.000000 0.000000
vn 0.000000 1.000000 0.000000
vn 0.000000 1.000000 0.000000
vn 0.000000 1.000000 0.000000
vn 0.000000 1.000000 0.000000
vn 0.000000 1.000000 0.000000
vn 0.000000 1.000000 0.000000
vn 0.000000 1.000000 0.000000
vn 0.000000 1.000000 0.000000
vn 0.000000 1.000000 0.000000
vn 0.000000 1.000000 0.000000
vn 0.000000 1.000000 0.000000
vn 0.000000 1.000000 0.000000
vn 0.000000 1.000000 0.000000
vn 0.000000 1.000000 0.000000
vn 0.000000 1.000000 0.000000
vn 0.000000 1.000000 0.000000
vn 0.000000 1.000000 0.000000
vn 0.000000 1.000000 0.000000
vn 0.000000 1.000000 0.000000
vn 0.000000 1.000000 0.000000
vn 0.000000 1.000000 0.000000
vn 0.000000 1.000000 0.000000
vn 0.000000 1.000000 0.000000
vn 0.000000 1.000000 0.000000
vn 0.000000 1.000000 0.000000
vn 0.000000 1.000000 0.000000
vn 0.000000 1.000000 0.000000
vn 0.000000 1.000000 0.000000
vn 0.000000 1.000000 0.000000
vn 0.000000 1.000000 0.000000
vn 0.000000 1.000000 0.000000
vn 0.000000 1.000000 0.000000
vn 0.000000 1.000000 0.000000
vn 0.000000 1.000000 0.000000
vn 0.000000 1.000000 0.000000
vn 0.000000 1.000000 0.000000
vn 0.000000 1.000000 0.000000
vn 0.000000 1.000000 0.000000
vn 0.000000 1.000000 0.000000
vn 0.000000 1.000000 0.000000
vn 0.000000 1.000000 0.000000
vn 0.000000 1.000000 0.000000
vn 0.000000 1.000000 0.000000
vn 0.000000 1.000000 0.000000
vn 0.000000 1.000000 0.000000
vn 0.000000 1.000000 0.000000
vn 0.000000 1.000000 0.000000
vn 0.000000 1.000000 0.000000
vn 0.000000 1.000000 0.000000
vn 0.000000 1.000000 0.000000
vn 0.000000 1.000000 0.000000
vn 0.000000 1.000000 0.000000
vn 0.000000 1.000000 0.000000
vn 0.000000 1.000000 0.000000
vn 0.000000 1.000000 0.000000
vn 0.000000 1.000000 0.000000
vn 0.000000 1.000000 0.000000
vn 0.000000 1.000000 0.000000
vn 0.000000 1.000000 0.000000
vn 0.000000 1.000000 0.000000
vn 0.000000 1.000000 0.000000
vn 0.000000 1.000000 0.000000
vn 0.000000 1.000000 0.000000
vn 0.000000 1.000000 0.000000
vn 0.000000 1.000000 0.000000
vn 0.000000 1.000000 0.000000
vn 0.000000 1.000000 0.000000
vn 0.000000 1.000000 0.000000
vn 0.000000 1.000000 0.000000
vn 0.000000 1.000000 0.000000
vn 0.000000 1.000000 0.000000
vn 0.000000 1.000000 0.000000
vn 0.000000 1.000000 0.000000
vn 0.000000 1.000000 0.000000
vn 0.000000 1.000000 0.000000
vn 0.000000 1.000000 0.000000
vn 0.000000 1.000000 0.000000
vn 0.000000 1.000000 0.000000
vn 0.000000 1.000000 0.000000
vn 0.000000 1.000000 0.000000
vn 0.000000 1.000000 0.000000
vn 0.000000 1.000000 0.000000
vn 0.000000 1.000000 0.000000
vn 0.000000 1.000000 0.000000
vn 0.000000 1.000000 0.000000
vn 0.000000 1.000000 0.000000
vn 0.000000 1.000000 0.000000
vn 0.000000 1.000000 0.000000
vn 0.000000 1.000000 0.000000
vn 0.000000 1.000000 0.000000
vn 0.000000 1.000000 0.000000
vn 0.000000 1.000000 0.000000
vn 0.000000 1.000000 0.000000
vn 0.000000 1.000000 0.000000
vn 0.000000 1.000000 0.000000
vn 0.000000 1.000000 0.000000
vn 0.000000 1.000000 0.000000
vn 0.000000 1.000000 0.000000
vn 0.000000 1.000000 0.000000
vn 0.000000 1.000000 0.000000
vn 0.000000 1.000000 0.000000
vn 0.000000 1.000000 0.000000
vn 0.000000 1.000000 0.000000
vn 0.000000 1.000000 0.000000
vn 0.000000 1.000000 0.000000
vn 0.000000 1.000000 0.000000
vn 0.000000 1.000000 0.000000
vn 0.000000 1.000000 0.000000
vn 0.000000 1.000000 0.000000
vn 0.000000 1.000000 0.000000
vn 0.000000 1.000000 0.000000
vn 0.000000 1.000000 0.000000
vn 0.000000 1.000000 0.000000
vn 0.000000 1.000000 0.000000
vn 0.000000 1.000000 0.000000
vn 0.000000 1.000000 0.000000
vn 0.000000 1.000000 0.000000
vn 0.000000 1.000000 0.000000
vn 0.000000 1.000000 0.000000
vn 0.000000 1.000000 0.000000
vn 0.000000 1.000000 0.000000
vn 0.000000 1.000000 0.000000
vn 0.000000 1.000000 0.000000
vn 0.000000 1.000000 0.000000
vn 0.000000 1.000000 0.000000
vn 0.000000 1.000000 0.000000
vn 0.000000 1.000000 0.000000
vn 0.000000 1.000000 0.000000
vn 0.000000 1.000000 0.000000
vn 0.000000 1.000000 0.000000
vn 0.000000 1.000000 0.000000
vn 0.000000 1.000000 0.000000
vn 0.000000 1.000000 0.000000
vn 0.000000 1.000000 0.000000
vn 0.000000 1.000000 0.000000
vn 0.000000 1.000000 0.000000
vn 0.000000 1.000000 0.000000
vn 0.000000 1.000000 0.000000
vn 0.000000 1.000000 0.000000
vn 0.000000 1.000000 0.000000
vn 0.000000 1.000000 0.000000
vn 0.000000 1.000000 0.000000
vn 0.000000 1.000000 0.000000
vn 0.000000 1.000000 0.000000
vn 0.000000 1.000000 0.000000
vn 0.000000 1.000000 0.000000
vn 0.000000 1.000000 0.000000
vn 0.000000 1.000000 0.000000
vn 0.000000 1.000000 0.000000
vn 0.000000 1.000000 0.000000
vn 0.000000 1.000000 0.000000
vn 0.000000 1.000000 0.000000
vn 0.000000 1.000000 0.000000
vn 0.000000 1.000000 0.000000
vn 0.000000 1.000000 0.000000
vn 0.000000 1.000000 0.000000
vn 0.000000 1.000000 0.000000
vn 0.000000 1.000000 0.000000
vn 0.000000 1.000000 0.000000
vn 0.000000 1.000000 0.000000
vn 0.000000 1.000000 0.000000
vn 0.000000 1.000000 0.000000
vn 0.000000 1.000000 0.000000
vn 0.000000 1.000000 0.000000
vn 0.000000 1.000000 0.000000
vn 0.000000 1.000000 0.000000
vn 0.000000 1.000000 0.000000
vn 0.000000 1.000000 0.000000
vn 0.000000 1.000000 0.000000
vn 0.000000 1.000000 0.000000
vn 0.000000 1.000000 0.000000
vn 0.000000 1.000000 0.000000
vn 0.000000 1.000000 0.000000
vn 0.000000 1.000000 0.000000
vn 0.000000 1.000000 0.000000
vn 0.000000 1.000000 0.000000
vn 0.000000 1.000000 0.000000
vn 0.000000 1.000000 0.000000
vn 0.000000 1.000000 0.000000
vn 0.000000 1.000000 0.000000
vn 0.000000 1.000000 0.000000
vn 0.000000 1.000000 0.000000
vn 0.000000 1.000000 0.000000
vn 0.000000 1.000000 0.000000
vn 0.000000 1.000000 0.000000
vn 0.000000 1.000000 0.000000
vn 0.000000 1.000000 0.000000
vn 0.000000 1.000000 0.000000
vn 0.000000 1.000000 0.000000
vn 0.000000 1.000000 0.000000
vn 0.000000 1.000000 0.000000
vn 0.000000 1.000000 0.000000
vn 0.000000 1.000000 0.000000
vn 0.000000 1.000000 0.000000
vn 0.000000 1.000000 0.000000
vn 0.000000 1.000000 0.000000
vn 0.000000 1.000000 0.000000
vn 0.000000 1.000000 0.000000
vn 0.000000 1.000000 0.000000
vn 0.000000 1.000000 0.000000
vn 0.000000 1.000000 0.000000
vn 0.000000 1.000000 0.000000
vn 0.000000 1.000000 0.000000
vn 0.000000 1.000000 0.000000
vn 0.000000 1.000000 0.000000
vn 0.000000 1.000000 0.000000
vn 0.000000 1.000000 0.000000
vn 0.000000 1.000000 0.000000
vn 0.000000 1.000000 0.000000
vn 0.000000 1.000000 0.000000
vn 0.000000 1.000000 0.000000
vn 0.000000 1.000000 0.000000
vn 0.000000 1.000000 0.000000
vn 0.000000 1.000000 0.000000
vn 0.000000 1.000000 0.000000
vn 0.000000 1.000000 0.000000
vn 0.000000 1.000000 0.000000
vn 0.000000 1.000000 0.000000
vn 0.000000 1.000000 0.000000
vn 0.000000 1.000000 0.000000
vn 0.000000 1.000000 0.000000
vn 0.000000 1.000000 0.000000
vn 0.000000 1.000000 0.000000
vn 0.000000 1.000000 0.000000
vn 0.000000 1.000000 0.000000
vn 0.000000 1.000000 0.000000
vn 0.000000 1.000000 0.000000
vn 0.000000 1.000000 0.000000
vn 0.000000 1.000000 0.000000
vn 0.000000 1.000000 0.000000
vn 0.000000 1.000000 0.000000
vn 0.000000 1.000000 0.000000
vn 0.000000 1.000000 0.000000
vn 0.000000 1.000000 0.000000
vn 0.000000 1.000000 0.000000
vn 0.000000 1.000000 0.000000
vn 0.000000 1.000000 0.000000
vn 0.000000 1.000000 0.000000
vn 0.000000 1.000000 0.000000
vn 0.000000 1.000000 0.000000
vn 0.000000 1.000000 0.000000
vn 0.000000 1.000000 0.000000
vn 0.000000 1.000000 0.000000
vn 0.000000 1.000000 0.000000
vn 0.000000 1.000000 0.000000
vn 0.000000 1.000000 0.000000
vn 0.000000 1.000000 0.000000
vn 0.000000 1.000000 0.000000
vn 0.000000 1.000000 0.000000
vn 0.000000 1.000000 0.000000
vn 0.000000 1.000000 0.000000
vn 0.000000 1.000000 0.000000
vn 0.000000 1.000000 0.000000
vn 0.000000 1.000000 0.000000
vn 0.000000 1.000000 0.000000
vn 0.000000 1.000000 0.000000
vn 0.000000 1.000000 0.000000
vn 0.000000 1.000000 0.000000
vn 0.000000 1.000000 0.000000
vn 0.000000 1.000000 0.000000
vn 0.000000 1.000000 0.000000
vn 0.000000 1.000000 0.000000
vn 0.000000 1.000000 0.000000
vn 0.000000 1.000000 0.000000
vn 0.000000 1.000000 0.000000
vn 0.000000 1.000000 0.000000
vn 0.000000 1.000000 0.000000
vn 0.000000 1.000000 0.000000
vn 0.000000 1.000000 0.000000
vn 0.000000 1.000000 0.000000
vn 0.000000 1.000000 0.000000
vn 0.000000 1.000000 0.000000
vn 0.000000 1.000000 0.000000
vn 0.000000 1.000000 0.000000
vn 0.000000 1.000000 0.000000
vn 0.000000 1.000000 0.000000
vn 0.000000 1.000000 0.000000
vn 0.000000 1.000000 0.000000
vn 0.000000 1.000000 0.000000
vn 0.000000 1.000000 0.000000
vn 0.000000 1.000000 0.000000
vn 0.000000 1.000000 0.000000
vn 0.000000 1.000000 0.000000
vn 0.000000 1.000000 0.000000
vn 0.000000 1.000000 0.000000
vn 0.000000 1.000000 0.000000
vn 0.000000 1.000000 0.000000
vn 0.000000 1.000000 0.000000
vn 0.000000 1.000000 0.000000
vn 0.000000 1.000000 0.000000
vn 0.000000 1.000000 0.000000
vn 0.000000 1.000000 0.000000
vn 0.000000 1.000000 0.000000
vn 0.000000 1.000000 0.000000
vn 0.000000 1.000000 0.000000
vn 0.000000 1.000000 0.000000
vn 0.000000 1.000000 0.000000
vn 0.000000 1.000000 0.000000
vn 0.000000 1.000000 0.000000
vn 0.000000 1.000000 0.000000
vn 0.000000 1.000000 0.000000
vn 0.000000 1.000000 0.000000
vn 0.000000 1.000000 0.000000
vn 0.000000 1.000000 0.000000
vn 0.000000 1.000000 0.000000
vn 0.000000 1.000000 0.000000
vn 0.000000 1.000000 0.000000
vn 0.000000 1.000000 0.000000
vn 0.000000 1.000000 0.000000
vn 0.000000 1.000000 0.000000
vn 0.000000 1.000000 0.000000
vn 0.000000 1.000000 0.000000
vn 0.000000 1.000000 0.000000
vn 0.000000 1.000000 0.000000
vn 0.000000 1.000000 0.000000
vn 0.000000 1.000000 0.000000
vn 0.000000 1.000000 0.000000
vn 0.000000 1.000000 0.000000
vn 0.000000 1.000000 0.000000
vn 0.000000 1.000000 0.000000
vn 0.000000 1.000000 0.000000
vn 0.000000 1.000000 0.000000
vn 0.000000 1.000000 0.000000
vn 0.000000 1.000000 0.000000
vn 0.000000 1.000000 0.000000
vn 0.000000 1.000000 0.000000
vn 0.000000 1.000000 0.000000
vn 0.000000 1.000000 0.000000
vn 0.000000 1.000000 0.000000
vn 0.000000 1.000000 0.000000
vn 0.000000 1.000000 0.000000
vn 0.000000 1.000000 0.000000
vn 0.000000 1.000000 0.000000
vn 0.000000 1.000000 0.000000
vn 0.000000 1.000000 0.000000
vn 0.000000 1.000000 0.000000
vn 0.000000 1.000000 0.000000
vn 0.000000 1.000000 0.000000
vn 0.000000 1.000000 0.000000
vn 0.000000 1.000000 0.000000
vn 0.000000 1.000000 0.000000
vn 0.000000 1.000000 0.000000
vn 0.000000 1.000000 0.000000
vn 0.000000 1.000000 0.000000
vn 0.000000 1.000000 0.000000
vn 0.000000 1.000000 0.000000
vn 0.000000 1.000000 0.000000
vn 0.000000 1.000000 0.000000
vn 0.000000 1.000000 0.000000
vn 0.000000 1.000000 0.000000
vn 0.000000 1.000000 0.000000
vn 0.000000 1.000000 0.000000
vn 0.000000 1.000000 0.000000
vn 0.000000 1.000000 0.000000
vn 0.000000 1.000000 0.000000
vn 0.000000 1.000000 0.000000
vn 0.000000 1.000000 0.000000
vn 0.000000 1.000000 0.000000
vn 0.000000 1.000000 0.000000
vn 0.000000 1.000000 0.000000
vn 0.000000 1.000000 0.000000
vn 0.000000 1.000000 0.000000
vn 0.000000 1.000000 0.000000
vn 0.000000 1.000000 0.000000
vn 0.000000 1.000000 0.000000
vn 0.000000 1.000000 0.000000
vn 0.000000 1.000000 0.000000
vn 0.000000 1.000000 0.000000
vn 0.000000 1.000000 0.000000
vn 0.000000 1.000000 0.000000
vn 0.000000 1.000000 0.000000
vn 0.000000 1.000000 0.000000
vn 0.000000 1.000000 0.000000
usemtl water
f 1/1/1 2/2/2 3/3/3
usemtl shallows
f 4/4/4 5/5/5 6/6/6
f 7/7/7 8/8/8 9/9/9
usemtl water
f 10/10/10 11/11/11 12/12/12
usemtl shallows
f 13/13/13 14/14/14 15/15/15
f 16/16/16 17/17/17 18/18/18
usemtl water
f 19/19/19 20/20/20 21/21/21
usemtl shallows
f 22/22/22 23/23/23 24/24/24
f 25/25/25 26/26/26 27/27/27
usemtl water
f 28/28/28 29/29/29 30/30/30
usemtl shallows
f 31/31/31 32/32/32 33/33/33
f 34/34/34 35/35/35 36/36/36
usemtl water
f 37/37/37 38/38/38 39/39/39
usemtl shallows
f 40/40/40 41/41/41 42/42/42
f 43/43/43 44/44/44 45/45/45
usemtl water
f 46/46/46 47/47/47 48/48/48
usemtl shallows
f 49/49/49 50/50/50 51/51/51
f 52/52/52 53/53/53 54/54/54
usemtl water
f 55/55/55 56/56/56 57/57/57
usemtl shallows
f 58/58/58 59/59/59 60/60/60
f 61/61/61 62/62/62 63/63/63
usemtl water
f 64/64/64 65/65/65 66/66/66
usemtl shallows
f 67/67/67 68/68/68 69/69/69
f 70/70/70 71/71/71 72/72/72
usemtl water
f 73/73/73 74/74/74 75/75/75
usemtl shallows
f 76/76/76 77/77/77 78/78/78
f 79/79/79 80/80/80 81/81/81
usemtl water
f 82/82/82 83/83/83 84/84/84
usemtl shallows
f 85/85/85 86/86/86 87/87/87
f 88/88/88 89/89/89 90/90/90
usemtl water
f 91/91/91 92/92/92 93/93/93
usemtl shallows
f 94/94/94 95/95/95 96/96/96
f 97/97/97 98/98/98 99/99/99
usemtl water
f 100/100/100 101/101/101 102/102/102
usemtl shallows
f 103/103/103 104/104/104 105/105/105
f 106/106/106 107/107/107 108/108/108
usemtl water
f 109/109/109 110/110/110 111/111/111
usemtl shallows
f 112/112/112 113/113/113 114/114/114
f 115/115/115 116/116/116 117/117/117
usemtl water
f 118/118/118 119/119/119 120/120/120
usemtl shallows
f 121/121/121 122/122/122 123/123/123
f 124/124/124 125/125/125 126/126/126
usemtl water
f 127/127/127 128/128/128 129/129/129
usemtl shallows
f 130/130/130 131/131/131 132/132/132
f 133/133/133 134/134/134 135/135/135
usemtl water
f 136/136/136 137/137/137 138/138/138
usemtl shallows
f 139/139/139 140/140/140 141/141/141
f 142/142/142 143/143/143 144/144/144
usemtl water
f 145/145/145 146/146/146 147/147/147
usemtl shallows
f 148/148/148 149/149/149 150/150/150
f 151/151/151 152/152/152 153/153/153
usemtl water
f 154/154/154 155/155/155 156/156/156
usemtl shallows
f 157/157/157 158/158/158 159/159/159
f 160/160/160 161/161/161 162/162/162
usemtl water
f 163/163/163 164/164/164 165/165/165
usemtl shallows
f 166/166/166 167/167/167 168/168/168
f 169/169/169 170/170/170 171/171/171
usemtl water
f 172/172/172 173/173/173 174/174/174
usemtl shallows
f 175/175/175 176/176/176 177/177/177
f 178/178/178 179/179/179 180/180/180
usemtl water
f 181/181/181 182/182/182 183/183/183
usemtl shallows
f 184/184/184 185/185/185 186/186/186
f 187/187/187 188/188/188 189/189/189
usemtl water
f 190/190/190 191/191/191 192/192/192
usemtl shallows
f 193/193/193 194/194/194 195/195/195
f 196/196/196 197/197/197 198/198/198
usemtl water
f 199/199/199 200/200/200 201/201/201
usemtl shallows
f 202/202/202 203/203/203 204/204/204
f 205/205/205 206/206/206 207/207/207
usemtl water
f 208/208/208 209/209/209 210/210/210
usemtl shallows
f 211/211/211 212/212/212 213/213/213
f 214/214/214 215/215/215 216/216/216
usemtl water
f 217/217/217 218/218/218 219/219/219
usemtl shallows
f 220/220/220 221/221/221 222/222/222
f 223/223/223 224/224/224 225/225/225
usemtl water
f 226/226/226 227/227/227 228/228/228
usemtl shallows
f 229/229/229 230/230/230 231/231/231
f 232/232/232 233/233/233 234/234/234
usemtl water
f 235/235/235 236/236/236 237/237/237
usemtl shallows
f 238/238/238 239/239/239 240/240/240
f 241/241/241 242/242/242 243/243/243
usemtl water
f 244/244/244 245/245/245 246/246/246
usemtl shallows
f 247/247/247 248/248/248 249/249/249
f 250/250/250 251/251/251 252/252/252
usemtl water
f 253/253/253 254/254/254 255/255/255
usemtl shallows
f 256/256/256 257/257/257 258/258/258
f 259/259/259 260/260/260 261/261/261
usemtl water
f 262/262/262 263/263/263 264/264/264
usemtl shallows
f 265/265/265 266/266/266 267/267/267
f 268/268/268 269/269/269 270/270/270
usemtl water
f 271/271/271 272/272/272 273/273/273
usemtl shallows
f 274/274/274 275/275/275 276/276/276
f 277/277/277 278/278/278 279/279/279
usemtl water
f 280/280/280 281/281/281 282/282/282
usemtl shallows
f 283/283/283 284/284/284 285/285/285
f 286/286/286 287/287/287 288/288/288
usemtl water
f 289/289/289 290/290/290 291/291/291
usemtl shallows
f 292/292/292 293/293/293 294/294/294
f 295/295/295 296/296/296 297/297/297
usemtl water
f 298/298/298 299/299/299 300/300/300
usemtl shallows
f 301/301/301 302/302/302 303/303/303
f 304/304/304 305/305/305 306/306/306
usemtl water
f 307/307/307 308/308/308 309/309/309
usemtl shallows
f 310/310/310 311/311/311 312/312/312
f 313/313/313 314/314/314 315/315/315
usemtl water
f 316/316/316 317/317/317 318/318/318
usemtl shallows
f 319/319/319 320/320/320 321/321/321
f 322/322/322 323/323/323 324/324/324
usemtl water
f 325/325/325 326/326/326 327/327/327
usemtl shallows
f 328/328/328 329/329/329 330/330/330
f 331/331/331 332/332/332 333/333/333
usemtl water
f 334/334/334 335/335/335 336/336/336
usemtl shallows
f 337/337/337 338/338/338 339/339/339
f 340/340/340 341/341/341 342/342/342
usemtl water
f 343/343/343 344/344/344 345/345/345
usemtl shallows
f 346/346/346 347/347/347 348/348/348
f 349/349/349 350/350/350 351/351/351
usemtl water
f 352/352/352 353/353/353 354/354/354
usemtl shallows
f 355/355/355 356/356/356 357/357/357
f 358/358/358 359/359/359 360/360/360
usemtl water
f 361/361/361 362/362/362 363/363/363
usemtl shallows
f 364/364/364 365/365/365 366/366/366
f 367/367/367 368/368/368 369/369/369
usemtl water
f 370/370/370 371/371/371 372/372/372
usemtl shallows
f 373/373/373 374/374/374 375/375/375
f 376/376/376 377/377/377 378/378/378
usemtl water
f 379/379/379 380/380/380 381/381/381
usemtl shallows
f 382/382/382 383/383/383 384/384/384
f 385/385/385 386/386/386 387/387/387
usemtl water
f 388/388/388 389/389/389 390/390/390
usemtl shallows
f 391/391/391 392/392/392 393/393/393
f 394/394/394 395/395/395 396/396/396
usemtl water
f 397/397/397 398/398/398 399/399/399
usemtl shallows
f 400/400/400 401/401/401 402/402/402
f 403/403/403 404/404/404 405/405/405
usemtl water
f 406/406/406 407/407/407 408/408/408
usemtl shallows
f 409/409/409 410/410/410 411/411/411
f 412/412/412 413/413/413 414/414/414
usemtl water
f 415/415/415 416/416/416 417/417/417
usemtl shallows
f 418/418/418 419/419/419 420/420/420
f 421/421/421 422/422/422 423/423/423
usemtl water
f 424/424/424 425/425/425 426/426/426
usemtl shallows
f 427/427/427 428/428/428 429/429/429
f 430/430/430 431/431/431 432/432/432
usemtl water
f 433/433/433 434/434/434 435/435/435
usemtl shallows
f 436/436/436 437/437/437 438/438/438
f 439/439/439 440/440/440 441/441/441
usemtl water
f 442/442/442 443/443/443 444/444/444
usemtl shallows
f 445/445/445 446/446/446 447/447/447
f 448/448/448 449/449/449 450/450/450
usemtl water
f 451/451/451 452/452/452 453/453/453
usemtl shallows
f 454/454/454 455/455/455 456/456/456
f 457/457/457 458/458/458 459/459/459
usemtl water
f 460/460/460 461/461/461 462/462/462
usemtl shallows
f 463/463/463 464/464/464 465/465/465
f 466/466/466 467/467/467 468/468/468
usemtl water
f 469/469/469 470/470/470 471/471/471
usemtl shallows
f 472/472/472 473/473/473 474/474/474
f 475/475/475 476/476/476 477/477/477
usemtl water
f 478/478/478 479/479/479 480/480/480
usemtl shallows
f 481/481/481 482/482/482 483/483/483
f 484/484/484 485/485/485 486/486/486
usemtl water
f 487/487/487 488/488/488 489/489/489
usemtl shallows
f 490/490/490 491/491/491 492/492/492
f 493/493/493 494/494/494 495/495/495
usemtl water
f 496/496/496 497/497/497 498/498/498
usemtl shallows
f 499/499/499 500/500/500 501/501/501
f 502/502/502 503/503/503 504/504/504
usemtl water
f 505/505/505 506/506/506 507/507/507
usemtl shallows
f 508/508/508 509/509/509 510/510/510
f 511/511/511 512/512/512 513/513/513
usemtl water
f 514/514/514 515/515/515 516/516/516
usemtl shallows
f 517/517/517 518/518/518 519/519/519
f 520/520/520 521/521/521 522/522/522
usemtl water
f 523/523/523 524/524/524 525/525/525
usemtl shallows
f 526/526/526 527/527/527 528/528/528
f 529/529/529 530/530/530 531/531/531
usemtl water
f 532/532/532 533/533/533 534/534/534
usemtl shallows
f 535/535/535 536/536/536 537/537/537
f 538/538/538 539/539/539 540/540/540
usemtl water
f 541/541/541 542/542/542 543/543/543
usemtl shallows
f 544/544/544 545/545/545 546/546/546
f 547/547/547 548/548/548 549/549/549
usemtl water
f 550/550/550 551/551/551 552/552/552
usemtl shallows
f 553/553/553 554/554/554 555/555/555
f 556/556/556 557/557/557 558/558/558
usemtl water
f 559/559/559 560/560/560 561/561/561
usemtl shallows
f 562/562/562 563/563/563 564/564/564
f 565/565/565 566/566/566 567/567/567
usemtl water
f 568/568/568 569/569/569 570/570/570
usemtl shallows
f 571/571/571 572/572/572 573/573/573
f 574/574/574 575/575/575 576/576/576
usemtl water
f 577/577/577 578/578/578 579/579/579
usemtl shallows
f 580/580/580 581/581/581 582/582/582
f 583/583/583 584/584/584 585/585/585
usemtl water
f 586/586/586 587/587/587 588/588/588
usemtl shallows
f 589/589/589 590/590/590 591/591/591
f 592/592/592 593/593/593 594/594/594
usemtl water
f 595/595/595 596/596/596 597/597/597
usemtl shallows
f 598/598/598 599/599/599 600/600/600
f 601/601/601 602/602/602 603/603/603
usemtl water
f 604/604/604 605/605/605 606/606/606
usemtl shallows
f 607/607/607 608/608/608 609/609/609
f 610/610/610 611/611/611 612/612/612
usemtl water
f 613/613/613 614/614/614 615/615/615
usemtl shallows
f 616/616/616 617/617/617 618/618/618
f 619/619/619 620/620/620 621/621/621
usemtl water
f 622/622/622 623/623/623 624/624/624
usemtl shallows
f 625/625/625 626/626/626 627/627/627
f 628/628/628 629/629/629 630/630/630
usemtl water
f 631/631/631 632/632/632 633/633/633
usemtl shallows
f 634/634/634 635/635/635 636/636/636
f 637/637/637 638/638/638 639/639/639
usemtl water
f 640/640/640 641/641/641 642/642/642
usemtl shallows
f 643/643/643 644/644/644 645/645/645
f 646/646/646 647/647/647 648/648/648
