# Deterministic Story World asset: StoryWorld_WaterMesh
mtllib story_world.mtl
o StoryWorld_WaterMesh
v 34.00000 -0.70000 18.00000
v 59.00000 -0.70000 18.00000
v 58.14815 -0.70000 22.65874
v 55.65064 -0.70000 27.00000
v 51.67767 -0.70000 30.72792
v 46.50000 -0.70000 33.58846
v 40.47048 -0.70000 35.38666
v 34.00000 -0.70000 36.00000
v 27.52952 -0.70000 35.38666
v 21.50000 -0.70000 33.58846
v 16.32233 -0.70000 30.72792
v 12.34936 -0.70000 27.00000
v 9.85185 -0.70000 22.65874
v 9.00000 -0.70000 18.00000
v 9.85185 -0.70000 13.34126
v 12.34936 -0.70000 9.00000
v 16.32233 -0.70000 5.27208
v 21.50000 -0.70000 2.41154
v 27.52952 -0.70000 0.61334
v 34.00000 -0.70000 0.00000
v 40.47048 -0.70000 0.61334
v 46.50000 -0.70000 2.41154
v 51.67767 -0.70000 5.27208
v 55.65064 -0.70000 9.00000
v 58.14815 -0.70000 13.34126
usemtl water
f 1 2 3
f 1 3 4
f 1 4 5
f 1 5 6
f 1 6 7
f 1 7 8
f 1 8 9
f 1 9 10
f 1 10 11
f 1 11 12
f 1 12 13
f 1 13 14
f 1 14 15
f 1 15 16
f 1 16 17
f 1 17 18
f 1 18 19
f 1 19 20
f 1 20 21
f 1 21 22
f 1 22 23
f 1 23 24
f 1 24 25
f 1 25 2
