# Original low-poly story asset: world_ball_v1.obj
mtllib story_npc_v1.mtl
o world_ball_v1
s 1

v 0.00000 1.23000 0.00000
v 0.00000 1.23000 0.00000
v 0.00000 1.23000 0.00000
v 0.00000 1.23000 0.00000
v 0.00000 1.23000 0.00000
v 0.00000 1.23000 0.00000
v 0.00000 1.23000 0.00000
v 0.00000 1.23000 0.00000
v 0.00000 1.23000 0.00000
v 0.00000 1.23000 0.00000
v 0.00000 1.23000 0.00000
v 0.00000 1.23000 0.00000
v 0.22196 1.18585 0.00000
v 0.19222 1.18585 0.11098
v 0.11098 1.18585 0.19222
v 0.00000 1.18585 0.22196
v -0.11098 1.18585 0.19222
v -0.19222 1.18585 0.11098
v -0.22196 1.18585 0.00000
v -0.19222 1.18585 -0.11098
v -0.11098 1.18585 -0.19222
v -0.00000 1.18585 -0.22196
v 0.11098 1.18585 -0.19222
v 0.19222 1.18585 -0.11098
v 0.41012 1.06012 0.00000
v 0.35518 1.06012 0.20506
v 0.20506 1.06012 0.35518
v 0.00000 1.06012 0.41012
v -0.20506 1.06012 0.35518
v -0.35518 1.06012 0.20506
v -0.41012 1.06012 0.00000
v -0.35518 1.06012 -0.20506
v -0.20506 1.06012 -0.35518
v -0.00000 1.06012 -0.41012
v 0.20506 1.06012 -0.35518
v 0.35518 1.06012 -0.20506
v 0.53585 0.87196 0.00000
v 0.46406 0.87196 0.26793
v 0.26793 0.87196 0.46406
v 0.00000 0.87196 0.53585
v -0.26793 0.87196 0.46406
v -0.46406 0.87196 0.26793
v -0.53585 0.87196 0.00000
v -0.46406 0.87196 -0.26793
v -0.26793 0.87196 -0.46406
v -0.00000 0.87196 -0.53585
v 0.26793 0.87196 -0.46406
v 0.46406 0.87196 -0.26793
v 0.58000 0.65000 0.00000
v 0.50229 0.65000 0.29000
v 0.29000 0.65000 0.50229
v 0.00000 0.65000 0.58000
v -0.29000 0.65000 0.50229
v -0.50229 0.65000 0.29000
v -0.58000 0.65000 0.00000
v -0.50229 0.65000 -0.29000
v -0.29000 0.65000 -0.50229
v -0.00000 0.65000 -0.58000
v 0.29000 0.65000 -0.50229
v 0.50229 0.65000 -0.29000
v 0.53585 0.42804 0.00000
v 0.46406 0.42804 0.26793
v 0.26793 0.42804 0.46406
v 0.00000 0.42804 0.53585
v -0.26793 0.42804 0.46406
v -0.46406 0.42804 0.26793
v -0.53585 0.42804 0.00000
v -0.46406 0.42804 -0.26793
v -0.26793 0.42804 -0.46406
v -0.00000 0.42804 -0.53585
v 0.26793 0.42804 -0.46406
v 0.46406 0.42804 -0.26793
v 0.41012 0.23988 0.00000
v 0.35518 0.23988 0.20506
v 0.20506 0.23988 0.35518
v 0.00000 0.23988 0.41012
v -0.20506 0.23988 0.35518
v -0.35518 0.23988 0.20506
v -0.41012 0.23988 0.00000
v -0.35518 0.23988 -0.20506
v -0.20506 0.23988 -0.35518
v -0.00000 0.23988 -0.41012
v 0.20506 0.23988 -0.35518
v 0.35518 0.23988 -0.20506
v 0.22196 0.11415 0.00000
v 0.19222 0.11415 0.11098
v 0.11098 0.11415 0.19222
v 0.00000 0.11415 0.22196
v -0.11098 0.11415 0.19222
v -0.19222 0.11415 0.11098
v -0.22196 0.11415 0.00000
v -0.19222 0.11415 -0.11098
v -0.11098 0.11415 -0.19222
v -0.00000 0.11415 -0.22196
v 0.11098 0.11415 -0.19222
v 0.19222 0.11415 -0.11098
v 0.00000 0.07000 0.00000
v 0.00000 0.07000 0.00000
v 0.00000 0.07000 0.00000
v 0.00000 0.07000 0.00000
v -0.00000 0.07000 0.00000
v -0.00000 0.07000 0.00000
v -0.00000 0.07000 0.00000
v -0.00000 0.07000 -0.00000
v -0.00000 0.07000 -0.00000
v -0.00000 0.07000 -0.00000
v 0.00000 0.07000 -0.00000
v 0.00000 0.07000 -0.00000
v 0.32000 0.00000 0.00000
v 0.25889 0.00000 0.18809
v 0.09889 0.00000 0.30434
v -0.09889 0.00000 0.30434
v -0.25889 0.00000 0.18809
v -0.32000 0.00000 0.00000
v -0.25889 0.00000 -0.18809
v -0.09889 0.00000 -0.30434
v 0.09889 0.00000 -0.30434
v 0.25889 0.00000 -0.18809
v 0.32000 0.16000 0.00000
v 0.25889 0.16000 0.18809
v 0.09889 0.16000 0.30434
v -0.09889 0.16000 0.30434
v -0.25889 0.16000 0.18809
v -0.32000 0.16000 0.00000
v -0.25889 0.16000 -0.18809
v -0.09889 0.16000 -0.30434
v 0.09889 0.16000 -0.30434
v 0.25889 0.16000 -0.18809

usemtl crystal
f 1 2 14 13
f 2 3 15 14
f 3 4 16 15
f 4 5 17 16
f 5 6 18 17
f 6 7 19 18
f 7 8 20 19
f 8 9 21 20
f 9 10 22 21
f 10 11 23 22
f 11 12 24 23
f 12 1 13 24
f 13 14 26 25
f 14 15 27 26
f 15 16 28 27
f 16 17 29 28
f 17 18 30 29
f 18 19 31 30
f 19 20 32 31
f 20 21 33 32
f 21 22 34 33
f 22 23 35 34
f 23 24 36 35
f 24 13 25 36
f 25 26 38 37
f 26 27 39 38
f 27 28 40 39
f 28 29 41 40
f 29 30 42 41
f 30 31 43 42
f 31 32 44 43
f 32 33 45 44
f 33 34 46 45
f 34 35 47 46
f 35 36 48 47
f 36 25 37 48
f 37 38 50 49
f 38 39 51 50
f 39 40 52 51
f 40 41 53 52
f 41 42 54 53
f 42 43 55 54
f 43 44 56 55
f 44 45 57 56
f 45 46 58 57
f 46 47 59 58
f 47 48 60 59
f 48 37 49 60
f 49 50 62 61
f 50 51 63 62
f 51 52 64 63
f 52 53 65 64
f 53 54 66 65
f 54 55 67 66
f 55 56 68 67
f 56 57 69 68
f 57 58 70 69
f 58 59 71 70
f 59 60 72 71
f 60 49 61 72
f 61 62 74 73
f 62 63 75 74
f 63 64 76 75
f 64 65 77 76
f 65 66 78 77
f 66 67 79 78
f 67 68 80 79
f 68 69 81 80
f 69 70 82 81
f 70 71 83 82
f 71 72 84 83
f 72 61 73 84
f 73 74 86 85
f 74 75 87 86
f 75 76 88 87
f 76 77 89 88
f 77 78 90 89
f 78 79 91 90
f 79 80 92 91
f 80 81 93 92
f 81 82 94 93
f 82 83 95 94
f 83 84 96 95
f 84 73 85 96
f 85 86 98 97
f 86 87 99 98
f 87 88 100 99
f 88 89 101 100
f 89 90 102 101
f 90 91 103 102
f 91 92 104 103
f 92 93 105 104
f 93 94 106 105
f 94 95 107 106
f 95 96 108 107
f 96 85 97 108

usemtl gold
f 109 110 120 119
f 110 111 121 120
f 111 112 122 121
f 112 113 123 122
f 113 114 124 123
f 114 115 125 124
f 115 116 126 125
f 116 117 127 126
f 117 118 128 127
f 118 109 119 128
f 118 117 116 115 114 113 112 111 110 109
f 119 120 121 122 123 124 125 126 127 128
