# Original low-poly story asset: world_core_v1.obj
mtllib story_npc_v1.mtl
o world_core_v1
s 1

v 0.85000 0.12500 0.00000
v 0.68766 0.12500 0.49962
v 0.26266 0.12500 0.80840
v -0.26266 0.12500 0.80840
v -0.68766 0.12500 0.49962
v -0.85000 0.12500 0.00000
v -0.68766 0.12500 -0.49962
v -0.26266 0.12500 -0.80840
v 0.26266 0.12500 -0.80840
v 0.68766 0.12500 -0.49962
v 0.85000 0.47500 0.00000
v 0.68766 0.47500 0.49962
v 0.26266 0.47500 0.80840
v -0.26266 0.47500 0.80840
v -0.68766 0.47500 0.49962
v -0.85000 0.47500 0.00000
v -0.68766 0.47500 -0.49962
v -0.26266 0.47500 -0.80840
v 0.26266 0.47500 -0.80840
v 0.68766 0.47500 -0.49962
v 0.60000 0.44000 0.00000
v 0.48541 0.44000 0.35267
v 0.18541 0.44000 0.57063
v -0.18541 0.44000 0.57063
v -0.48541 0.44000 0.35267
v -0.60000 0.44000 0.00000
v -0.48541 0.44000 -0.35267
v -0.18541 0.44000 -0.57063
v 0.18541 0.44000 -0.57063
v 0.48541 0.44000 -0.35267
v 0.60000 0.62000 0.00000
v 0.48541 0.62000 0.35267
v 0.18541 0.62000 0.57063
v -0.18541 0.62000 0.57063
v -0.48541 0.62000 0.35267
v -0.60000 0.62000 0.00000
v -0.48541 0.62000 -0.35267
v -0.18541 0.62000 -0.57063
v 0.18541 0.62000 -0.57063
v 0.48541 0.62000 -0.35267
v 0.00000 1.50000 0.00000
v 0.00000 1.50000 0.00000
v 0.00000 1.50000 0.00000
v 0.00000 1.50000 0.00000
v 0.00000 1.50000 0.00000
v 0.00000 1.50000 0.00000
v 0.00000 1.50000 0.00000
v 0.00000 1.50000 0.00000
v 0.00000 1.50000 0.00000
v 0.00000 1.50000 0.00000
v 0.00000 1.50000 0.00000
v 0.00000 1.50000 0.00000
v 0.16073 1.46803 0.00000
v 0.13919 1.46803 0.08036
v 0.08036 1.46803 0.13919
v 0.00000 1.46803 0.16073
v -0.08036 1.46803 0.13919
v -0.13919 1.46803 0.08036
v -0.16073 1.46803 0.00000
v -0.13919 1.46803 -0.08036
v -0.08036 1.46803 -0.13919
v -0.00000 1.46803 -0.16073
v 0.08036 1.46803 -0.13919
v 0.13919 1.46803 -0.08036
v 0.29698 1.37698 0.00000
v 0.25720 1.37698 0.14849
v 0.14849 1.37698 0.25720
v 0.00000 1.37698 0.29698
v -0.14849 1.37698 0.25720
v -0.25720 1.37698 0.14849
v -0.29698 1.37698 0.00000
v -0.25720 1.37698 -0.14849
v -0.14849 1.37698 -0.25720
v -0.00000 1.37698 -0.29698
v 0.14849 1.37698 -0.25720
v 0.25720 1.37698 -0.14849
v 0.38803 1.24073 0.00000
v 0.33604 1.24073 0.19401
v 0.19401 1.24073 0.33604
v 0.00000 1.24073 0.38803
v -0.19401 1.24073 0.33604
v -0.33604 1.24073 0.19401
v -0.38803 1.24073 0.00000
v -0.33604 1.24073 -0.19401
v -0.19401 1.24073 -0.33604
v -0.00000 1.24073 -0.38803
v 0.19401 1.24073 -0.33604
v 0.33604 1.24073 -0.19401
v 0.42000 1.08000 0.00000
v 0.36373 1.08000 0.21000
v 0.21000 1.08000 0.36373
v 0.00000 1.08000 0.42000
v -0.21000 1.08000 0.36373
v -0.36373 1.08000 0.21000
v -0.42000 1.08000 0.00000
v -0.36373 1.08000 -0.21000
v -0.21000 1.08000 -0.36373
v -0.00000 1.08000 -0.42000
v 0.21000 1.08000 -0.36373
v 0.36373 1.08000 -0.21000
v 0.38803 0.91927 0.00000
v 0.33604 0.91927 0.19401
v 0.19401 0.91927 0.33604
v 0.00000 0.91927 0.38803
v -0.19401 0.91927 0.33604
v -0.33604 0.91927 0.19401
v -0.38803 0.91927 0.00000
v -0.33604 0.91927 -0.19401
v -0.19401 0.91927 -0.33604
v -0.00000 0.91927 -0.38803
v 0.19401 0.91927 -0.33604
v 0.33604 0.91927 -0.19401
v 0.29698 0.78302 0.00000
v 0.25720 0.78302 0.14849
v 0.14849 0.78302 0.25720
v 0.00000 0.78302 0.29698
v -0.14849 0.78302 0.25720
v -0.25720 0.78302 0.14849
v -0.29698 0.78302 0.00000
v -0.25720 0.78302 -0.14849
v -0.14849 0.78302 -0.25720
v -0.00000 0.78302 -0.29698
v 0.14849 0.78302 -0.25720
v 0.25720 0.78302 -0.14849
v 0.16073 0.69197 0.00000
v 0.13919 0.69197 0.08036
v 0.08036 0.69197 0.13919
v 0.00000 0.69197 0.16073
v -0.08036 0.69197 0.13919
v -0.13919 0.69197 0.08036
v -0.16073 0.69197 0.00000
v -0.13919 0.69197 -0.08036
v -0.08036 0.69197 -0.13919
v -0.00000 0.69197 -0.16073
v 0.08036 0.69197 -0.13919
v 0.13919 0.69197 -0.08036
v 0.00000 0.66000 0.00000
v 0.00000 0.66000 0.00000
v 0.00000 0.66000 0.00000
v 0.00000 0.66000 0.00000
v -0.00000 0.66000 0.00000
v -0.00000 0.66000 0.00000
v -0.00000 0.66000 0.00000
v -0.00000 0.66000 -0.00000
v -0.00000 0.66000 -0.00000
v -0.00000 0.66000 -0.00000
v 0.00000 0.66000 -0.00000
v 0.00000 0.66000 -0.00000
v -0.52000 0.49500 0.00000
v -0.56000 0.49500 0.06928
v -0.64000 0.49500 0.06928
v -0.68000 0.49500 0.00000
v -0.64000 0.49500 -0.06928
v -0.56000 0.49500 -0.06928
v -0.52000 0.94500 0.00000
v -0.56000 0.94500 0.06928
v -0.64000 0.94500 0.06928
v -0.68000 0.94500 0.00000
v -0.64000 0.94500 -0.06928
v -0.56000 0.94500 -0.06928
v 0.68000 0.49500 0.00000
v 0.64000 0.49500 0.06928
v 0.56000 0.49500 0.06928
v 0.52000 0.49500 0.00000
v 0.56000 0.49500 -0.06928
v 0.64000 0.49500 -0.06928
v 0.68000 0.94500 0.00000
v 0.64000 0.94500 0.06928
v 0.56000 0.94500 0.06928
v 0.52000 0.94500 0.00000
v 0.56000 0.94500 -0.06928
v 0.64000 0.94500 -0.06928
v 0.08000 0.49500 -0.60000
v 0.04000 0.49500 -0.53072
v -0.04000 0.49500 -0.53072
v -0.08000 0.49500 -0.60000
v -0.04000 0.49500 -0.66928
v 0.04000 0.49500 -0.66928
v 0.08000 0.94500 -0.60000
v 0.04000 0.94500 -0.53072
v -0.04000 0.94500 -0.53072
v -0.08000 0.94500 -0.60000
v -0.04000 0.94500 -0.66928
v 0.04000 0.94500 -0.66928
v 0.08000 0.49500 0.60000
v 0.04000 0.49500 0.66928
v -0.04000 0.49500 0.66928
v -0.08000 0.49500 0.60000
v -0.04000 0.49500 0.53072
v 0.04000 0.49500 0.53072
v 0.08000 0.94500 0.60000
v 0.04000 0.94500 0.66928
v -0.04000 0.94500 0.66928
v -0.08000 0.94500 0.60000
v -0.04000 0.94500 0.53072
v 0.04000 0.94500 0.53072

usemtl dark
f 1 2 12 11
f 2 3 13 12
f 3 4 14 13
f 4 5 15 14
f 5 6 16 15
f 6 7 17 16
f 7 8 18 17
f 8 9 19 18
f 9 10 20 19
f 10 1 11 20
f 10 9 8 7 6 5 4 3 2 1
f 11 12 13 14 15 16 17 18 19 20

usemtl gold
f 21 22 32 31
f 22 23 33 32
f 23 24 34 33
f 24 25 35 34
f 25 26 36 35
f 26 27 37 36
f 27 28 38 37
f 28 29 39 38
f 29 30 40 39
f 30 21 31 40
f 30 29 28 27 26 25 24 23 22 21
f 31 32 33 34 35 36 37 38 39 40

usemtl crystal
f 41 42 54 53
f 42 43 55 54
f 43 44 56 55
f 44 45 57 56
f 45 46 58 57
f 46 47 59 58
f 47 48 60 59
f 48 49 61 60
f 49 50 62 61
f 50 51 63 62
f 51 52 64 63
f 52 41 53 64
f 53 54 66 65
f 54 55 67 66
f 55 56 68 67
f 56 57 69 68
f 57 58 70 69
f 58 59 71 70
f 59 60 72 71
f 60 61 73 72
f 61 62 74 73
f 62 63 75 74
f 63 64 76 75
f 64 53 65 76
f 65 66 78 77
f 66 67 79 78
f 67 68 80 79
f 68 69 81 80
f 69 70 82 81
f 70 71 83 82
f 71 72 84 83
f 72 73 85 84
f 73 74 86 85
f 74 75 87 86
f 75 76 88 87
f 76 65 77 88
f 77 78 90 89
f 78 79 91 90
f 79 80 92 91
f 80 81 93 92
f 81 82 94 93
f 82 83 95 94
f 83 84 96 95
f 84 85 97 96
f 85 86 98 97
f 86 87 99 98
f 87 88 100 99
f 88 77 89 100
f 89 90 102 101
f 90 91 103 102
f 91 92 104 103
f 92 93 105 104
f 93 94 106 105
f 94 95 107 106
f 95 96 108 107
f 96 97 109 108
f 97 98 110 109
f 98 99 111 110
f 99 100 112 111
f 100 89 101 112
f 101 102 114 113
f 102 103 115 114
f 103 104 116 115
f 104 105 117 116
f 105 106 118 117
f 106 107 119 118
f 107 108 120 119
f 108 109 121 120
f 109 110 122 121
f 110 111 123 122
f 111 112 124 123
f 112 101 113 124
f 113 114 126 125
f 114 115 127 126
f 115 116 128 127
f 116 117 129 128
f 117 118 130 129
f 118 119 131 130
f 119 120 132 131
f 120 121 133 132
f 121 122 134 133
f 122 123 135 134
f 123 124 136 135
f 124 113 125 136
f 125 126 138 137
f 126 127 139 138
f 127 128 140 139
f 128 129 141 140
f 129 130 142 141
f 130 131 143 142
f 131 132 144 143
f 132 133 145 144
f 133 134 146 145
f 134 135 147 146
f 135 136 148 147
f 136 125 137 148

usemtl gold
f 149 150 156 155
f 150 151 157 156
f 151 152 158 157
f 152 153 159 158
f 153 154 160 159
f 154 149 155 160
f 154 153 152 151 150 149
f 155 156 157 158 159 160
f 161 162 168 167
f 162 163 169 168
f 163 164 170 169
f 164 165 171 170
f 165 166 172 171
f 166 161 167 172
f 166 165 164 163 162 161
f 167 168 169 170 171 172
f 173 174 180 179
f 174 175 181 180
f 175 176 182 181
f 176 177 183 182
f 177 178 184 183
f 178 173 179 184
f 178 177 176 175 174 173
f 179 180 181 182 183 184
f 185 186 192 191
f 186 187 193 192
f 187 188 194 193
f 188 189 195 194
f 189 190 196 195
f 190 185 191 196
f 190 189 188 187 186 185
f 191 192 193 194 195 196
